0
SECTION
2
HEADER
9
$ANGDIR
70
1
9
$AUNITS
70
0
9
$PROJECTNAME
1
Match-Board-PCB
9
$TDCREATE
40
2459809.24227643
9
$INSUNITS
70
4
0
ENDSEC
0
SECTION
2
ENTITIES
0
POLYLINE
66
1
8
outline
10
0.0
20
0.0
30
0.0
70
1
0
VERTEX
8
0
10
0
20
0
30
0
0
VERTEX
8
0
10
42.46
20
0
30
0
0
VERTEX
8
0
10
42.46
20
40
30
0
0
VERTEX
8
0
10
0
20
40
30
0
0
VERTEX
8
0
10
0
20
0
30
0
0
SEQEND
0
POLYLINE
66
1
8
holes
10
0.0
20
0.0
30
0.0
70
1
0
VERTEX
8
0
10
14.3
20
5.027621875
30
0
0
VERTEX
8
0
10
14.29315
20
4.9230875
30
0
0
VERTEX
8
0
10
14.279475000000001
20
4.819228125
30
0
0
VERTEX
8
0
10
14.2590375
20
4.716484375
30
0
0
VERTEX
8
0
10
14.231925
20
4.615296875
30
0
0
VERTEX
8
0
10
14.198253125
20
4.516096875000001
30
0
0
VERTEX
8
0
10
14.158162500000001
20
4.419315625
30
0
0
VERTEX
8
0
10
14.11183125
20
4.3253625
30
0
0
VERTEX
8
0
10
14.05945
20
4.2346375
30
0
0
VERTEX
8
0
10
14.00125
20
4.1475375
30
0
0
VERTEX
8
0
10
13.937478125
20
4.064428125
30
0
0
VERTEX
8
0
10
13.868409375
20
3.985665625
30
0
0
VERTEX
8
0
10
13.794334375
20
3.911590625
30
0
0
VERTEX
8
0
10
13.715571875
20
3.842521875
30
0
0
VERTEX
8
0
10
13.6324625
20
3.77875
30
0
0
VERTEX
8
0
10
13.545362500000001
20
3.7205500000000002
30
0
0
VERTEX
8
0
10
13.4546375
20
3.66816875
30
0
0
VERTEX
8
0
10
13.360684375
20
3.6218375000000003
30
0
0
VERTEX
8
0
10
13.263903125
20
3.5817468750000003
30
0
0
VERTEX
8
0
10
13.164703125
20
3.5480750000000003
30
0
0
VERTEX
8
0
10
13.063515625
20
3.5209625
30
0
0
VERTEX
8
0
10
12.960771875
20
3.500525
30
0
0
VERTEX
8
0
10
12.8569125
20
3.48685
30
0
0
VERTEX
8
0
10
12.752378125
20
3.48
30
0
0
VERTEX
8
0
10
12.647621875
20
3.48
30
0
0
VERTEX
8
0
10
12.5430875
20
3.48685
30
0
0
VERTEX
8
0
10
12.439228125000001
20
3.500525
30
0
0
VERTEX
8
0
10
12.336484375000001
20
3.5209625
30
0
0
VERTEX
8
0
10
12.235296875000001
20
3.5480750000000003
30
0
0
VERTEX
8
0
10
12.136096875
20
3.5817468750000003
30
0
0
VERTEX
8
0
10
12.039315625
20
3.6218375000000003
30
0
0
VERTEX
8
0
10
11.9453625
20
3.66816875
30
0
0
VERTEX
8
0
10
11.8546375
20
3.7205500000000002
30
0
0
VERTEX
8
0
10
11.767537500000001
20
3.77875
30
0
0
VERTEX
8
0
10
11.684428125
20
3.842521875
30
0
0
VERTEX
8
0
10
11.605665625
20
3.911590625
30
0
0
VERTEX
8
0
10
11.531590625
20
3.985665625
30
0
0
VERTEX
8
0
10
11.462521875
20
4.064428125
30
0
0
VERTEX
8
0
10
11.39875
20
4.1475375
30
0
0
VERTEX
8
0
10
11.34055
20
4.2346375
30
0
0
VERTEX
8
0
10
11.28816875
20
4.3253625
30
0
0
VERTEX
8
0
10
11.2418375
20
4.419315625
30
0
0
VERTEX
8
0
10
11.201746875000001
20
4.516096875000001
30
0
0
VERTEX
8
0
10
11.168075
20
4.615296875
30
0
0
VERTEX
8
0
10
11.1409625
20
4.716484375
30
0
0
VERTEX
8
0
10
11.120525
20
4.819228125
30
0
0
VERTEX
8
0
10
11.10685
20
4.9230875
30
0
0
VERTEX
8
0
10
11.1
20
5.027621875
30
0
0
VERTEX
8
0
10
11.1
20
5.132378125000001
30
0
0
VERTEX
8
0
10
11.10685
20
5.2369125
30
0
0
VERTEX
8
0
10
11.120525
20
5.340771875000001
30
0
0
VERTEX
8
0
10
11.1409625
20
5.443515625
30
0
0
VERTEX
8
0
10
11.168075
20
5.544703125
30
0
0
VERTEX
8
0
10
11.201746875000001
20
5.6439031250000005
30
0
0
VERTEX
8
0
10
11.2418375
20
5.740684375
30
0
0
VERTEX
8
0
10
11.28816875
20
5.8346375
30
0
0
VERTEX
8
0
10
11.34055
20
5.9253625
30
0
0
VERTEX
8
0
10
11.39875
20
6.012462500000001
30
0
0
VERTEX
8
0
10
11.462521875
20
6.095571875
30
0
0
VERTEX
8
0
10
11.531590625
20
6.174334375
30
0
0
VERTEX
8
0
10
11.605665625
20
6.2484093750000005
30
0
0
VERTEX
8
0
10
11.684428125
20
6.317478125
30
0
0
VERTEX
8
0
10
11.767537500000001
20
6.3812500000000005
30
0
0
VERTEX
8
0
10
11.8546375
20
6.43945
30
0
0
VERTEX
8
0
10
11.9453625
20
6.491831250000001
30
0
0
VERTEX
8
0
10
12.039315625
20
6.5381625
30
0
0
VERTEX
8
0
10
12.136096875
20
6.578253125000001
30
0
0
VERTEX
8
0
10
12.235296875000001
20
6.611925
30
0
0
VERTEX
8
0
10
12.336484375000001
20
6.639037500000001
30
0
0
VERTEX
8
0
10
12.439228125000001
20
6.6594750000000005
30
0
0
VERTEX
8
0
10
12.5430875
20
6.673150000000001
30
0
0
VERTEX
8
0
10
12.647621875
20
6.680000000000001
30
0
0
VERTEX
8
0
10
12.752378125
20
6.680000000000001
30
0
0
VERTEX
8
0
10
12.8569125
20
6.673150000000001
30
0
0
VERTEX
8
0
10
12.960771875
20
6.6594750000000005
30
0
0
VERTEX
8
0
10
13.063515625
20
6.639037500000001
30
0
0
VERTEX
8
0
10
13.164703125
20
6.611925
30
0
0
VERTEX
8
0
10
13.263903125
20
6.578253125000001
30
0
0
VERTEX
8
0
10
13.360684375
20
6.5381625
30
0
0
VERTEX
8
0
10
13.4546375
20
6.491831250000001
30
0
0
VERTEX
8
0
10
13.545362500000001
20
6.43945
30
0
0
VERTEX
8
0
10
13.6324625
20
6.3812500000000005
30
0
0
VERTEX
8
0
10
13.715571875
20
6.317478125
30
0
0
VERTEX
8
0
10
13.794334375
20
6.2484093750000005
30
0
0
VERTEX
8
0
10
13.868409375
20
6.174334375
30
0
0
VERTEX
8
0
10
13.937478125
20
6.095571875
30
0
0
VERTEX
8
0
10
14.00125
20
6.012462500000001
30
0
0
VERTEX
8
0
10
14.05945
20
5.9253625
30
0
0
VERTEX
8
0
10
14.11183125
20
5.8346375
30
0
0
VERTEX
8
0
10
14.158162500000001
20
5.740684375
30
0
0
VERTEX
8
0
10
14.198253125
20
5.6439031250000005
30
0
0
VERTEX
8
0
10
14.231925
20
5.544703125
30
0
0
VERTEX
8
0
10
14.2590375
20
5.443515625
30
0
0
VERTEX
8
0
10
14.279475000000001
20
5.340771875000001
30
0
0
VERTEX
8
0
10
14.29315
20
5.2369125
30
0
0
VERTEX
8
0
10
14.3
20
5.132378125000001
30
0
0
VERTEX
8
0
10
14.3
20
5.027621875
30
0
0
SEQEND
0
POLYLINE
66
1
8
holes
10
0.0
20
0.0
30
0.0
70
1
0
VERTEX
8
0
10
37.160000000000004
20
35.507621875000005
30
0
0
VERTEX
8
0
10
37.153150000000004
20
35.403087500000005
30
0
0
VERTEX
8
0
10
37.139475000000004
20
35.299228125
30
0
0
VERTEX
8
0
10
37.119037500000005
20
35.196484375000004
30
0
0
VERTEX
8
0
10
37.091925
20
35.095296875
30
0
0
VERTEX
8
0
10
37.058253125
20
34.996096875
30
0
0
VERTEX
8
0
10
37.0181625
20
34.899315625
30
0
0
VERTEX
8
0
10
36.97183125
20
34.8053625
30
0
0
VERTEX
8
0
10
36.919450000000005
20
34.7146375
30
0
0
VERTEX
8
0
10
36.86125
20
34.6275375
30
0
0
VERTEX
8
0
10
36.797478125000005
20
34.544428125
30
0
0
VERTEX
8
0
10
36.728409375
20
34.465665625
30
0
0
VERTEX
8
0
10
36.654334375000005
20
34.391590625
30
0
0
VERTEX
8
0
10
36.575571875
20
34.322521875
30
0
0
VERTEX
8
0
10
36.4924625
20
34.25875
30
0
0
VERTEX
8
0
10
36.4053625
20
34.20055
30
0
0
VERTEX
8
0
10
36.3146375
20
34.14816875
30
0
0
VERTEX
8
0
10
36.220684375000005
20
34.1018375
30
0
0
VERTEX
8
0
10
36.123903125
20
34.061746875000004
30
0
0
VERTEX
8
0
10
36.024703125
20
34.028075
30
0
0
VERTEX
8
0
10
35.923515625
20
34.0009625
30
0
0
VERTEX
8
0
10
35.820771875
20
33.980525
30
0
0
VERTEX
8
0
10
35.7169125
20
33.96685
30
0
0
VERTEX
8
0
10
35.612378125
20
33.96
30
0
0
VERTEX
8
0
10
35.507621875000005
20
33.96
30
0
0
VERTEX
8
0
10
35.403087500000005
20
33.96685
30
0
0
VERTEX
8
0
10
35.299228125
20
33.980525
30
0
0
VERTEX
8
0
10
35.196484375000004
20
34.0009625
30
0
0
VERTEX
8
0
10
35.095296875
20
34.028075
30
0
0
VERTEX
8
0
10
34.996096875
20
34.061746875000004
30
0
0
VERTEX
8
0
10
34.899315625
20
34.1018375
30
0
0
VERTEX
8
0
10
34.8053625
20
34.14816875
30
0
0
VERTEX
8
0
10
34.7146375
20
34.20055
30
0
0
VERTEX
8
0
10
34.6275375
20
34.25875
30
0
0
VERTEX
8
0
10
34.544428125
20
34.322521875
30
0
0
VERTEX
8
0
10
34.465665625
20
34.391590625
30
0
0
VERTEX
8
0
10
34.391590625
20
34.465665625
30
0
0
VERTEX
8
0
10
34.322521875
20
34.544428125
30
0
0
VERTEX
8
0
10
34.25875
20
34.6275375
30
0
0
VERTEX
8
0
10
34.20055
20
34.7146375
30
0
0
VERTEX
8
0
10
34.14816875
20
34.8053625
30
0
0
VERTEX
8
0
10
34.1018375
20
34.899315625
30
0
0
VERTEX
8
0
10
34.061746875000004
20
34.996096875
30
0
0
VERTEX
8
0
10
34.028075
20
35.095296875
30
0
0
VERTEX
8
0
10
34.0009625
20
35.196484375000004
30
0
0
VERTEX
8
0
10
33.980525
20
35.299228125
30
0
0
VERTEX
8
0
10
33.96685
20
35.403087500000005
30
0
0
VERTEX
8
0
10
33.96
20
35.507621875000005
30
0
0
VERTEX
8
0
10
33.96
20
35.612378125
30
0
0
VERTEX
8
0
10
33.96685
20
35.7169125
30
0
0
VERTEX
8
0
10
33.980525
20
35.820771875
30
0
0
VERTEX
8
0
10
34.0009625
20
35.923515625
30
0
0
VERTEX
8
0
10
34.028075
20
36.024703125
30
0
0
VERTEX
8
0
10
34.061746875000004
20
36.123903125
30
0
0
VERTEX
8
0
10
34.1018375
20
36.220684375000005
30
0
0
VERTEX
8
0
10
34.14816875
20
36.3146375
30
0
0
VERTEX
8
0
10
34.20055
20
36.4053625
30
0
0
VERTEX
8
0
10
34.25875
20
36.4924625
30
0
0
VERTEX
8
0
10
34.322521875
20
36.575571875
30
0
0
VERTEX
8
0
10
34.391590625
20
36.654334375000005
30
0
0
VERTEX
8
0
10
34.465665625
20
36.728409375
30
0
0
VERTEX
8
0
10
34.544428125
20
36.797478125000005
30
0
0
VERTEX
8
0
10
34.6275375
20
36.86125
30
0
0
VERTEX
8
0
10
34.7146375
20
36.919450000000005
30
0
0
VERTEX
8
0
10
34.8053625
20
36.97183125
30
0
0
VERTEX
8
0
10
34.899315625
20
37.0181625
30
0
0
VERTEX
8
0
10
34.996096875
20
37.058253125
30
0
0
VERTEX
8
0
10
35.095296875
20
37.091925
30
0
0
VERTEX
8
0
10
35.196484375000004
20
37.119037500000005
30
0
0
VERTEX
8
0
10
35.299228125
20
37.139475000000004
30
0
0
VERTEX
8
0
10
35.403087500000005
20
37.153150000000004
30
0
0
VERTEX
8
0
10
35.507621875000005
20
37.160000000000004
30
0
0
VERTEX
8
0
10
35.612378125
20
37.160000000000004
30
0
0
VERTEX
8
0
10
35.7169125
20
37.153150000000004
30
0
0
VERTEX
8
0
10
35.820771875
20
37.139475000000004
30
0
0
VERTEX
8
0
10
35.923515625
20
37.119037500000005
30
0
0
VERTEX
8
0
10
36.024703125
20
37.091925
30
0
0
VERTEX
8
0
10
36.123903125
20
37.058253125
30
0
0
VERTEX
8
0
10
36.220684375000005
20
37.0181625
30
0
0
VERTEX
8
0
10
36.3146375
20
36.97183125
30
0
0
VERTEX
8
0
10
36.4053625
20
36.919450000000005
30
0
0
VERTEX
8
0
10
36.4924625
20
36.86125
30
0
0
VERTEX
8
0
10
36.575571875
20
36.797478125000005
30
0
0
VERTEX
8
0
10
36.654334375000005
20
36.728409375
30
0
0
VERTEX
8
0
10
36.728409375
20
36.654334375000005
30
0
0
VERTEX
8
0
10
36.797478125000005
20
36.575571875
30
0
0
VERTEX
8
0
10
36.86125
20
36.4924625
30
0
0
VERTEX
8
0
10
36.919450000000005
20
36.4053625
30
0
0
VERTEX
8
0
10
36.97183125
20
36.3146375
30
0
0
VERTEX
8
0
10
37.0181625
20
36.220684375000005
30
0
0
VERTEX
8
0
10
37.058253125
20
36.123903125
30
0
0
VERTEX
8
0
10
37.091925
20
36.024703125
30
0
0
VERTEX
8
0
10
37.119037500000005
20
35.923515625
30
0
0
VERTEX
8
0
10
37.139475000000004
20
35.820771875
30
0
0
VERTEX
8
0
10
37.153150000000004
20
35.7169125
30
0
0
VERTEX
8
0
10
37.160000000000004
20
35.612378125
30
0
0
VERTEX
8
0
10
37.160000000000004
20
35.507621875000005
30
0
0
SEQEND
0
POLYLINE
66
1
8
holes
10
0.0
20
0.0
30
0.0
70
1
0
VERTEX
8
0
10
14.3
20
35.507621875000005
30
0
0
VERTEX
8
0
10
14.29315
20
35.403087500000005
30
0
0
VERTEX
8
0
10
14.279475000000001
20
35.299228125
30
0
0
VERTEX
8
0
10
14.2590375
20
35.196484375000004
30
0
0
VERTEX
8
0
10
14.231925
20
35.095296875
30
0
0
VERTEX
8
0
10
14.198253125
20
34.996096875
30
0
0
VERTEX
8
0
10
14.158162500000001
20
34.899315625
30
0
0
VERTEX
8
0
10
14.11183125
20
34.8053625
30
0
0
VERTEX
8
0
10
14.05945
20
34.7146375
30
0
0
VERTEX
8
0
10
14.00125
20
34.6275375
30
0
0
VERTEX
8
0
10
13.937478125
20
34.544428125
30
0
0
VERTEX
8
0
10
13.868409375
20
34.465665625
30
0
0
VERTEX
8
0
10
13.794334375
20
34.391590625
30
0
0
VERTEX
8
0
10
13.715571875
20
34.322521875
30
0
0
VERTEX
8
0
10
13.6324625
20
34.25875
30
0
0
VERTEX
8
0
10
13.545362500000001
20
34.20055
30
0
0
VERTEX
8
0
10
13.4546375
20
34.14816875
30
0
0
VERTEX
8
0
10
13.360684375
20
34.1018375
30
0
0
VERTEX
8
0
10
13.263903125
20
34.061746875000004
30
0
0
VERTEX
8
0
10
13.164703125
20
34.028075
30
0
0
VERTEX
8
0
10
13.063515625
20
34.0009625
30
0
0
VERTEX
8
0
10
12.960771875
20
33.980525
30
0
0
VERTEX
8
0
10
12.8569125
20
33.96685
30
0
0
VERTEX
8
0
10
12.752378125
20
33.96
30
0
0
VERTEX
8
0
10
12.647621875
20
33.96
30
0
0
VERTEX
8
0
10
12.5430875
20
33.96685
30
0
0
VERTEX
8
0
10
12.439228125000001
20
33.980525
30
0
0
VERTEX
8
0
10
12.336484375000001
20
34.0009625
30
0
0
VERTEX
8
0
10
12.235296875000001
20
34.028075
30
0
0
VERTEX
8
0
10
12.136096875
20
34.061746875000004
30
0
0
VERTEX
8
0
10
12.039315625
20
34.1018375
30
0
0
VERTEX
8
0
10
11.9453625
20
34.14816875
30
0
0
VERTEX
8
0
10
11.8546375
20
34.20055
30
0
0
VERTEX
8
0
10
11.767537500000001
20
34.25875
30
0
0
VERTEX
8
0
10
11.684428125
20
34.322521875
30
0
0
VERTEX
8
0
10
11.605665625
20
34.391590625
30
0
0
VERTEX
8
0
10
11.531590625
20
34.465665625
30
0
0
VERTEX
8
0
10
11.462521875
20
34.544428125
30
0
0
VERTEX
8
0
10
11.39875
20
34.6275375
30
0
0
VERTEX
8
0
10
11.34055
20
34.7146375
30
0
0
VERTEX
8
0
10
11.28816875
20
34.8053625
30
0
0
VERTEX
8
0
10
11.2418375
20
34.899315625
30
0
0
VERTEX
8
0
10
11.201746875000001
20
34.996096875
30
0
0
VERTEX
8
0
10
11.168075
20
35.095296875
30
0
0
VERTEX
8
0
10
11.1409625
20
35.196484375000004
30
0
0
VERTEX
8
0
10
11.120525
20
35.299228125
30
0
0
VERTEX
8
0
10
11.10685
20
35.403087500000005
30
0
0
VERTEX
8
0
10
11.1
20
35.507621875000005
30
0
0
VERTEX
8
0
10
11.1
20
35.612378125
30
0
0
VERTEX
8
0
10
11.10685
20
35.7169125
30
0
0
VERTEX
8
0
10
11.120525
20
35.820771875
30
0
0
VERTEX
8
0
10
11.1409625
20
35.923515625
30
0
0
VERTEX
8
0
10
11.168075
20
36.024703125
30
0
0
VERTEX
8
0
10
11.201746875000001
20
36.123903125
30
0
0
VERTEX
8
0
10
11.2418375
20
36.220684375000005
30
0
0
VERTEX
8
0
10
11.28816875
20
36.3146375
30
0
0
VERTEX
8
0
10
11.34055
20
36.4053625
30
0
0
VERTEX
8
0
10
11.39875
20
36.4924625
30
0
0
VERTEX
8
0
10
11.462521875
20
36.575571875
30
0
0
VERTEX
8
0
10
11.531590625
20
36.654334375000005
30
0
0
VERTEX
8
0
10
11.605665625
20
36.728409375
30
0
0
VERTEX
8
0
10
11.684428125
20
36.797478125000005
30
0
0
VERTEX
8
0
10
11.767537500000001
20
36.86125
30
0
0
VERTEX
8
0
10
11.8546375
20
36.919450000000005
30
0
0
VERTEX
8
0
10
11.9453625
20
36.97183125
30
0
0
VERTEX
8
0
10
12.039315625
20
37.0181625
30
0
0
VERTEX
8
0
10
12.136096875
20
37.058253125
30
0
0
VERTEX
8
0
10
12.235296875000001
20
37.091925
30
0
0
VERTEX
8
0
10
12.336484375000001
20
37.119037500000005
30
0
0
VERTEX
8
0
10
12.439228125000001
20
37.139475000000004
30
0
0
VERTEX
8
0
10
12.5430875
20
37.153150000000004
30
0
0
VERTEX
8
0
10
12.647621875
20
37.160000000000004
30
0
0
VERTEX
8
0
10
12.752378125
20
37.160000000000004
30
0
0
VERTEX
8
0
10
12.8569125
20
37.153150000000004
30
0
0
VERTEX
8
0
10
12.960771875
20
37.139475000000004
30
0
0
VERTEX
8
0
10
13.063515625
20
37.119037500000005
30
0
0
VERTEX
8
0
10
13.164703125
20
37.091925
30
0
0
VERTEX
8
0
10
13.263903125
20
37.058253125
30
0
0
VERTEX
8
0
10
13.360684375
20
37.0181625
30
0
0
VERTEX
8
0
10
13.4546375
20
36.97183125
30
0
0
VERTEX
8
0
10
13.545362500000001
20
36.919450000000005
30
0
0
VERTEX
8
0
10
13.6324625
20
36.86125
30
0
0
VERTEX
8
0
10
13.715571875
20
36.797478125000005
30
0
0
VERTEX
8
0
10
13.794334375
20
36.728409375
30
0
0
VERTEX
8
0
10
13.868409375
20
36.654334375000005
30
0
0
VERTEX
8
0
10
13.937478125
20
36.575571875
30
0
0
VERTEX
8
0
10
14.00125
20
36.4924625
30
0
0
VERTEX
8
0
10
14.05945
20
36.4053625
30
0
0
VERTEX
8
0
10
14.11183125
20
36.3146375
30
0
0
VERTEX
8
0
10
14.158162500000001
20
36.220684375000005
30
0
0
VERTEX
8
0
10
14.198253125
20
36.123903125
30
0
0
VERTEX
8
0
10
14.231925
20
36.024703125
30
0
0
VERTEX
8
0
10
14.2590375
20
35.923515625
30
0
0
VERTEX
8
0
10
14.279475000000001
20
35.820771875
30
0
0
VERTEX
8
0
10
14.29315
20
35.7169125
30
0
0
VERTEX
8
0
10
14.3
20
35.612378125
30
0
0
VERTEX
8
0
10
14.3
20
35.507621875000005
30
0
0
SEQEND
0
POLYLINE
66
1
8
holes
10
0.0
20
0.0
30
0.0
70
1
0
VERTEX
8
0
10
37.160000000000004
20
5.027621875
30
0
0
VERTEX
8
0
10
37.153150000000004
20
4.9230875
30
0
0
VERTEX
8
0
10
37.139475000000004
20
4.819228125
30
0
0
VERTEX
8
0
10
37.119037500000005
20
4.716484375
30
0
0
VERTEX
8
0
10
37.091925
20
4.615296875
30
0
0
VERTEX
8
0
10
37.058253125
20
4.516096875000001
30
0
0
VERTEX
8
0
10
37.0181625
20
4.419315625
30
0
0
VERTEX
8
0
10
36.97183125
20
4.3253625
30
0
0
VERTEX
8
0
10
36.919450000000005
20
4.2346375
30
0
0
VERTEX
8
0
10
36.86125
20
4.1475375
30
0
0
VERTEX
8
0
10
36.797478125000005
20
4.064428125
30
0
0
VERTEX
8
0
10
36.728409375
20
3.985665625
30
0
0
VERTEX
8
0
10
36.654334375000005
20
3.911590625
30
0
0
VERTEX
8
0
10
36.575571875
20
3.842521875
30
0
0
VERTEX
8
0
10
36.4924625
20
3.77875
30
0
0
VERTEX
8
0
10
36.4053625
20
3.7205500000000002
30
0
0
VERTEX
8
0
10
36.3146375
20
3.66816875
30
0
0
VERTEX
8
0
10
36.220684375000005
20
3.6218375000000003
30
0
0
VERTEX
8
0
10
36.123903125
20
3.5817468750000003
30
0
0
VERTEX
8
0
10
36.024703125
20
3.5480750000000003
30
0
0
VERTEX
8
0
10
35.923515625
20
3.5209625
30
0
0
VERTEX
8
0
10
35.820771875
20
3.500525
30
0
0
VERTEX
8
0
10
35.7169125
20
3.48685
30
0
0
VERTEX
8
0
10
35.612378125
20
3.48
30
0
0
VERTEX
8
0
10
35.507621875000005
20
3.48
30
0
0
VERTEX
8
0
10
35.403087500000005
20
3.48685
30
0
0
VERTEX
8
0
10
35.299228125
20
3.500525
30
0
0
VERTEX
8
0
10
35.196484375000004
20
3.5209625
30
0
0
VERTEX
8
0
10
35.095296875
20
3.5480750000000003
30
0
0
VERTEX
8
0
10
34.996096875
20
3.5817468750000003
30
0
0
VERTEX
8
0
10
34.899315625
20
3.6218375000000003
30
0
0
VERTEX
8
0
10
34.8053625
20
3.66816875
30
0
0
VERTEX
8
0
10
34.7146375
20
3.7205500000000002
30
0
0
VERTEX
8
0
10
34.6275375
20
3.77875
30
0
0
VERTEX
8
0
10
34.544428125
20
3.842521875
30
0
0
VERTEX
8
0
10
34.465665625
20
3.911590625
30
0
0
VERTEX
8
0
10
34.391590625
20
3.985665625
30
0
0
VERTEX
8
0
10
34.322521875
20
4.064428125
30
0
0
VERTEX
8
0
10
34.25875
20
4.1475375
30
0
0
VERTEX
8
0
10
34.20055
20
4.2346375
30
0
0
VERTEX
8
0
10
34.14816875
20
4.3253625
30
0
0
VERTEX
8
0
10
34.1018375
20
4.419315625
30
0
0
VERTEX
8
0
10
34.061746875000004
20
4.516096875000001
30
0
0
VERTEX
8
0
10
34.028075
20
4.615296875
30
0
0
VERTEX
8
0
10
34.0009625
20
4.716484375
30
0
0
VERTEX
8
0
10
33.980525
20
4.819228125
30
0
0
VERTEX
8
0
10
33.96685
20
4.9230875
30
0
0
VERTEX
8
0
10
33.96
20
5.027621875
30
0
0
VERTEX
8
0
10
33.96
20
5.132378125000001
30
0
0
VERTEX
8
0
10
33.96685
20
5.2369125
30
0
0
VERTEX
8
0
10
33.980525
20
5.340771875000001
30
0
0
VERTEX
8
0
10
34.0009625
20
5.443515625
30
0
0
VERTEX
8
0
10
34.028075
20
5.544703125
30
0
0
VERTEX
8
0
10
34.061746875000004
20
5.6439031250000005
30
0
0
VERTEX
8
0
10
34.1018375
20
5.740684375
30
0
0
VERTEX
8
0
10
34.14816875
20
5.8346375
30
0
0
VERTEX
8
0
10
34.20055
20
5.9253625
30
0
0
VERTEX
8
0
10
34.25875
20
6.012462500000001
30
0
0
VERTEX
8
0
10
34.322521875
20
6.095571875
30
0
0
VERTEX
8
0
10
34.391590625
20
6.174334375
30
0
0
VERTEX
8
0
10
34.465665625
20
6.2484093750000005
30
0
0
VERTEX
8
0
10
34.544428125
20
6.317478125
30
0
0
VERTEX
8
0
10
34.6275375
20
6.3812500000000005
30
0
0
VERTEX
8
0
10
34.7146375
20
6.43945
30
0
0
VERTEX
8
0
10
34.8053625
20
6.491831250000001
30
0
0
VERTEX
8
0
10
34.899315625
20
6.5381625
30
0
0
VERTEX
8
0
10
34.996096875
20
6.578253125000001
30
0
0
VERTEX
8
0
10
35.095296875
20
6.611925
30
0
0
VERTEX
8
0
10
35.196484375000004
20
6.639037500000001
30
0
0
VERTEX
8
0
10
35.299228125
20
6.6594750000000005
30
0
0
VERTEX
8
0
10
35.403087500000005
20
6.673150000000001
30
0
0
VERTEX
8
0
10
35.507621875000005
20
6.680000000000001
30
0
0
VERTEX
8
0
10
35.612378125
20
6.680000000000001
30
0
0
VERTEX
8
0
10
35.7169125
20
6.673150000000001
30
0
0
VERTEX
8
0
10
35.820771875
20
6.6594750000000005
30
0
0
VERTEX
8
0
10
35.923515625
20
6.639037500000001
30
0
0
VERTEX
8
0
10
36.024703125
20
6.611925
30
0
0
VERTEX
8
0
10
36.123903125
20
6.578253125000001
30
0
0
VERTEX
8
0
10
36.220684375000005
20
6.5381625
30
0
0
VERTEX
8
0
10
36.3146375
20
6.491831250000001
30
0
0
VERTEX
8
0
10
36.4053625
20
6.43945
30
0
0
VERTEX
8
0
10
36.4924625
20
6.3812500000000005
30
0
0
VERTEX
8
0
10
36.575571875
20
6.317478125
30
0
0
VERTEX
8
0
10
36.654334375000005
20
6.2484093750000005
30
0
0
VERTEX
8
0
10
36.728409375
20
6.174334375
30
0
0
VERTEX
8
0
10
36.797478125000005
20
6.095571875
30
0
0
VERTEX
8
0
10
36.86125
20
6.012462500000001
30
0
0
VERTEX
8
0
10
36.919450000000005
20
5.9253625
30
0
0
VERTEX
8
0
10
36.97183125
20
5.8346375
30
0
0
VERTEX
8
0
10
37.0181625
20
5.740684375
30
0
0
VERTEX
8
0
10
37.058253125
20
5.6439031250000005
30
0
0
VERTEX
8
0
10
37.091925
20
5.544703125
30
0
0
VERTEX
8
0
10
37.119037500000005
20
5.443515625
30
0
0
VERTEX
8
0
10
37.139475000000004
20
5.340771875000001
30
0
0
VERTEX
8
0
10
37.153150000000004
20
5.2369125
30
0
0
VERTEX
8
0
10
37.160000000000004
20
5.132378125000001
30
0
0
VERTEX
8
0
10
37.160000000000004
20
5.027621875
30
0
0
SEQEND
0
POLYLINE
66
1
8
1_copper
10
0.0
20
0.0
30
0.0
70
1
0
VERTEX
8
0
10
28.650000000000002
20
20.11
30
0
0
VERTEX
8
0
10
29.110000000000003
20
20.11
30
0
0
VERTEX
8
0
10
29.110000000000003
20
20.53
30
0
0
VERTEX
8
0
10
28.650000000000002
20
20.53
30
0
0
VERTEX
8
0
10
28.650000000000002
20
20.447000000000003
30
0
0
VERTEX
8
0
10
25.527
20
20.447000000000003
30
0
0
VERTEX
8
0
10
25.527
20
21.537396875000002
30
0
0
VERTEX
8
0
10
26.722603125000003
20
22.733
30
0
0
VERTEX
8
0
10
28.21
20
22.733
30
0
0
VERTEX
8
0
10
28.21
20
22.51
30
0
0
VERTEX
8
0
10
28.860000000000003
20
22.51
30
0
0
VERTEX
8
0
10
28.860000000000003
20
23.21
30
0
0
VERTEX
8
0
10
28.21
20
23.21
30
0
0
VERTEX
8
0
10
28.21
20
22.987000000000002
30
0
0
VERTEX
8
0
10
26.657490625
20
22.987000000000002
30
0
0
VERTEX
8
0
10
26.632956250000003
20
22.98211875
30
0
0
VERTEX
8
0
10
26.60984375
20
22.972546875000003
30
0
0
VERTEX
8
0
10
26.589043750000002
20
22.958646875
30
0
0
VERTEX
8
0
10
25.301353125000002
20
21.67095625
30
0
0
VERTEX
8
0
10
25.287453125000003
20
21.650156250000002
30
0
0
VERTEX
8
0
10
25.27788125
20
21.627043750000002
30
0
0
VERTEX
8
0
10
25.273
20
21.602509375
30
0
0
VERTEX
8
0
10
25.273
20
20.447000000000003
30
0
0
VERTEX
8
0
10
23.8125
20
20.447000000000003
30
0
0
VERTEX
8
0
10
23.8125
20
20.6375
30
0
0
VERTEX
8
0
10
21.907500000000002
20
20.6375
30
0
0
VERTEX
8
0
10
21.907500000000002
20
20.0025
30
0
0
VERTEX
8
0
10
23.8125
20
20.0025
30
0
0
VERTEX
8
0
10
23.8125
20
20.193
30
0
0
VERTEX
8
0
10
28.650000000000002
20
20.193
30
0
0
SEQEND
0
POLYLINE
66
1
8
1_copper
10
0.0
20
0.0
30
0.0
70
1
0
VERTEX
8
0
10
36.971153125
20
19.127396875000002
30
0
0
VERTEX
8
0
10
37.0642875
20
19.14215
30
0
0
VERTEX
8
0
10
37.15598125
20
19.1641625
30
0
0
VERTEX
8
0
10
37.245659375
20
19.193303125
30
0
0
VERTEX
8
0
10
37.332778125000004
20
19.2293875
30
0
0
VERTEX
8
0
10
37.416796875
20
19.272196875000002
30
0
0
VERTEX
8
0
10
37.4972
20
19.321465625000002
30
0
0
VERTEX
8
0
10
37.5734875
20
19.37689375
30
0
0
VERTEX
8
0
10
37.645190625000005
20
19.438134375
30
0
0
VERTEX
8
0
10
37.711865625
20
19.504809375
30
0
0
VERTEX
8
0
10
37.773106250000005
20
19.5765125
30
0
0
VERTEX
8
0
10
37.828534375000004
20
19.652800000000003
30
0
0
VERTEX
8
0
10
37.877803125
20
19.733203125
30
0
0
VERTEX
8
0
10
37.920612500000004
20
19.817221875
30
0
0
VERTEX
8
0
10
37.956696875
20
19.904340625
30
0
0
VERTEX
8
0
10
37.9858375
20
19.994018750000002
30
0
0
VERTEX
8
0
10
38.007850000000005
20
20.0857125
30
0
0
VERTEX
8
0
10
38.022603125
20
20.178846875
30
0
0
VERTEX
8
0
10
38.03
20
20.272853125
30
0
0
VERTEX
8
0
10
38.03
20
20.367146875
30
0
0
VERTEX
8
0
10
38.022603125
20
20.461153125000003
30
0
0
VERTEX
8
0
10
38.007850000000005
20
20.5542875
30
0
0
VERTEX
8
0
10
37.9858375
20
20.645981250000002
30
0
0
VERTEX
8
0
10
37.956696875
20
20.735659375
30
0
0
VERTEX
8
0
10
37.920612500000004
20
20.822778125
30
0
0
VERTEX
8
0
10
37.877803125
20
20.906796875
30
0
0
VERTEX
8
0
10
37.828534375000004
20
20.9872
30
0
0
VERTEX
8
0
10
37.773106250000005
20
21.0634875
30
0
0
VERTEX
8
0
10
37.711865625
20
21.135190625
30
0
0
VERTEX
8
0
10
37.645190625000005
20
21.201865625
30
0
0
VERTEX
8
0
10
37.5734875
20
21.26310625
30
0
0
VERTEX
8
0
10
37.4972
20
21.318534375000002
30
0
0
VERTEX
8
0
10
37.416796875
20
21.367803125000002
30
0
0
VERTEX
8
0
10
37.332778125000004
20
21.410612500000003
30
0
0
VERTEX
8
0
10
37.245659375
20
21.446696875
30
0
0
VERTEX
8
0
10
37.15598125
20
21.4758375
30
0
0
VERTEX
8
0
10
37.0642875
20
21.49785
30
0
0
VERTEX
8
0
10
36.971153125
20
21.512603125000002
30
0
0
VERTEX
8
0
10
36.877146875
20
21.52
30
0
0
VERTEX
8
0
10
36.782853125
20
21.52
30
0
0
VERTEX
8
0
10
36.688846875
20
21.512603125000002
30
0
0
VERTEX
8
0
10
36.595712500000005
20
21.49785
30
0
0
VERTEX
8
0
10
36.50401875
20
21.4758375
30
0
0
VERTEX
8
0
10
36.414340625
20
21.446696875
30
0
0
VERTEX
8
0
10
36.327221875
20
21.410612500000003
30
0
0
VERTEX
8
0
10
36.243203125
20
21.367803125000002
30
0
0
VERTEX
8
0
10
36.162800000000004
20
21.318534375000002
30
0
0
VERTEX
8
0
10
36.086512500000005
20
21.26310625
30
0
0
VERTEX
8
0
10
36.014809375
20
21.201865625
30
0
0
VERTEX
8
0
10
35.948134375
20
21.135190625
30
0
0
VERTEX
8
0
10
35.88689375
20
21.0634875
30
0
0
VERTEX
8
0
10
35.831465625
20
20.9872
30
0
0
VERTEX
8
0
10
35.782196875000004
20
20.906796875
30
0
0
VERTEX
8
0
10
35.7393875
20
20.822778125
30
0
0
VERTEX
8
0
10
35.703303125000005
20
20.735659375
30
0
0
VERTEX
8
0
10
35.6741625
20
20.645981250000002
30
0
0
VERTEX
8
0
10
35.65215
20
20.5542875
30
0
0
VERTEX
8
0
10
35.637396875
20
20.461153125000003
30
0
0
VERTEX
8
0
10
35.636284375
20
20.447000000000003
30
0
0
VERTEX
8
0
10
29.770000000000003
20
20.447000000000003
30
0
0
VERTEX
8
0
10
29.770000000000003
20
20.53
30
0
0
VERTEX
8
0
10
29.310000000000002
20
20.53
30
0
0
VERTEX
8
0
10
29.310000000000002
20
20.11
30
0
0
VERTEX
8
0
10
29.770000000000003
20
20.11
30
0
0
VERTEX
8
0
10
29.770000000000003
20
20.193
30
0
0
VERTEX
8
0
10
35.636284375
20
20.193
30
0
0
VERTEX
8
0
10
35.637396875
20
20.178846875
30
0
0
VERTEX
8
0
10
35.65215
20
20.0857125
30
0
0
VERTEX
8
0
10
35.6741625
20
19.994018750000002
30
0
0
VERTEX
8
0
10
35.703303125000005
20
19.904340625
30
0
0
VERTEX
8
0
10
35.7393875
20
19.817221875
30
0
0
VERTEX
8
0
10
35.782196875000004
20
19.733203125
30
0
0
VERTEX
8
0
10
35.831465625
20
19.652800000000003
30
0
0
VERTEX
8
0
10
35.88689375
20
19.5765125
30
0
0
VERTEX
8
0
10
35.948134375
20
19.504809375
30
0
0
VERTEX
8
0
10
36.014809375
20
19.438134375
30
0
0
VERTEX
8
0
10
36.086512500000005
20
19.37689375
30
0
0
VERTEX
8
0
10
36.162800000000004
20
19.321465625000002
30
0
0
VERTEX
8
0
10
36.243203125
20
19.272196875000002
30
0
0
VERTEX
8
0
10
36.327221875
20
19.2293875
30
0
0
VERTEX
8
0
10
36.414340625
20
19.193303125
30
0
0
VERTEX
8
0
10
36.50401875
20
19.1641625
30
0
0
VERTEX
8
0
10
36.595712500000005
20
19.14215
30
0
0
VERTEX
8
0
10
36.688846875
20
19.127396875000002
30
0
0
VERTEX
8
0
10
36.782853125
20
19.12
30
0
0
VERTEX
8
0
10
36.877146875
20
19.12
30
0
0
SEQEND
0
POLYLINE
66
1
8
16_copper
10
0.0
20
0.0
30
0.0
70
1
0
VERTEX
8
0
10
36.971153125
20
19.127396875000002
30
0
0
VERTEX
8
0
10
37.0642875
20
19.14215
30
0
0
VERTEX
8
0
10
37.15598125
20
19.1641625
30
0
0
VERTEX
8
0
10
37.245659375
20
19.193303125
30
0
0
VERTEX
8
0
10
37.332778125000004
20
19.2293875
30
0
0
VERTEX
8
0
10
37.416796875
20
19.272196875000002
30
0
0
VERTEX
8
0
10
37.4972
20
19.321465625000002
30
0
0
VERTEX
8
0
10
37.5734875
20
19.37689375
30
0
0
VERTEX
8
0
10
37.645190625000005
20
19.438134375
30
0
0
VERTEX
8
0
10
37.711865625
20
19.504809375
30
0
0
VERTEX
8
0
10
37.773106250000005
20
19.5765125
30
0
0
VERTEX
8
0
10
37.828534375000004
20
19.652800000000003
30
0
0
VERTEX
8
0
10
37.877803125
20
19.733203125
30
0
0
VERTEX
8
0
10
37.920612500000004
20
19.817221875
30
0
0
VERTEX
8
0
10
37.956696875
20
19.904340625
30
0
0
VERTEX
8
0
10
37.9858375
20
19.994018750000002
30
0
0
VERTEX
8
0
10
38.007850000000005
20
20.0857125
30
0
0
VERTEX
8
0
10
38.022603125
20
20.178846875
30
0
0
VERTEX
8
0
10
38.03
20
20.272853125
30
0
0
VERTEX
8
0
10
38.03
20
20.367146875
30
0
0
VERTEX
8
0
10
38.022603125
20
20.461153125000003
30
0
0
VERTEX
8
0
10
38.007850000000005
20
20.5542875
30
0
0
VERTEX
8
0
10
37.9858375
20
20.645981250000002
30
0
0
VERTEX
8
0
10
37.956696875
20
20.735659375
30
0
0
VERTEX
8
0
10
37.920612500000004
20
20.822778125
30
0
0
VERTEX
8
0
10
37.877803125
20
20.906796875
30
0
0
VERTEX
8
0
10
37.828534375000004
20
20.9872
30
0
0
VERTEX
8
0
10
37.773106250000005
20
21.0634875
30
0
0
VERTEX
8
0
10
37.711865625
20
21.135190625
30
0
0
VERTEX
8
0
10
37.645190625000005
20
21.201865625
30
0
0
VERTEX
8
0
10
37.5734875
20
21.26310625
30
0
0
VERTEX
8
0
10
37.4972
20
21.318534375000002
30
0
0
VERTEX
8
0
10
37.416796875
20
21.367803125000002
30
0
0
VERTEX
8
0
10
37.332778125000004
20
21.410612500000003
30
0
0
VERTEX
8
0
10
37.245659375
20
21.446696875
30
0
0
VERTEX
8
0
10
37.15598125
20
21.4758375
30
0
0
VERTEX
8
0
10
37.0642875
20
21.49785
30
0
0
VERTEX
8
0
10
36.971153125
20
21.512603125000002
30
0
0
VERTEX
8
0
10
36.877146875
20
21.52
30
0
0
VERTEX
8
0
10
36.782853125
20
21.52
30
0
0
VERTEX
8
0
10
36.688846875
20
21.512603125000002
30
0
0
VERTEX
8
0
10
36.595712500000005
20
21.49785
30
0
0
VERTEX
8
0
10
36.50401875
20
21.4758375
30
0
0
VERTEX
8
0
10
36.414340625
20
21.446696875
30
0
0
VERTEX
8
0
10
36.327221875
20
21.410612500000003
30
0
0
VERTEX
8
0
10
36.243203125
20
21.367803125000002
30
0
0
VERTEX
8
0
10
36.162800000000004
20
21.318534375000002
30
0
0
VERTEX
8
0
10
36.086512500000005
20
21.26310625
30
0
0
VERTEX
8
0
10
36.014809375
20
21.201865625
30
0
0
VERTEX
8
0
10
35.948134375
20
21.135190625
30
0
0
VERTEX
8
0
10
35.88689375
20
21.0634875
30
0
0
VERTEX
8
0
10
35.831465625
20
20.9872
30
0
0
VERTEX
8
0
10
35.782196875000004
20
20.906796875
30
0
0
VERTEX
8
0
10
35.7393875
20
20.822778125
30
0
0
VERTEX
8
0
10
35.703303125000005
20
20.735659375
30
0
0
VERTEX
8
0
10
35.6741625
20
20.645981250000002
30
0
0
VERTEX
8
0
10
35.65215
20
20.5542875
30
0
0
VERTEX
8
0
10
35.637396875
20
20.461153125000003
30
0
0
VERTEX
8
0
10
35.63
20
20.367146875
30
0
0
VERTEX
8
0
10
35.63
20
20.272853125
30
0
0
VERTEX
8
0
10
35.637396875
20
20.178846875
30
0
0
VERTEX
8
0
10
35.65215
20
20.0857125
30
0
0
VERTEX
8
0
10
35.6741625
20
19.994018750000002
30
0
0
VERTEX
8
0
10
35.703303125000005
20
19.904340625
30
0
0
VERTEX
8
0
10
35.7393875
20
19.817221875
30
0
0
VERTEX
8
0
10
35.782196875000004
20
19.733203125
30
0
0
VERTEX
8
0
10
35.831465625
20
19.652800000000003
30
0
0
VERTEX
8
0
10
35.88689375
20
19.5765125
30
0
0
VERTEX
8
0
10
35.948134375
20
19.504809375
30
0
0
VERTEX
8
0
10
36.014809375
20
19.438134375
30
0
0
VERTEX
8
0
10
36.086512500000005
20
19.37689375
30
0
0
VERTEX
8
0
10
36.162800000000004
20
19.321465625000002
30
0
0
VERTEX
8
0
10
36.243203125
20
19.272196875000002
30
0
0
VERTEX
8
0
10
36.327221875
20
19.2293875
30
0
0
VERTEX
8
0
10
36.414340625
20
19.193303125
30
0
0
VERTEX
8
0
10
36.50401875
20
19.1641625
30
0
0
VERTEX
8
0
10
36.595712500000005
20
19.14215
30
0
0
VERTEX
8
0
10
36.688846875
20
19.127396875000002
30
0
0
VERTEX
8
0
10
36.782853125
20
19.12
30
0
0
VERTEX
8
0
10
36.877146875
20
19.12
30
0
0
SEQEND
0
POLYLINE
66
1
8
1_copper
10
0.0
20
0.0
30
0.0
70
1
0
VERTEX
8
0
10
11.281653125
20
1.026059375
30
0
0
VERTEX
8
0
10
11.323340625
20
1.054640625
30
0
0
VERTEX
8
0
10
11.350581250000001
20
1.0972187500000001
30
0
0
VERTEX
8
0
10
11.359053125
20
1.147046875
30
0
0
VERTEX
8
0
10
11.347421875
20
1.1962375
30
0
0
VERTEX
8
0
10
11.317525
20
1.2369937500000001
30
0
0
VERTEX
8
0
10
11.284875000000001
20
1.258521875
30
0
0
VERTEX
8
0
10
10.480253125
20
1.6259812500000002
30
0
0
VERTEX
8
0
10
9.597053125
20
2.39128125
30
0
0
VERTEX
8
0
10
8.96524375
20
3.374396875
30
0
0
VERTEX
8
0
10
8.636000000000001
20
4.4956875
30
0
0
VERTEX
8
0
10
8.636000000000001
20
5.6643125
30
0
0
VERTEX
8
0
10
8.96524375
20
6.785603125000001
30
0
0
VERTEX
8
0
10
9.597053125
20
7.768718750000001
30
0
0
VERTEX
8
0
10
10.480253125
20
8.53401875
30
0
0
VERTEX
8
0
10
11.543259375
20
9.019478125000001
30
0
0
VERTEX
8
0
10
12.700000000000001
20
9.185790625000001
30
0
0
VERTEX
8
0
10
13.856740625
20
9.019478125000001
30
0
0
VERTEX
8
0
10
14.919746875000001
20
8.53401875
30
0
0
VERTEX
8
0
10
15.802946875
20
7.768718750000001
30
0
0
VERTEX
8
0
10
16.43475625
20
6.785603125000001
30
0
0
VERTEX
8
0
10
16.764
20
5.6643125
30
0
0
VERTEX
8
0
10
16.764
20
4.4956875
30
0
0
VERTEX
8
0
10
16.43475625
20
3.374396875
30
0
0
VERTEX
8
0
10
15.802946875
20
2.39128125
30
0
0
VERTEX
8
0
10
14.919746875000001
20
1.6259812500000002
30
0
0
VERTEX
8
0
10
14.115125
20
1.258521875
30
0
0
VERTEX
8
0
10
14.07424375
20
1.228796875
30
0
0
VERTEX
8
0
10
14.048196875
20
1.1854781250000002
30
0
0
VERTEX
8
0
10
14.04110625
20
1.135434375
30
0
0
VERTEX
8
0
10
14.0541
20
1.0865875
30
0
0
VERTEX
8
0
10
14.085112500000001
20
1.046675
30
0
0
VERTEX
8
0
10
14.1292375
20
1.022021875
30
0
0
VERTEX
8
0
10
14.16788125
20
1.016
30
0
0
VERTEX
8
0
10
34.092118750000004
20
1.016
30
0
0
VERTEX
8
0
10
34.141653125000005
20
1.026059375
30
0
0
VERTEX
8
0
10
34.183340625
20
1.054640625
30
0
0
VERTEX
8
0
10
34.210581250000004
20
1.0972187500000001
30
0
0
VERTEX
8
0
10
34.219053125
20
1.147046875
30
0
0
VERTEX
8
0
10
34.207421875
20
1.1962375
30
0
0
VERTEX
8
0
10
34.177525
20
1.2369937500000001
30
0
0
VERTEX
8
0
10
34.144875
20
1.258521875
30
0
0
VERTEX
8
0
10
33.340253125000004
20
1.6259812500000002
30
0
0
VERTEX
8
0
10
32.457053125
20
2.39128125
30
0
0
VERTEX
8
0
10
31.825243750000002
20
3.374396875
30
0
0
VERTEX
8
0
10
31.496000000000002
20
4.4956875
30
0
0
VERTEX
8
0
10
31.496000000000002
20
5.6643125
30
0
0
VERTEX
8
0
10
31.825243750000002
20
6.785603125000001
30
0
0
VERTEX
8
0
10
32.457053125
20
7.768718750000001
30
0
0
VERTEX
8
0
10
33.340253125000004
20
8.53401875
30
0
0
VERTEX
8
0
10
34.403259375000005
20
9.019478125000001
30
0
0
VERTEX
8
0
10
35.56
20
9.185790625000001
30
0
0
VERTEX
8
0
10
36.716740625
20
9.019478125000001
30
0
0
VERTEX
8
0
10
37.779746875
20
8.53401875
30
0
0
VERTEX
8
0
10
38.662946875
20
7.768718750000001
30
0
0
VERTEX
8
0
10
39.29475625
20
6.785603125000001
30
0
0
VERTEX
8
0
10
39.624
20
5.6643125
30
0
0
VERTEX
8
0
10
39.624
20
4.4956875
30
0
0
VERTEX
8
0
10
39.29475625
20
3.374396875
30
0
0
VERTEX
8
0
10
38.662946875
20
2.39128125
30
0
0
VERTEX
8
0
10
37.779746875
20
1.6259812500000002
30
0
0
VERTEX
8
0
10
36.975125
20
1.258521875
30
0
0
VERTEX
8
0
10
36.93424375
20
1.228796875
30
0
0
VERTEX
8
0
10
36.908196875
20
1.1854781250000002
30
0
0
VERTEX
8
0
10
36.901106250000005
20
1.135434375
30
0
0
VERTEX
8
0
10
36.914100000000005
20
1.0865875
30
0
0
VERTEX
8
0
10
36.9451125
20
1.046675
30
0
0
VERTEX
8
0
10
36.9892375
20
1.022021875
30
0
0
VERTEX
8
0
10
37.02788125
20
1.016
30
0
0
VERTEX
8
0
10
41.063
20
1.016
30
0
0
VERTEX
8
0
10
41.112534375
20
1.026059375
30
0
0
VERTEX
8
0
10
41.154221875000005
20
1.054640625
30
0
0
VERTEX
8
0
10
41.1814625
20
1.0972187500000001
30
0
0
VERTEX
8
0
10
41.190000000000005
20
1.143
30
0
0
VERTEX
8
0
10
41.190000000000005
20
17.0284625
30
0
0
VERTEX
8
0
10
41.179940625
20
17.077996875
30
0
0
VERTEX
8
0
10
41.151359375000006
20
17.119684375000002
30
0
0
VERTEX
8
0
10
41.10878125
20
17.146925
30
0
0
VERTEX
8
0
10
41.058953125
20
17.155396875
30
0
0
VERTEX
8
0
10
41.0097625
20
17.143765625
30
0
0
VERTEX
8
0
10
40.96900625
20
17.11386875
30
0
0
VERTEX
8
0
10
40.94566875
20
17.0770625
30
0
0
VERTEX
8
0
10
40.828390625000004
20
16.793928125
30
0
0
VERTEX
8
0
10
40.356071875000005
20
16.321609375
30
0
0
VERTEX
8
0
10
39.738978125
20
16.066000000000003
30
0
0
VERTEX
8
0
10
39.4812
20
16.066000000000003
30
0
0
VERTEX
8
0
10
39.4812
20
16.321809375
30
0
0
VERTEX
8
0
10
39.557421875
20
16.3272625
30
0
0
VERTEX
8
0
10
39.658175
20
16.341746875000002
30
0
0
VERTEX
8
0
10
39.7576375
20
16.363384375000003
30
0
0
VERTEX
8
0
10
39.8553
20
16.3920625
30
0
0
VERTEX
8
0
10
39.950671875000005
20
16.42763125
30
0
0
VERTEX
8
0
10
40.043262500000004
20
16.469915625000002
30
0
0
VERTEX
8
0
10
40.132596875000004
20
16.518696875
30
0
0
VERTEX
8
0
10
40.218228125
20
16.573728125000002
30
0
0
VERTEX
8
0
10
40.299712500000005
20
16.634728125000002
30
0
0
VERTEX
8
0
10
40.376640625
20
16.701384375
30
0
0
VERTEX
8
0
10
40.448615625
20
16.773359375000002
30
0
0
VERTEX
8
0
10
40.515271875
20
16.8502875
30
0
0
VERTEX
8
0
10
40.576271875
20
16.931771875000003
30
0
0
VERTEX
8
0
10
40.631303125
20
17.017403125
30
0
0
VERTEX
8
0
10
40.680084375
20
17.1067375
30
0
0
VERTEX
8
0
10
40.72236875
20
17.199328125
30
0
0
VERTEX
8
0
10
40.757937500000004
20
17.294700000000002
30
0
0
VERTEX
8
0
10
40.786615625
20
17.3923625
30
0
0
VERTEX
8
0
10
40.808253125
20
17.491825000000002
30
0
0
VERTEX
8
0
10
40.8227375
20
17.592578125
30
0
0
VERTEX
8
0
10
40.830000000000005
20
17.69410625
30
0
0
VERTEX
8
0
10
40.830000000000005
20
17.79589375
30
0
0
VERTEX
8
0
10
40.8227375
20
17.897421875
30
0
0
VERTEX
8
0
10
40.808253125
20
17.998175
30
0
0
VERTEX
8
0
10
40.786615625
20
18.0976375
30
0
0
VERTEX
8
0
10
40.757937500000004
20
18.1953
30
0
0
VERTEX
8
0
10
40.72236875
20
18.290671875
30
0
0
VERTEX
8
0
10
40.680084375
20
18.3832625
30
0
0
VERTEX
8
0
10
40.631303125
20
18.472596875
30
0
0
VERTEX
8
0
10
40.576271875
20
18.558228125
30
0
0
VERTEX
8
0
10
40.515271875
20
18.6397125
30
0
0
VERTEX
8
0
10
40.448615625
20
18.716640625
30
0
0
VERTEX
8
0
10
40.376640625
20
18.788615625000002
30
0
0
VERTEX
8
0
10
40.299712500000005
20
18.855271875
30
0
0
VERTEX
8
0
10
40.218228125
20
18.916271875
30
0
0
VERTEX
8
0
10
40.132596875000004
20
18.971303125000002
30
0
0
VERTEX
8
0
10
40.043262500000004
20
19.020084375
30
0
0
VERTEX
8
0
10
39.950671875000005
20
19.06236875
30
0
0
VERTEX
8
0
10
39.8553
20
19.0979375
30
0
0
VERTEX
8
0
10
39.7576375
20
19.126615625
30
0
0
VERTEX
8
0
10
39.658175
20
19.148253125
30
0
0
VERTEX
8
0
10
39.557421875
20
19.162737500000002
30
0
0
VERTEX
8
0
10
39.4812
20
19.168190625
30
0
0
VERTEX
8
0
10
39.4812
20
19.424
30
0
0
VERTEX
8
0
10
39.738978125
20
19.424
30
0
0
VERTEX
8
0
10
40.356071875000005
20
19.168390625
30
0
0
VERTEX
8
0
10
40.828390625000004
20
18.696071875
30
0
0
VERTEX
8
0
10
40.94566875
20
18.4129375
30
0
0
VERTEX
8
0
10
40.973915625000004
20
18.371021875
30
0
0
VERTEX
8
0
10
41.016275
20
18.343443750000002
30
0
0
VERTEX
8
0
10
41.0660375
20
18.334575
30
0
0
VERTEX
8
0
10
41.115315625
20
18.3458125
30
0
0
VERTEX
8
0
10
41.156309375
20
18.375384375
30
0
0
VERTEX
8
0
10
41.182521875
20
18.4186
30
0
0
VERTEX
8
0
10
41.190000000000005
20
18.461537500000002
30
0
0
VERTEX
8
0
10
41.190000000000005
20
22.178462500000002
30
0
0
VERTEX
8
0
10
41.179940625
20
22.227996875000002
30
0
0
VERTEX
8
0
10
41.151359375000006
20
22.269684375
30
0
0
VERTEX
8
0
10
41.10878125
20
22.296925
30
0
0
VERTEX
8
0
10
41.058953125
20
22.305396875
30
0
0
VERTEX
8
0
10
41.0097625
20
22.293765625000002
30
0
0
VERTEX
8
0
10
40.96900625
20
22.26386875
30
0
0
VERTEX
8
0
10
40.94566875
20
22.227062500000002
30
0
0
VERTEX
8
0
10
40.828390625000004
20
21.943928125
30
0
0
VERTEX
8
0
10
40.356071875000005
20
21.471609375
30
0
0
VERTEX
8
0
10
39.738978125
20
21.216
30
0
0
VERTEX
8
0
10
39.4812
20
21.216
30
0
0
VERTEX
8
0
10
39.4812
20
21.471809375
30
0
0
VERTEX
8
0
10
39.557421875
20
21.477262500000002
30
0
0
VERTEX
8
0
10
39.658175
20
21.491746875
30
0
0
VERTEX
8
0
10
39.7576375
20
21.513384375
30
0
0
VERTEX
8
0
10
39.8553
20
21.5420625
30
0
0
VERTEX
8
0
10
39.950671875000005
20
21.57763125
30
0
0
VERTEX
8
0
10
40.043262500000004
20
21.619915625
30
0
0
VERTEX
8
0
10
40.132596875000004
20
21.668696875000002
30
0
0
VERTEX
8
0
10
40.218228125
20
21.723728125
30
0
0
VERTEX
8
0
10
40.299712500000005
20
21.784728125
30
0
0
VERTEX
8
0
10
40.376640625
20
21.851384375000002
30
0
0
VERTEX
8
0
10
40.448615625
20
21.923359375
30
0
0
VERTEX
8
0
10
40.515271875
20
22.000287500000002
30
0
0
VERTEX
8
0
10
40.576271875
20
22.081771875
30
0
0
VERTEX
8
0
10
40.631303125
20
22.167403125
30
0
0
VERTEX
8
0
10
40.680084375
20
22.2567375
30
0
0
VERTEX
8
0
10
40.72236875
20
22.349328125
30
0
0
VERTEX
8
0
10
40.757937500000004
20
22.4447
30
0
0
VERTEX
8
0
10
40.786615625
20
22.5423625
30
0
0
VERTEX
8
0
10
40.808253125
20
22.641825
30
0
0
VERTEX
8
0
10
40.8227375
20
22.742578125
30
0
0
VERTEX
8
0
10
40.830000000000005
20
22.84410625
30
0
0
VERTEX
8
0
10
40.830000000000005
20
22.94589375
30
0
0
VERTEX
8
0
10
40.8227375
20
23.047421875
30
0
0
VERTEX
8
0
10
40.808253125
20
23.148175000000002
30
0
0
VERTEX
8
0
10
40.786615625
20
23.2476375
30
0
0
VERTEX
8
0
10
40.757937500000004
20
23.3453
30
0
0
VERTEX
8
0
10
40.72236875
20
23.440671875
30
0
0
VERTEX
8
0
10
40.680084375
20
23.533262500000003
30
0
0
VERTEX
8
0
10
40.631303125
20
23.622596875000003
30
0
0
VERTEX
8
0
10
40.576271875
20
23.708228125
30
0
0
VERTEX
8
0
10
40.515271875
20
23.7897125
30
0
0
VERTEX
8
0
10
40.448615625
20
23.866640625000002
30
0
0
VERTEX
8
0
10
40.376640625
20
23.938615625
30
0
0
VERTEX
8
0
10
40.299712500000005
20
24.005271875000002
30
0
0
VERTEX
8
0
10
40.218228125
20
24.066271875
30
0
0
VERTEX
8
0
10
40.132596875000004
20
24.121303125
30
0
0
VERTEX
8
0
10
40.043262500000004
20
24.170084375000002
30
0
0
VERTEX
8
0
10
39.950671875000005
20
24.21236875
30
0
0
VERTEX
8
0
10
39.8553
20
24.247937500000003
30
0
0
VERTEX
8
0
10
39.7576375
20
24.276615625
30
0
0
VERTEX
8
0
10
39.658175
20
24.298253125000002
30
0
0
VERTEX
8
0
10
39.557421875
20
24.3127375
30
0
0
VERTEX
8
0
10
39.4812
20
24.318190625
30
0
0
VERTEX
8
0
10
39.4812
20
24.574
30
0
0
VERTEX
8
0
10
39.738978125
20
24.574
30
0
0
VERTEX
8
0
10
40.356071875000005
20
24.318390625000003
30
0
0
VERTEX
8
0
10
40.828390625000004
20
23.846071875
30
0
0
VERTEX
8
0
10
40.94566875
20
23.5629375
30
0
0
VERTEX
8
0
10
40.973915625000004
20
23.521021875000002
30
0
0
VERTEX
8
0
10
41.016275
20
23.49344375
30
0
0
VERTEX
8
0
10
41.0660375
20
23.484575
30
0
0
VERTEX
8
0
10
41.115315625
20
23.4958125
30
0
0
VERTEX
8
0
10
41.156309375
20
23.525384375
30
0
0
VERTEX
8
0
10
41.182521875
20
23.5686
30
0
0
VERTEX
8
0
10
41.190000000000005
20
23.6115375
30
0
0
VERTEX
8
0
10
41.190000000000005
20
38.857
30
0
0
VERTEX
8
0
10
41.179940625
20
38.906534375
30
0
0
VERTEX
8
0
10
41.151359375000006
20
38.948221875
30
0
0
VERTEX
8
0
10
41.10878125
20
38.9754625
30
0
0
VERTEX
8
0
10
41.063
20
38.984
30
0
0
VERTEX
8
0
10
38.15489375
20
38.984
30
0
0
VERTEX
8
0
10
38.105359375
20
38.973940625000004
30
0
0
VERTEX
8
0
10
38.063671875000004
20
38.945359375
30
0
0
VERTEX
8
0
10
38.03643125
20
38.902781250000004
30
0
0
VERTEX
8
0
10
38.027959375
20
38.852953125
30
0
0
VERTEX
8
0
10
38.039590625
20
38.803762500000005
30
0
0
VERTEX
8
0
10
38.071725
20
38.761018750000005
30
0
0
VERTEX
8
0
10
38.662946875
20
38.248721875
30
0
0
VERTEX
8
0
10
39.29475625
20
37.265603125
30
0
0
VERTEX
8
0
10
39.624
20
36.144312500000005
30
0
0
VERTEX
8
0
10
39.624
20
34.9756875
30
0
0
VERTEX
8
0
10
39.29475625
20
33.854396875
30
0
0
VERTEX
8
0
10
38.662946875
20
32.87128125
30
0
0
VERTEX
8
0
10
37.779746875
20
32.10598125
30
0
0
VERTEX
8
0
10
36.716740625
20
31.620521875
30
0
0
VERTEX
8
0
10
35.56
20
31.454209375
30
0
0
VERTEX
8
0
10
34.403259375000005
20
31.620521875
30
0
0
VERTEX
8
0
10
33.340253125000004
20
32.10598125
30
0
0
VERTEX
8
0
10
32.457053125
20
32.87128125
30
0
0
VERTEX
8
0
10
31.825243750000002
20
33.854396875
30
0
0
VERTEX
8
0
10
31.496000000000002
20
34.9756875
30
0
0
VERTEX
8
0
10
31.496000000000002
20
36.144312500000005
30
0
0
VERTEX
8
0
10
31.825243750000002
20
37.265603125
30
0
0
VERTEX
8
0
10
32.457053125
20
38.248721875
30
0
0
VERTEX
8
0
10
33.048275000000004
20
38.761018750000005
30
0
0
VERTEX
8
0
10
33.079121875
20
38.801059375
30
0
0
VERTEX
8
0
10
33.0919125
20
38.849959375000005
30
0
0
VERTEX
8
0
10
33.0846125
20
38.899975000000005
30
0
0
VERTEX
8
0
10
33.0583875
20
38.943184375
30
0
0
VERTEX
8
0
10
33.017384375
20
38.972740625
30
0
0
VERTEX
8
0
10
32.96510625
20
38.984
30
0
0
VERTEX
8
0
10
15.29489375
20
38.984
30
0
0
VERTEX
8
0
10
15.245359375000001
20
38.973940625000004
30
0
0
VERTEX
8
0
10
15.203671875000001
20
38.945359375
30
0
0
VERTEX
8
0
10
15.17643125
20
38.902781250000004
30
0
0
VERTEX
8
0
10
15.167959375
20
38.852953125
30
0
0
VERTEX
8
0
10
15.179590625000001
20
38.803762500000005
30
0
0
VERTEX
8
0
10
15.211725000000001
20
38.761018750000005
30
0
0
VERTEX
8
0
10
15.802946875
20
38.248721875
30
0
0
VERTEX
8
0
10
16.43475625
20
37.265603125
30
0
0
VERTEX
8
0
10
16.764
20
36.144312500000005
30
0
0
VERTEX
8
0
10
16.764
20
34.9756875
30
0
0
VERTEX
8
0
10
16.43475625
20
33.854396875
30
0
0
VERTEX
8
0
10
15.802946875
20
32.87128125
30
0
0
VERTEX
8
0
10
14.919746875000001
20
32.10598125
30
0
0
VERTEX
8
0
10
13.856740625
20
31.620521875
30
0
0
VERTEX
8
0
10
12.700000000000001
20
31.454209375
30
0
0
VERTEX
8
0
10
11.543259375
20
31.620521875
30
0
0
VERTEX
8
0
10
10.480253125
20
32.10598125
30
0
0
VERTEX
8
0
10
9.597053125
20
32.87128125
30
0
0
VERTEX
8
0
10
8.96524375
20
33.854396875
30
0
0
VERTEX
8
0
10
8.636000000000001
20
34.9756875
30
0
0
VERTEX
8
0
10
8.636000000000001
20
36.144312500000005
30
0
0
VERTEX
8
0
10
8.96524375
20
37.265603125
30
0
0
VERTEX
8
0
10
9.597053125
20
38.248721875
30
0
0
VERTEX
8
0
10
10.188275
20
38.761018750000005
30
0
0
VERTEX
8
0
10
10.219121875
20
38.801059375
30
0
0
VERTEX
8
0
10
10.2319125
20
38.849959375000005
30
0
0
VERTEX
8
0
10
10.224612500000001
20
38.899975000000005
30
0
0
VERTEX
8
0
10
10.1983875
20
38.943184375
30
0
0
VERTEX
8
0
10
10.157384375000001
20
38.972740625
30
0
0
VERTEX
8
0
10
10.10510625
20
38.984
30
0
0
VERTEX
8
0
10
1.143
20
38.984
30
0
0
VERTEX
8
0
10
1.093465625
20
38.973940625000004
30
0
0
VERTEX
8
0
10
1.051778125
20
38.945359375
30
0
0
VERTEX
8
0
10
1.0245375
20
38.902781250000004
30
0
0
VERTEX
8
0
10
1.016
20
38.857
30
0
0
VERTEX
8
0
10
1.016
20
1.143
30
0
0
VERTEX
8
0
10
1.026059375
20
1.093465625
30
0
0
VERTEX
8
0
10
1.054640625
20
1.051778125
30
0
0
VERTEX
8
0
10
1.0972187500000001
20
1.0245375
30
0
0
VERTEX
8
0
10
1.143
20
1.016
30
0
0
VERTEX
8
0
10
11.23211875
20
1.016
30
0
0
SEQEND
0
POLYLINE
66
1
8
1_copper
10
0.0
20
0.0
30
0.0
70
1
0
VERTEX
8
0
10
6.604375
20
22.3901
30
0
0
VERTEX
8
0
10
6.50853125
20
22.48594375
30
0
0
VERTEX
8
0
10
6.505040625
20
22.503134375000002
30
0
0
VERTEX
8
0
10
6.476459375
20
22.544821875
30
0
0
VERTEX
8
0
10
6.433881250000001
20
22.5720625
30
0
0
VERTEX
8
0
10
6.3881000000000006
20
22.5806
30
0
0
VERTEX
8
0
10
6.23426875
20
22.5806
30
0
0
VERTEX
8
0
10
4.8006
20
24.01426875
30
0
0
VERTEX
8
0
10
4.8006
20
27.279600000000002
30
0
0
VERTEX
8
0
10
4.790540625
20
27.329134375000002
30
0
0
VERTEX
8
0
10
4.761959375
20
27.370821875
30
0
0
VERTEX
8
0
10
4.7193812500000005
20
27.3980625
30
0
0
VERTEX
8
0
10
4.679440625
20
27.4055125
30
0
0
VERTEX
8
0
10
3.8937125000000004
20
27.616046875000002
30
0
0
VERTEX
8
0
10
3.19289375
20
28.020665625000003
30
0
0
VERTEX
8
0
10
2.620665625
20
28.59289375
30
0
0
VERTEX
8
0
10
2.216046875
20
29.2937125
30
0
0
VERTEX
8
0
10
2.0066
20
30.075375
30
0
0
VERTEX
8
0
10
2.0066
20
30.884625
30
0
0
VERTEX
8
0
10
2.216046875
20
31.666287500000003
30
0
0
VERTEX
8
0
10
2.620665625
20
32.36710625
30
0
0
VERTEX
8
0
10
3.19289375
20
32.939334375
30
0
0
VERTEX
8
0
10
3.8937125000000004
20
33.343953125
30
0
0
VERTEX
8
0
10
4.675375
20
33.5534
30
0
0
VERTEX
8
0
10
5.484625
20
33.5534
30
0
0
VERTEX
8
0
10
6.266287500000001
20
33.343953125
30
0
0
VERTEX
8
0
10
6.9671062500000005
20
32.939334375
30
0
0
VERTEX
8
0
10
7.539334375
20
32.36710625
30
0
0
VERTEX
8
0
10
7.943953125
20
31.666287500000003
30
0
0
VERTEX
8
0
10
8.1534
20
30.884625
30
0
0
VERTEX
8
0
10
8.1534
20
30.075375
30
0
0
VERTEX
8
0
10
7.943953125
20
29.2937125
30
0
0
VERTEX
8
0
10
7.539334375
20
28.59289375
30
0
0
VERTEX
8
0
10
6.9671062500000005
20
28.020665625000003
30
0
0
VERTEX
8
0
10
6.266287500000001
20
27.616046875000002
30
0
0
VERTEX
8
0
10
5.4790656250000005
20
27.405109375000002
30
0
0
VERTEX
8
0
10
5.436865625
20
27.396540625
30
0
0
VERTEX
8
0
10
5.395178125
20
27.367959375
30
0
0
VERTEX
8
0
10
5.3679375
20
27.325381250000003
30
0
0
VERTEX
8
0
10
5.3594
20
27.279600000000002
30
0
0
VERTEX
8
0
10
5.3594
20
24.298337500000002
30
0
0
VERTEX
8
0
10
5.369459375
20
24.248803125000002
30
0
0
VERTEX
8
0
10
5.396596875
20
24.208534375000003
30
0
0
VERTEX
8
0
10
6.3500000000000005
20
23.25513125
30
0
0
VERTEX
8
0
10
6.392140625000001
20
23.227218750000002
30
0
0
VERTEX
8
0
10
6.441828125000001
20
23.217950000000002
30
0
0
VERTEX
8
0
10
6.491196875
20
23.228796875
30
0
0
VERTEX
8
0
10
6.5296062500000005
20
23.25513125
30
0
0
VERTEX
8
0
10
6.604375
20
23.329900000000002
30
0
0
VERTEX
8
0
10
8.635625000000001
20
23.329900000000002
30
0
0
VERTEX
8
0
10
8.7249
20
23.240625
30
0
0
VERTEX
8
0
10
8.7249
20
22.479375
30
0
0
VERTEX
8
0
10
8.635625000000001
20
22.3901
30
0
0
SEQEND
0
POLYLINE
66
1
8
1_copper
10
0.0
20
0.0
30
0.0
70
1
0
VERTEX
8
0
10
37.726
20
22.9712
30
0
0
VERTEX
8
0
10
37.726
20
23.228978125
30
0
0
VERTEX
8
0
10
37.981609375000005
20
23.846071875
30
0
0
VERTEX
8
0
10
38.453928125000004
20
24.318390625000003
30
0
0
VERTEX
8
0
10
39.071021875
20
24.574
30
0
0
VERTEX
8
0
10
39.3288
20
24.574
30
0
0
VERTEX
8
0
10
39.3288
20
24.318190625
30
0
0
VERTEX
8
0
10
39.252578125
20
24.3127375
30
0
0
VERTEX
8
0
10
39.151825
20
24.298253125000002
30
0
0
VERTEX
8
0
10
39.0523625
20
24.276615625
30
0
0
VERTEX
8
0
10
38.9547
20
24.247937500000003
30
0
0
VERTEX
8
0
10
38.859328125000005
20
24.21236875
30
0
0
VERTEX
8
0
10
38.766737500000005
20
24.170084375000002
30
0
0
VERTEX
8
0
10
38.677403125000005
20
24.121303125
30
0
0
VERTEX
8
0
10
38.591771875
20
24.066271875
30
0
0
VERTEX
8
0
10
38.510287500000004
20
24.005271875000002
30
0
0
VERTEX
8
0
10
38.433359375
20
23.938615625
30
0
0
VERTEX
8
0
10
38.361384375
20
23.866640625000002
30
0
0
VERTEX
8
0
10
38.294728125
20
23.7897125
30
0
0
VERTEX
8
0
10
38.233728125
20
23.708228125
30
0
0
VERTEX
8
0
10
38.178696875
20
23.622596875000003
30
0
0
VERTEX
8
0
10
38.129915625
20
23.533262500000003
30
0
0
VERTEX
8
0
10
38.08763125
20
23.440671875
30
0
0
VERTEX
8
0
10
38.052062500000005
20
23.3453
30
0
0
VERTEX
8
0
10
38.023384375
20
23.2476375
30
0
0
VERTEX
8
0
10
38.001746875
20
23.148175000000002
30
0
0
VERTEX
8
0
10
37.9872625
20
23.047421875
30
0
0
VERTEX
8
0
10
37.981809375000005
20
22.9712
30
0
0
SEQEND
0
POLYLINE
66
1
8
1_copper
10
0.0
20
0.0
30
0.0
70
1
0
VERTEX
8
0
10
32.576
20
22.9712
30
0
0
VERTEX
8
0
10
32.576
20
23.228978125
30
0
0
VERTEX
8
0
10
32.831609375
20
23.846071875
30
0
0
VERTEX
8
0
10
33.303928125
20
24.318390625000003
30
0
0
VERTEX
8
0
10
33.921021875
20
24.574
30
0
0
VERTEX
8
0
10
34.1788
20
24.574
30
0
0
VERTEX
8
0
10
34.1788
20
24.318190625
30
0
0
VERTEX
8
0
10
34.102578125
20
24.3127375
30
0
0
VERTEX
8
0
10
34.001825000000004
20
24.298253125000002
30
0
0
VERTEX
8
0
10
33.9023625
20
24.276615625
30
0
0
VERTEX
8
0
10
33.804700000000004
20
24.247937500000003
30
0
0
VERTEX
8
0
10
33.709328125
20
24.21236875
30
0
0
VERTEX
8
0
10
33.6167375
20
24.170084375000002
30
0
0
VERTEX
8
0
10
33.527403125
20
24.121303125
30
0
0
VERTEX
8
0
10
33.441771875
20
24.066271875
30
0
0
VERTEX
8
0
10
33.3602875
20
24.005271875000002
30
0
0
VERTEX
8
0
10
33.283359375
20
23.938615625
30
0
0
VERTEX
8
0
10
33.211384375
20
23.866640625000002
30
0
0
VERTEX
8
0
10
33.144728125
20
23.7897125
30
0
0
VERTEX
8
0
10
33.083728125
20
23.708228125
30
0
0
VERTEX
8
0
10
33.028696875
20
23.622596875000003
30
0
0
VERTEX
8
0
10
32.979915625000004
20
23.533262500000003
30
0
0
VERTEX
8
0
10
32.93763125
20
23.440671875
30
0
0
VERTEX
8
0
10
32.9020625
20
23.3453
30
0
0
VERTEX
8
0
10
32.873384375
20
23.2476375
30
0
0
VERTEX
8
0
10
32.851746875
20
23.148175000000002
30
0
0
VERTEX
8
0
10
32.8372625
20
23.047421875
30
0
0
VERTEX
8
0
10
32.831809375
20
22.9712
30
0
0
SEQEND
0
POLYLINE
66
1
8
1_copper
10
0.0
20
0.0
30
0.0
70
1
0
VERTEX
8
0
10
35.678190625
20
22.9712
30
0
0
VERTEX
8
0
10
35.672737500000004
20
23.047421875
30
0
0
VERTEX
8
0
10
35.658253125
20
23.148175000000002
30
0
0
VERTEX
8
0
10
35.636615625000005
20
23.2476375
30
0
0
VERTEX
8
0
10
35.6079375
20
23.3453
30
0
0
VERTEX
8
0
10
35.57236875
20
23.440671875
30
0
0
VERTEX
8
0
10
35.530084375
20
23.533262500000003
30
0
0
VERTEX
8
0
10
35.481303125000004
20
23.622596875000003
30
0
0
VERTEX
8
0
10
35.426271875000005
20
23.708228125
30
0
0
VERTEX
8
0
10
35.365271875000005
20
23.7897125
30
0
0
VERTEX
8
0
10
35.298615625000004
20
23.866640625000002
30
0
0
VERTEX
8
0
10
35.226640625
20
23.938615625
30
0
0
VERTEX
8
0
10
35.1497125
20
24.005271875000002
30
0
0
VERTEX
8
0
10
35.068228125000005
20
24.066271875
30
0
0
VERTEX
8
0
10
34.982596875
20
24.121303125
30
0
0
VERTEX
8
0
10
34.8932625
20
24.170084375000002
30
0
0
VERTEX
8
0
10
34.800671875
20
24.21236875
30
0
0
VERTEX
8
0
10
34.7053
20
24.247937500000003
30
0
0
VERTEX
8
0
10
34.6076375
20
24.276615625
30
0
0
VERTEX
8
0
10
34.508175
20
24.298253125000002
30
0
0
VERTEX
8
0
10
34.407421875000004
20
24.3127375
30
0
0
VERTEX
8
0
10
34.3312
20
24.318190625
30
0
0
VERTEX
8
0
10
34.3312
20
24.574
30
0
0
VERTEX
8
0
10
34.588978125000004
20
24.574
30
0
0
VERTEX
8
0
10
35.206071875
20
24.318390625000003
30
0
0
VERTEX
8
0
10
35.678390625
20
23.846071875
30
0
0
VERTEX
8
0
10
35.934000000000005
20
23.228978125
30
0
0
VERTEX
8
0
10
35.934000000000005
20
22.9712
30
0
0
SEQEND
0
POLYLINE
66
1
8
1_copper
10
0.0
20
0.0
30
0.0
70
1
0
VERTEX
8
0
10
29.306
20
22.9362
30
0
0
VERTEX
8
0
10
29.306
20
23.315209375000002
30
0
0
VERTEX
8
0
10
29.454790625
20
23.464000000000002
30
0
0
VERTEX
8
0
10
29.8088
20
23.464000000000002
30
0
0
VERTEX
8
0
10
29.8088
20
23.21
30
0
0
VERTEX
8
0
10
29.560000000000002
20
23.21
30
0
0
VERTEX
8
0
10
29.560000000000002
20
22.9362
30
0
0
SEQEND
0
POLYLINE
66
1
8
1_copper
10
0.0
20
0.0
30
0.0
70
1
0
VERTEX
8
0
10
30.21
20
22.9362
30
0
0
VERTEX
8
0
10
30.21
20
23.21
30
0
0
VERTEX
8
0
10
29.9612
20
23.21
30
0
0
VERTEX
8
0
10
29.9612
20
23.464000000000002
30
0
0
VERTEX
8
0
10
30.315209375000002
20
23.464000000000002
30
0
0
VERTEX
8
0
10
30.464000000000002
20
23.315209375000002
30
0
0
VERTEX
8
0
10
30.464000000000002
20
22.9362
30
0
0
SEQEND
0
POLYLINE
66
1
8
1_copper
10
0.0
20
0.0
30
0.0
70
1
0
VERTEX
8
0
10
21.6535
20
22.9362
30
0
0
VERTEX
8
0
10
21.6535
20
23.282709375
30
0
0
VERTEX
8
0
10
21.802290625
20
23.4315
30
0
0
VERTEX
8
0
10
22.7838
20
23.4315
30
0
0
VERTEX
8
0
10
22.7838
20
23.177500000000002
30
0
0
VERTEX
8
0
10
21.907500000000002
20
23.177500000000002
30
0
0
VERTEX
8
0
10
21.907500000000002
20
22.9362
30
0
0
SEQEND
0
POLYLINE
66
1
8
1_copper
10
0.0
20
0.0
30
0.0
70
1
0
VERTEX
8
0
10
23.8125
20
22.9362
30
0
0
VERTEX
8
0
10
23.8125
20
23.177500000000002
30
0
0
VERTEX
8
0
10
22.9362
20
23.177500000000002
30
0
0
VERTEX
8
0
10
22.9362
20
23.4315
30
0
0
VERTEX
8
0
10
23.917709375
20
23.4315
30
0
0
VERTEX
8
0
10
24.0665
20
23.282709375
30
0
0
VERTEX
8
0
10
24.0665
20
22.9362
30
0
0
SEQEND
0
POLYLINE
66
1
8
1_copper
10
0.0
20
0.0
30
0.0
70
1
0
VERTEX
8
0
10
36.560984375000004
20
18.9676
30
0
0
VERTEX
8
0
10
36.06393125
20
19.1734875
30
0
0
VERTEX
8
0
10
35.6834875
20
19.55393125
30
0
0
VERTEX
8
0
10
35.514375
20
19.9622
30
0
0
VERTEX
8
0
10
35.486128125
20
20.004115625
30
0
0
VERTEX
8
0
10
35.443768750000004
20
20.031693750000002
30
0
0
VERTEX
8
0
10
35.39704375
20
20.0406
30
0
0
VERTEX
8
0
10
29.96873125
20
20.0406
30
0
0
VERTEX
8
0
10
29.919196875
20
20.030540625
30
0
0
VERTEX
8
0
10
29.878928125
20
20.003403125000002
30
0
0
VERTEX
8
0
10
29.833125000000003
20
19.9576
30
0
0
VERTEX
8
0
10
28.586875000000003
20
19.9576
30
0
0
VERTEX
8
0
10
28.541071875
20
20.003403125000002
30
0
0
VERTEX
8
0
10
28.498931250000002
20
20.031315625
30
0
0
VERTEX
8
0
10
28.45126875
20
20.0406
30
0
0
VERTEX
8
0
10
24.091900000000003
20
20.0406
30
0
0
VERTEX
8
0
10
24.042365625000002
20
20.030540625
30
0
0
VERTEX
8
0
10
24.000678125
20
20.001959375000002
30
0
0
VERTEX
8
0
10
23.973437500000003
20
19.95938125
30
0
0
VERTEX
8
0
10
23.970809375
20
19.945284375
30
0
0
VERTEX
8
0
10
23.875625
20
19.8501
30
0
0
VERTEX
8
0
10
21.844375
20
19.8501
30
0
0
VERTEX
8
0
10
21.755100000000002
20
19.939375000000002
30
0
0
VERTEX
8
0
10
21.755100000000002
20
20.700625000000002
30
0
0
VERTEX
8
0
10
21.844375
20
20.7899
30
0
0
VERTEX
8
0
10
23.875625
20
20.7899
30
0
0
VERTEX
8
0
10
23.97146875
20
20.694056250000003
30
0
0
VERTEX
8
0
10
23.974959375
20
20.676865625
30
0
0
VERTEX
8
0
10
24.003540625
20
20.635178125
30
0
0
VERTEX
8
0
10
24.04611875
20
20.607937500000002
30
0
0
VERTEX
8
0
10
24.091900000000003
20
20.5994
30
0
0
VERTEX
8
0
10
24.9936
20
20.5994
30
0
0
VERTEX
8
0
10
25.043134375
20
20.609459375
30
0
0
VERTEX
8
0
10
25.084821875000003
20
20.638040625000002
30
0
0
VERTEX
8
0
10
25.1120625
20
20.68061875
30
0
0
VERTEX
8
0
10
25.1206
20
20.7264
30
0
0
VERTEX
8
0
10
25.1206
20
21.70573125
30
0
0
VERTEX
8
0
10
26.554268750000002
20
23.139400000000002
30
0
0
VERTEX
8
0
10
27.930600000000002
20
23.139400000000002
30
0
0
VERTEX
8
0
10
27.980134375000002
20
23.149459375000003
30
0
0
VERTEX
8
0
10
28.021821875
20
23.178040625
30
0
0
VERTEX
8
0
10
28.0490625
20
23.22061875
30
0
0
VERTEX
8
0
10
28.0576
20
23.2664
30
0
0
VERTEX
8
0
10
28.0576
20
23.273125
30
0
0
VERTEX
8
0
10
28.146875
20
23.3624
30
0
0
VERTEX
8
0
10
28.923125000000002
20
23.3624
30
0
0
VERTEX
8
0
10
29.012400000000003
20
23.273125
30
0
0
VERTEX
8
0
10
29.012400000000003
20
22.446875000000002
30
0
0
VERTEX
8
0
10
28.923125000000002
20
22.3576
30
0
0
VERTEX
8
0
10
28.146875
20
22.3576
30
0
0
VERTEX
8
0
10
28.0576
20
22.446875000000002
30
0
0
VERTEX
8
0
10
28.0576
20
22.4536
30
0
0
VERTEX
8
0
10
28.047540625
20
22.503134375000002
30
0
0
VERTEX
8
0
10
28.018959375
20
22.544821875
30
0
0
VERTEX
8
0
10
27.976381250000003
20
22.5720625
30
0
0
VERTEX
8
0
10
27.930600000000002
20
22.5806
30
0
0
VERTEX
8
0
10
26.8383375
20
22.5806
30
0
0
VERTEX
8
0
10
26.788803125
20
22.570540625
30
0
0
VERTEX
8
0
10
26.748534375000002
20
22.543403125
30
0
0
VERTEX
8
0
10
25.716596875
20
21.511465625
30
0
0
VERTEX
8
0
10
25.688684375
20
21.469325
30
0
0
VERTEX
8
0
10
25.6794
20
21.4216625
30
0
0
VERTEX
8
0
10
25.6794
20
20.7264
30
0
0
VERTEX
8
0
10
25.689459375000002
20
20.676865625
30
0
0
VERTEX
8
0
10
25.718040625
20
20.635178125
30
0
0
VERTEX
8
0
10
25.760618750000003
20
20.607937500000002
30
0
0
VERTEX
8
0
10
25.8064
20
20.5994
30
0
0
VERTEX
8
0
10
28.45126875
20
20.5994
30
0
0
VERTEX
8
0
10
28.500803125
20
20.609459375
30
0
0
VERTEX
8
0
10
28.541071875
20
20.636596875000002
30
0
0
VERTEX
8
0
10
28.586875000000003
20
20.6824
30
0
0
VERTEX
8
0
10
29.833125000000003
20
20.6824
30
0
0
VERTEX
8
0
10
29.878928125
20
20.636596875000002
30
0
0
VERTEX
8
0
10
29.92106875
20
20.608684375
30
0
0
VERTEX
8
0
10
29.96873125
20
20.5994
30
0
0
VERTEX
8
0
10
35.39704375
20
20.5994
30
0
0
VERTEX
8
0
10
35.446578125
20
20.609459375
30
0
0
VERTEX
8
0
10
35.488265625000004
20
20.638040625000002
30
0
0
VERTEX
8
0
10
35.514375
20
20.6778
30
0
0
VERTEX
8
0
10
35.6834875
20
21.086068750000003
30
0
0
VERTEX
8
0
10
36.06393125
20
21.4665125
30
0
0
VERTEX
8
0
10
36.560984375000004
20
21.6724
30
0
0
VERTEX
8
0
10
37.099015625
20
21.6724
30
0
0
VERTEX
8
0
10
37.59606875
20
21.4665125
30
0
0
VERTEX
8
0
10
37.9765125
20
21.086068750000003
30
0
0
VERTEX
8
0
10
38.1824
20
20.589015625000002
30
0
0
VERTEX
8
0
10
38.1824
20
20.050984375000002
30
0
0
VERTEX
8
0
10
37.9765125
20
19.55393125
30
0
0
VERTEX
8
0
10
37.59606875
20
19.1734875
30
0
0
VERTEX
8
0
10
37.099015625
20
18.9676
30
0
0
SEQEND
0
POLYLINE
66
1
8
1_copper
10
0.0
20
0.0
30
0.0
70
1
0
VERTEX
8
0
10
39.071021875
20
21.216
30
0
0
VERTEX
8
0
10
38.453928125000004
20
21.471609375
30
0
0
VERTEX
8
0
10
37.981609375000005
20
21.943928125
30
0
0
VERTEX
8
0
10
37.726
20
22.561021875
30
0
0
VERTEX
8
0
10
37.726
20
22.8188
30
0
0
VERTEX
8
0
10
37.981809375000005
20
22.8188
30
0
0
VERTEX
8
0
10
37.9872625
20
22.742578125
30
0
0
VERTEX
8
0
10
38.001746875
20
22.641825
30
0
0
VERTEX
8
0
10
38.023384375
20
22.5423625
30
0
0
VERTEX
8
0
10
38.052062500000005
20
22.4447
30
0
0
VERTEX
8
0
10
38.08763125
20
22.349328125
30
0
0
VERTEX
8
0
10
38.129915625
20
22.2567375
30
0
0
VERTEX
8
0
10
38.178696875
20
22.167403125
30
0
0
VERTEX
8
0
10
38.233728125
20
22.081771875
30
0
0
VERTEX
8
0
10
38.294728125
20
22.000287500000002
30
0
0
VERTEX
8
0
10
38.361384375
20
21.923359375
30
0
0
VERTEX
8
0
10
38.433359375
20
21.851384375000002
30
0
0
VERTEX
8
0
10
38.510287500000004
20
21.784728125
30
0
0
VERTEX
8
0
10
38.591771875
20
21.723728125
30
0
0
VERTEX
8
0
10
38.677403125000005
20
21.668696875000002
30
0
0
VERTEX
8
0
10
38.766737500000005
20
21.619915625
30
0
0
VERTEX
8
0
10
38.859328125000005
20
21.57763125
30
0
0
VERTEX
8
0
10
38.9547
20
21.5420625
30
0
0
VERTEX
8
0
10
39.0523625
20
21.513384375
30
0
0
VERTEX
8
0
10
39.151825
20
21.491746875
30
0
0
VERTEX
8
0
10
39.252578125
20
21.477262500000002
30
0
0
VERTEX
8
0
10
39.3288
20
21.471809375
30
0
0
VERTEX
8
0
10
39.3288
20
21.216
30
0
0
SEQEND
0
POLYLINE
66
1
8
1_copper
10
0.0
20
0.0
30
0.0
70
1
0
VERTEX
8
0
10
33.921021875
20
21.216
30
0
0
VERTEX
8
0
10
33.303928125
20
21.471609375
30
0
0
VERTEX
8
0
10
32.831609375
20
21.943928125
30
0
0
VERTEX
8
0
10
32.576
20
22.561021875
30
0
0
VERTEX
8
0
10
32.576
20
22.8188
30
0
0
VERTEX
8
0
10
32.831809375
20
22.8188
30
0
0
VERTEX
8
0
10
32.8372625
20
22.742578125
30
0
0
VERTEX
8
0
10
32.851746875
20
22.641825
30
0
0
VERTEX
8
0
10
32.873384375
20
22.5423625
30
0
0
VERTEX
8
0
10
32.9020625
20
22.4447
30
0
0
VERTEX
8
0
10
32.93763125
20
22.349328125
30
0
0
VERTEX
8
0
10
32.979915625000004
20
22.2567375
30
0
0
VERTEX
8
0
10
33.028696875
20
22.167403125
30
0
0
VERTEX
8
0
10
33.083728125
20
22.081771875
30
0
0
VERTEX
8
0
10
33.144728125
20
22.000287500000002
30
0
0
VERTEX
8
0
10
33.211384375
20
21.923359375
30
0
0
VERTEX
8
0
10
33.283359375
20
21.851384375000002
30
0
0
VERTEX
8
0
10
33.3602875
20
21.784728125
30
0
0
VERTEX
8
0
10
33.441771875
20
21.723728125
30
0
0
VERTEX
8
0
10
33.527403125
20
21.668696875000002
30
0
0
VERTEX
8
0
10
33.6167375
20
21.619915625
30
0
0
VERTEX
8
0
10
33.709328125
20
21.57763125
30
0
0
VERTEX
8
0
10
33.804700000000004
20
21.5420625
30
0
0
VERTEX
8
0
10
33.9023625
20
21.513384375
30
0
0
VERTEX
8
0
10
34.001825000000004
20
21.491746875
30
0
0
VERTEX
8
0
10
34.102578125
20
21.477262500000002
30
0
0
VERTEX
8
0
10
34.1788
20
21.471809375
30
0
0
VERTEX
8
0
10
34.1788
20
21.216
30
0
0
SEQEND
0
POLYLINE
66
1
8
1_copper
10
0.0
20
0.0
30
0.0
70
1
0
VERTEX
8
0
10
34.3312
20
21.216
30
0
0
VERTEX
8
0
10
34.3312
20
21.471809375
30
0
0
VERTEX
8
0
10
34.407421875000004
20
21.477262500000002
30
0
0
VERTEX
8
0
10
34.508175
20
21.491746875
30
0
0
VERTEX
8
0
10
34.6076375
20
21.513384375
30
0
0
VERTEX
8
0
10
34.7053
20
21.5420625
30
0
0
VERTEX
8
0
10
34.800671875
20
21.57763125
30
0
0
VERTEX
8
0
10
34.8932625
20
21.619915625
30
0
0
VERTEX
8
0
10
34.982596875
20
21.668696875000002
30
0
0
VERTEX
8
0
10
35.068228125000005
20
21.723728125
30
0
0
VERTEX
8
0
10
35.1497125
20
21.784728125
30
0
0
VERTEX
8
0
10
35.226640625
20
21.851384375000002
30
0
0
VERTEX
8
0
10
35.298615625000004
20
21.923359375
30
0
0
VERTEX
8
0
10
35.365271875000005
20
22.000287500000002
30
0
0
VERTEX
8
0
10
35.426271875000005
20
22.081771875
30
0
0
VERTEX
8
0
10
35.481303125000004
20
22.167403125
30
0
0
VERTEX
8
0
10
35.530084375
20
22.2567375
30
0
0
VERTEX
8
0
10
35.57236875
20
22.349328125
30
0
0
VERTEX
8
0
10
35.6079375
20
22.4447
30
0
0
VERTEX
8
0
10
35.636615625000005
20
22.5423625
30
0
0
VERTEX
8
0
10
35.658253125
20
22.641825
30
0
0
VERTEX
8
0
10
35.672737500000004
20
22.742578125
30
0
0
VERTEX
8
0
10
35.678190625
20
22.8188
30
0
0
VERTEX
8
0
10
35.934000000000005
20
22.8188
30
0
0
VERTEX
8
0
10
35.934000000000005
20
22.561021875
30
0
0
VERTEX
8
0
10
35.678390625
20
21.943928125
30
0
0
VERTEX
8
0
10
35.206071875
20
21.471609375
30
0
0
VERTEX
8
0
10
34.588978125000004
20
21.216
30
0
0
SEQEND
0
POLYLINE
66
1
8
1_copper
10
0.0
20
0.0
30
0.0
70
1
0
VERTEX
8
0
10
29.454790625
20
22.256
30
0
0
VERTEX
8
0
10
29.306
20
22.404790625
30
0
0
VERTEX
8
0
10
29.306
20
22.7838
30
0
0
VERTEX
8
0
10
29.560000000000002
20
22.7838
30
0
0
VERTEX
8
0
10
29.560000000000002
20
22.51
30
0
0
VERTEX
8
0
10
29.8088
20
22.51
30
0
0
VERTEX
8
0
10
29.8088
20
22.256
30
0
0
SEQEND
0
POLYLINE
66
1
8
1_copper
10
0.0
20
0.0
30
0.0
70
1
0
VERTEX
8
0
10
21.802290625
20
22.288500000000003
30
0
0
VERTEX
8
0
10
21.6535
20
22.437290625000003
30
0
0
VERTEX
8
0
10
21.6535
20
22.7838
30
0
0
VERTEX
8
0
10
21.907500000000002
20
22.7838
30
0
0
VERTEX
8
0
10
21.907500000000002
20
22.5425
30
0
0
VERTEX
8
0
10
22.7838
20
22.5425
30
0
0
VERTEX
8
0
10
22.7838
20
22.288500000000003
30
0
0
SEQEND
0
POLYLINE
66
1
8
1_copper
10
0.0
20
0.0
30
0.0
70
1
0
VERTEX
8
0
10
29.9612
20
22.256
30
0
0
VERTEX
8
0
10
29.9612
20
22.51
30
0
0
VERTEX
8
0
10
30.21
20
22.51
30
0
0
VERTEX
8
0
10
30.21
20
22.7838
30
0
0
VERTEX
8
0
10
30.464000000000002
20
22.7838
30
0
0
VERTEX
8
0
10
30.464000000000002
20
22.404790625
30
0
0
VERTEX
8
0
10
30.315209375000002
20
22.256
30
0
0
SEQEND
0
POLYLINE
66
1
8
1_copper
10
0.0
20
0.0
30
0.0
70
1
0
VERTEX
8
0
10
22.9362
20
22.288500000000003
30
0
0
VERTEX
8
0
10
22.9362
20
22.5425
30
0
0
VERTEX
8
0
10
23.8125
20
22.5425
30
0
0
VERTEX
8
0
10
23.8125
20
22.7838
30
0
0
VERTEX
8
0
10
24.0665
20
22.7838
30
0
0
VERTEX
8
0
10
24.0665
20
22.437290625000003
30
0
0
VERTEX
8
0
10
23.917709375
20
22.288500000000003
30
0
0
SEQEND
0
POLYLINE
66
1
8
1_copper
10
0.0
20
0.0
30
0.0
70
1
0
VERTEX
8
0
10
15.532809375000001
20
19.2786
30
0
0
VERTEX
8
0
10
15.376578125
20
19.434831250000002
30
0
0
VERTEX
8
0
10
15.376578125
20
19.65576875
30
0
0
VERTEX
8
0
10
15.532809375000001
20
19.812
30
0
0
VERTEX
8
0
10
15.679965625000001
20
19.812
30
0
0
VERTEX
8
0
10
15.729500000000002
20
19.822059375000002
30
0
0
VERTEX
8
0
10
15.7711875
20
19.850640625
30
0
0
VERTEX
8
0
10
15.798428125000001
20
19.893218750000003
30
0
0
VERTEX
8
0
10
15.806965625
20
19.939
30
0
0
VERTEX
8
0
10
15.806965625
20
20.3501875
30
0
0
VERTEX
8
0
10
15.796906250000001
20
20.399721875
30
0
0
VERTEX
8
0
10
15.768325
20
20.441409375
30
0
0
VERTEX
8
0
10
15.725746875
20
20.46865
30
0
0
VERTEX
8
0
10
15.693990625000001
20
20.476409375
30
0
0
VERTEX
8
0
10
15.504034375000002
20
20.497515625000002
30
0
0
VERTEX
8
0
10
15.366009375
20
20.67004375
30
0
0
VERTEX
8
0
10
15.390406250000002
20
20.88963125
30
0
0
VERTEX
8
0
10
15.8900375
20
21.289340625
30
0
0
VERTEX
8
0
10
15.900503125
20
21.298706250000002
30
0
0
VERTEX
8
0
10
15.970237500000001
20
21.368440625
30
0
0
VERTEX
8
0
10
15.985096875
20
21.371459375
30
0
0
VERTEX
8
0
10
15.987109375000001
20
21.372659375
30
0
0
VERTEX
8
0
10
16.081443750000002
20
21.362178125
30
0
0
VERTEX
8
0
10
16.095468750000002
20
21.3614
30
0
0
VERTEX
8
0
10
16.19409375
20
21.3614
30
0
0
VERTEX
8
0
10
16.2067375
20
21.353025000000002
30
0
0
VERTEX
8
0
10
16.20900625
20
21.35245
30
0
0
VERTEX
8
0
10
16.268303125
20
21.27833125
30
0
0
VERTEX
8
0
10
16.27766875
20
21.267865625000002
30
0
0
VERTEX
8
0
10
16.347406250000002
20
21.198128125
30
0
0
VERTEX
8
0
10
16.350425
20
21.18326875
30
0
0
VERTEX
8
0
10
16.351625000000002
20
21.18125625
30
0
0
VERTEX
8
0
10
16.34114375
20
21.086921875
30
0
0
VERTEX
8
0
10
16.340365625
20
21.072896875
30
0
0
VERTEX
8
0
10
16.340365625
20
19.939
30
0
0
VERTEX
8
0
10
16.350425
20
19.889465625
30
0
0
VERTEX
8
0
10
16.37900625
20
19.847778125
30
0
0
VERTEX
8
0
10
16.421584375000002
20
19.8205375
30
0
0
VERTEX
8
0
10
16.467365625
20
19.812
30
0
0
VERTEX
8
0
10
16.614521875
20
19.812
30
0
0
VERTEX
8
0
10
16.770753125000002
20
19.65576875
30
0
0
VERTEX
8
0
10
16.770753125000002
20
19.434831250000002
30
0
0
VERTEX
8
0
10
16.614521875
20
19.2786
30
0
0
SEQEND
0
POLYLINE
66
1
8
1_copper
10
0.0
20
0.0
30
0.0
70
1
0
VERTEX
8
0
10
17.44925625
20
19.2786
30
0
0
VERTEX
8
0
10
17.144056250000002
20
19.496596875
30
0
0
VERTEX
8
0
10
17.0911
20
19.65104375
30
0
0
VERTEX
8
0
10
17.085121875000002
20
19.66550625
30
0
0
VERTEX
8
0
10
17.058921875
20
19.719246875
30
0
0
VERTEX
8
0
10
17.0397375
20
19.743221875
30
0
0
VERTEX
8
0
10
17.02874375
20
19.78115
30
0
0
VERTEX
8
0
10
16.939703125
20
19.963800000000003
30
0
0
VERTEX
8
0
10
16.939703125
20
20.676196875000002
30
0
0
VERTEX
8
0
10
17.085125
20
20.974496875
30
0
0
VERTEX
8
0
10
17.091103125
20
20.988959375
30
0
0
VERTEX
8
0
10
17.144053125
20
21.14339375
30
0
0
VERTEX
8
0
10
17.449259375
20
21.3614
30
0
0
VERTEX
8
0
10
17.824321875000003
20
21.3614
30
0
0
VERTEX
8
0
10
18.12953125
20
21.143390625000002
30
0
0
VERTEX
8
0
10
18.182471875
20
20.988975
30
0
0
VERTEX
8
0
10
18.18845
20
20.974509375
30
0
0
VERTEX
8
0
10
18.214659375
20
20.92075
30
0
0
VERTEX
8
0
10
18.2338375
20
20.89678125
30
0
0
VERTEX
8
0
10
18.244834375
20
20.858843750000002
30
0
0
VERTEX
8
0
10
18.271425
20
20.804303125
30
0
0
VERTEX
8
0
10
18.302175000000002
20
20.764187500000002
30
0
0
VERTEX
8
0
10
18.346134375000002
20
20.739240625
30
0
0
VERTEX
8
0
10
18.39634375
20
20.733415625
30
0
0
VERTEX
8
0
10
18.444846875
20
20.747634375
30
0
0
VERTEX
8
0
10
18.4839625
20
20.779646875
30
0
0
VERTEX
8
0
10
18.51180625
20
20.8459375
30
0
0
VERTEX
8
0
10
18.516659375
20
20.889634375
30
0
0
VERTEX
8
0
10
19.0162875
20
21.289340625
30
0
0
VERTEX
8
0
10
19.026753125000003
20
21.298706250000002
30
0
0
VERTEX
8
0
10
19.096487500000002
20
21.368440625
30
0
0
VERTEX
8
0
10
19.111346875000002
20
21.371459375
30
0
0
VERTEX
8
0
10
19.113359375
20
21.372659375
30
0
0
VERTEX
8
0
10
19.20769375
20
21.362178125
30
0
0
VERTEX
8
0
10
19.22171875
20
21.3614
30
0
0
VERTEX
8
0
10
19.32034375
20
21.3614
30
0
0
VERTEX
8
0
10
19.3329875
20
21.353025000000002
30
0
0
VERTEX
8
0
10
19.33525625
20
21.35245
30
0
0
VERTEX
8
0
10
19.394553125
20
21.27833125
30
0
0
VERTEX
8
0
10
19.403918750000003
20
21.267865625000002
30
0
0
VERTEX
8
0
10
19.47365625
20
21.198128125
30
0
0
VERTEX
8
0
10
19.476675
20
21.18326875
30
0
0
VERTEX
8
0
10
19.477875
20
21.18125625
30
0
0
VERTEX
8
0
10
19.46739375
20
21.086921875
30
0
0
VERTEX
8
0
10
19.466615625
20
21.072896875
30
0
0
VERTEX
8
0
10
19.466615625
20
19.939
30
0
0
VERTEX
8
0
10
19.476675
20
19.889465625
30
0
0
VERTEX
8
0
10
19.505256250000002
20
19.847778125
30
0
0
VERTEX
8
0
10
19.547834375
20
19.8205375
30
0
0
VERTEX
8
0
10
19.593615625
20
19.812
30
0
0
VERTEX
8
0
10
19.740771875
20
19.812
30
0
0
VERTEX
8
0
10
19.897003125
20
19.65576875
30
0
0
VERTEX
8
0
10
19.897003125
20
19.434831250000002
30
0
0
VERTEX
8
0
10
19.740771875
20
19.2786
30
0
0
VERTEX
8
0
10
18.659059375000002
20
19.2786
30
0
0
VERTEX
8
0
10
18.502828125
20
19.434831250000002
30
0
0
VERTEX
8
0
10
18.502828125
20
19.65576875
30
0
0
VERTEX
8
0
10
18.659059375000002
20
19.812
30
0
0
VERTEX
8
0
10
18.806215625
20
19.812
30
0
0
VERTEX
8
0
10
18.85575
20
19.822059375000002
30
0
0
VERTEX
8
0
10
18.897437500000002
20
19.850640625
30
0
0
VERTEX
8
0
10
18.924678125
20
19.893218750000003
30
0
0
VERTEX
8
0
10
18.933215625000003
20
19.939
30
0
0
VERTEX
8
0
10
18.933215625000003
20
20.3501875
30
0
0
VERTEX
8
0
10
18.92315625
20
20.399721875
30
0
0
VERTEX
8
0
10
18.894575
20
20.441409375
30
0
0
VERTEX
8
0
10
18.851996875
20
20.46865
30
0
0
VERTEX
8
0
10
18.820240625
20
20.476409375
30
0
0
VERTEX
8
0
10
18.630284375000002
20
20.497515625000002
30
0
0
VERTEX
8
0
10
18.560046875
20
20.585309375
30
0
0
VERTEX
8
0
10
18.521250000000002
20
20.61770625
30
0
0
VERTEX
8
0
10
18.472887500000002
20
20.632403125
30
0
0
VERTEX
8
0
10
18.422625
20
20.627075
30
0
0
VERTEX
8
0
10
18.37841875
20
20.6025625
30
0
0
VERTEX
8
0
10
18.347278125000003
20
20.56275
30
0
0
VERTEX
8
0
10
18.333878125000002
20
20.505971875
30
0
0
VERTEX
8
0
10
18.333878125000002
20
19.963803125000002
30
0
0
VERTEX
8
0
10
18.18843125
20
19.665453125000003
30
0
0
VERTEX
8
0
10
18.182453125000002
20
19.6509875
30
0
0
VERTEX
8
0
10
18.129525
20
19.49660625
30
0
0
VERTEX
8
0
10
17.824321875000003
20
19.2786
30
0
0
SEQEND
0
POLYLINE
66
1
8
1_copper
10
0.0
20
0.0
30
0.0
70
1
0
VERTEX
8
0
10
11.16961875
20
19.2786
30
0
0
VERTEX
8
0
10
11.0133875
20
19.434831250000002
30
0
0
VERTEX
8
0
10
11.0133875
20
20.701
30
0
0
VERTEX
8
0
10
11.003328125000001
20
20.750534375
30
0
0
VERTEX
8
0
10
10.974746875000001
20
20.792221875000003
30
0
0
VERTEX
8
0
10
10.93216875
20
20.8194625
30
0
0
VERTEX
8
0
10
10.8863875
20
20.828
30
0
0
VERTEX
8
0
10
10.739231250000001
20
20.828
30
0
0
VERTEX
8
0
10
10.583
20
20.98423125
30
0
0
VERTEX
8
0
10
10.583
20
21.205168750000002
30
0
0
VERTEX
8
0
10
10.739231250000001
20
21.3614
30
0
0
VERTEX
8
0
10
11.820943750000001
20
21.3614
30
0
0
VERTEX
8
0
10
11.95955625
20
21.222787500000003
30
0
0
VERTEX
8
0
10
12.001696875
20
21.194875
30
0
0
VERTEX
8
0
10
12.051384375000001
20
21.18560625
30
0
0
VERTEX
8
0
10
12.100753125
20
21.196453125
30
0
0
VERTEX
8
0
10
12.139162500000001
20
21.222787500000003
30
0
0
VERTEX
8
0
10
12.277775
20
21.3614
30
0
0
VERTEX
8
0
10
13.00541875
20
21.3614
30
0
0
VERTEX
8
0
10
13.3289375
20
21.174615625
30
0
0
VERTEX
8
0
10
13.515721875
20
20.851096875
30
0
0
VERTEX
8
0
10
13.515721875
20
20.457471875
30
0
0
VERTEX
8
0
10
13.525781250000001
20
20.407937500000003
30
0
0
VERTEX
8
0
10
13.5543625
20
20.36625
30
0
0
VERTEX
8
0
10
13.596940625
20
20.339009375
30
0
0
VERTEX
8
0
10
13.646768750000001
20
20.330537500000002
30
0
0
VERTEX
8
0
10
13.695959375000001
20
20.342168750000003
30
0
0
VERTEX
8
0
10
13.732525
20
20.36766875
30
0
0
VERTEX
8
0
10
13.7794
20
20.41454375
30
0
0
VERTEX
8
0
10
15.033268750000001
20
20.41454375
30
0
0
VERTEX
8
0
10
15.1895
20
20.258312500000002
30
0
0
VERTEX
8
0
10
15.1895
20
20.037375
30
0
0
VERTEX
8
0
10
15.033268750000001
20
19.88114375
30
0
0
VERTEX
8
0
10
13.7794
20
19.88114375
30
0
0
VERTEX
8
0
10
13.623168750000001
20
20.037375
30
0
0
VERTEX
8
0
10
13.623168750000001
20
20.189659375
30
0
0
VERTEX
8
0
10
13.613109375
20
20.239193750000002
30
0
0
VERTEX
8
0
10
13.584528125
20
20.28088125
30
0
0
VERTEX
8
0
10
13.54195
20
20.308121875
30
0
0
VERTEX
8
0
10
13.492121875
20
20.316593750000003
30
0
0
VERTEX
8
0
10
13.44293125
20
20.304962500000002
30
0
0
VERTEX
8
0
10
13.402175000000002
20
20.275065625
30
0
0
VERTEX
8
0
10
13.386184375000001
20
20.253159375000003
30
0
0
VERTEX
8
0
10
13.3289375
20
20.154003125000003
30
0
0
VERTEX
8
0
10
13.00541875
20
19.96721875
30
0
0
VERTEX
8
0
10
12.78194375
20
19.96721875
30
0
0
VERTEX
8
0
10
12.732409375000001
20
19.957159375
30
0
0
VERTEX
8
0
10
12.690721875000001
20
19.928578125
30
0
0
VERTEX
8
0
10
12.66348125
20
19.886
30
0
0
VERTEX
8
0
10
12.654943750000001
20
19.840218750000002
30
0
0
VERTEX
8
0
10
12.654943750000001
20
19.434831250000002
30
0
0
VERTEX
8
0
10
12.4987125
20
19.2786
30
0
0
VERTEX
8
0
10
12.277775
20
19.2786
30
0
0
VERTEX
8
0
10
12.12154375
20
19.434831250000002
30
0
0
VERTEX
8
0
10
12.12154375
20
20.82199375
30
0
0
VERTEX
8
0
10
12.111484375
20
20.871528125
30
0
0
VERTEX
8
0
10
12.082903125000001
20
20.913215625
30
0
0
VERTEX
8
0
10
12.040325000000001
20
20.94045625
30
0
0
VERTEX
8
0
10
11.990496875
20
20.948928125000002
30
0
0
VERTEX
8
0
10
11.94130625
20
20.937296875
30
0
0
VERTEX
8
0
10
11.904740625
20
20.911796875
30
0
0
VERTEX
8
0
10
11.820943750000001
20
20.828
30
0
0
VERTEX
8
0
10
11.673787500000001
20
20.828
30
0
0
VERTEX
8
0
10
11.624253125000001
20
20.817940625000002
30
0
0
VERTEX
8
0
10
11.582565625
20
20.789359375
30
0
0
VERTEX
8
0
10
11.555325
20
20.74678125
30
0
0
VERTEX
8
0
10
11.5467875
20
20.701
30
0
0
VERTEX
8
0
10
11.5467875
20
19.434831250000002
30
0
0
VERTEX
8
0
10
11.390556250000001
20
19.2786
30
0
0
SEQEND
0
POLYLINE
66
1
8
1_copper
10
0.0
20
0.0
30
0.0
70
1
0
VERTEX
8
0
10
8.5725
20
20.3962
30
0
0
VERTEX
8
0
10
8.5725
20
20.6375
30
0
0
VERTEX
8
0
10
7.6962
20
20.6375
30
0
0
VERTEX
8
0
10
7.6962
20
20.8915
30
0
0
VERTEX
8
0
10
8.677709375000001
20
20.8915
30
0
0
VERTEX
8
0
10
8.826500000000001
20
20.742709375
30
0
0
VERTEX
8
0
10
8.826500000000001
20
20.3962
30
0
0
SEQEND
0
POLYLINE
66
1
8
1_copper
10
0.0
20
0.0
30
0.0
70
1
0
VERTEX
8
0
10
6.4135
20
20.3962
30
0
0
VERTEX
8
0
10
6.4135
20
20.742709375
30
0
0
VERTEX
8
0
10
6.562290625
20
20.8915
30
0
0
VERTEX
8
0
10
7.5438
20
20.8915
30
0
0
VERTEX
8
0
10
7.5438
20
20.6375
30
0
0
VERTEX
8
0
10
6.6675
20
20.6375
30
0
0
VERTEX
8
0
10
6.6675
20
20.3962
30
0
0
SEQEND
0
POLYLINE
66
1
8
1_copper
10
0.0
20
0.0
30
0.0
70
1
0
VERTEX
8
0
10
6.562290625
20
19.7485
30
0
0
VERTEX
8
0
10
6.4135
20
19.897290625
30
0
0
VERTEX
8
0
10
6.4135
20
20.2438
30
0
0
VERTEX
8
0
10
6.6675
20
20.2438
30
0
0
VERTEX
8
0
10
6.6675
20
20.0025
30
0
0
VERTEX
8
0
10
7.5438
20
20.0025
30
0
0
VERTEX
8
0
10
7.5438
20
19.7485
30
0
0
SEQEND
0
POLYLINE
66
1
8
1_copper
10
0.0
20
0.0
30
0.0
70
1
0
VERTEX
8
0
10
7.6962
20
19.7485
30
0
0
VERTEX
8
0
10
7.6962
20
20.0025
30
0
0
VERTEX
8
0
10
8.5725
20
20.0025
30
0
0
VERTEX
8
0
10
8.5725
20
20.2438
30
0
0
VERTEX
8
0
10
8.826500000000001
20
20.2438
30
0
0
VERTEX
8
0
10
8.826500000000001
20
19.897290625
30
0
0
VERTEX
8
0
10
8.677709375000001
20
19.7485
30
0
0
SEQEND
0
POLYLINE
66
1
8
1_copper
10
0.0
20
0.0
30
0.0
70
1
0
VERTEX
8
0
10
37.726
20
17.8212
30
0
0
VERTEX
8
0
10
37.726
20
18.078978125000003
30
0
0
VERTEX
8
0
10
37.981609375000005
20
18.696071875
30
0
0
VERTEX
8
0
10
38.453928125000004
20
19.168390625
30
0
0
VERTEX
8
0
10
39.071021875
20
19.424
30
0
0
VERTEX
8
0
10
39.3288
20
19.424
30
0
0
VERTEX
8
0
10
39.3288
20
19.168190625
30
0
0
VERTEX
8
0
10
39.252578125
20
19.162737500000002
30
0
0
VERTEX
8
0
10
39.151825
20
19.148253125
30
0
0
VERTEX
8
0
10
39.0523625
20
19.126615625
30
0
0
VERTEX
8
0
10
38.9547
20
19.0979375
30
0
0
VERTEX
8
0
10
38.859328125000005
20
19.06236875
30
0
0
VERTEX
8
0
10
38.766737500000005
20
19.020084375
30
0
0
VERTEX
8
0
10
38.677403125000005
20
18.971303125000002
30
0
0
VERTEX
8
0
10
38.591771875
20
18.916271875
30
0
0
VERTEX
8
0
10
38.510287500000004
20
18.855271875
30
0
0
VERTEX
8
0
10
38.433359375
20
18.788615625000002
30
0
0
VERTEX
8
0
10
38.361384375
20
18.716640625
30
0
0
VERTEX
8
0
10
38.294728125
20
18.6397125
30
0
0
VERTEX
8
0
10
38.233728125
20
18.558228125
30
0
0
VERTEX
8
0
10
38.178696875
20
18.472596875
30
0
0
VERTEX
8
0
10
38.129915625
20
18.3832625
30
0
0
VERTEX
8
0
10
38.08763125
20
18.290671875
30
0
0
VERTEX
8
0
10
38.052062500000005
20
18.1953
30
0
0
VERTEX
8
0
10
38.023384375
20
18.0976375
30
0
0
VERTEX
8
0
10
38.001746875
20
17.998175
30
0
0
VERTEX
8
0
10
37.9872625
20
17.897421875
30
0
0
VERTEX
8
0
10
37.981809375000005
20
17.8212
30
0
0
SEQEND
0
POLYLINE
66
1
8
1_copper
10
0.0
20
0.0
30
0.0
70
1
0
VERTEX
8
0
10
32.576
20
17.8212
30
0
0
VERTEX
8
0
10
32.576
20
18.078978125000003
30
0
0
VERTEX
8
0
10
32.831609375
20
18.696071875
30
0
0
VERTEX
8
0
10
33.303928125
20
19.168390625
30
0
0
VERTEX
8
0
10
33.921021875
20
19.424
30
0
0
VERTEX
8
0
10
34.1788
20
19.424
30
0
0
VERTEX
8
0
10
34.1788
20
19.168190625
30
0
0
VERTEX
8
0
10
34.102578125
20
19.162737500000002
30
0
0
VERTEX
8
0
10
34.001825000000004
20
19.148253125
30
0
0
VERTEX
8
0
10
33.9023625
20
19.126615625
30
0
0
VERTEX
8
0
10
33.804700000000004
20
19.0979375
30
0
0
VERTEX
8
0
10
33.709328125
20
19.06236875
30
0
0
VERTEX
8
0
10
33.6167375
20
19.020084375
30
0
0
VERTEX
8
0
10
33.527403125
20
18.971303125000002
30
0
0
VERTEX
8
0
10
33.441771875
20
18.916271875
30
0
0
VERTEX
8
0
10
33.3602875
20
18.855271875
30
0
0
VERTEX
8
0
10
33.283359375
20
18.788615625000002
30
0
0
VERTEX
8
0
10
33.211384375
20
18.716640625
30
0
0
VERTEX
8
0
10
33.144728125
20
18.6397125
30
0
0
VERTEX
8
0
10
33.083728125
20
18.558228125
30
0
0
VERTEX
8
0
10
33.028696875
20
18.472596875
30
0
0
VERTEX
8
0
10
32.979915625000004
20
18.3832625
30
0
0
VERTEX
8
0
10
32.93763125
20
18.290671875
30
0
0
VERTEX
8
0
10
32.9020625
20
18.1953
30
0
0
VERTEX
8
0
10
32.873384375
20
18.0976375
30
0
0
VERTEX
8
0
10
32.851746875
20
17.998175
30
0
0
VERTEX
8
0
10
32.8372625
20
17.897421875
30
0
0
VERTEX
8
0
10
32.831809375
20
17.8212
30
0
0
SEQEND
0
POLYLINE
66
1
8
1_copper
10
0.0
20
0.0
30
0.0
70
1
0
VERTEX
8
0
10
35.678190625
20
17.8212
30
0
0
VERTEX
8
0
10
35.672737500000004
20
17.897421875
30
0
0
VERTEX
8
0
10
35.658253125
20
17.998175
30
0
0
VERTEX
8
0
10
35.636615625000005
20
18.0976375
30
0
0
VERTEX
8
0
10
35.6079375
20
18.1953
30
0
0
VERTEX
8
0
10
35.57236875
20
18.290671875
30
0
0
VERTEX
8
0
10
35.530084375
20
18.3832625
30
0
0
VERTEX
8
0
10
35.481303125000004
20
18.472596875
30
0
0
VERTEX
8
0
10
35.426271875000005
20
18.558228125
30
0
0
VERTEX
8
0
10
35.365271875000005
20
18.6397125
30
0
0
VERTEX
8
0
10
35.298615625000004
20
18.716640625
30
0
0
VERTEX
8
0
10
35.226640625
20
18.788615625000002
30
0
0
VERTEX
8
0
10
35.1497125
20
18.855271875
30
0
0
VERTEX
8
0
10
35.068228125000005
20
18.916271875
30
0
0
VERTEX
8
0
10
34.982596875
20
18.971303125000002
30
0
0
VERTEX
8
0
10
34.8932625
20
19.020084375
30
0
0
VERTEX
8
0
10
34.800671875
20
19.06236875
30
0
0
VERTEX
8
0
10
34.7053
20
19.0979375
30
0
0
VERTEX
8
0
10
34.6076375
20
19.126615625
30
0
0
VERTEX
8
0
10
34.508175
20
19.148253125
30
0
0
VERTEX
8
0
10
34.407421875000004
20
19.162737500000002
30
0
0
VERTEX
8
0
10
34.3312
20
19.168190625
30
0
0
VERTEX
8
0
10
34.3312
20
19.424
30
0
0
VERTEX
8
0
10
34.588978125000004
20
19.424
30
0
0
VERTEX
8
0
10
35.206071875
20
19.168390625
30
0
0
VERTEX
8
0
10
35.678390625
20
18.696071875
30
0
0
VERTEX
8
0
10
35.934000000000005
20
18.078978125000003
30
0
0
VERTEX
8
0
10
35.934000000000005
20
17.8212
30
0
0
SEQEND
0
POLYLINE
66
1
8
1_copper
10
0.0
20
0.0
30
0.0
70
1
0
VERTEX
8
0
10
23.8125
20
17.8562
30
0
0
VERTEX
8
0
10
23.8125
20
18.0975
30
0
0
VERTEX
8
0
10
22.9362
20
18.0975
30
0
0
VERTEX
8
0
10
22.9362
20
18.3515
30
0
0
VERTEX
8
0
10
23.917709375
20
18.3515
30
0
0
VERTEX
8
0
10
24.0665
20
18.202709375
30
0
0
VERTEX
8
0
10
24.0665
20
17.8562
30
0
0
SEQEND
0
POLYLINE
66
1
8
1_copper
10
0.0
20
0.0
30
0.0
70
1
0
VERTEX
8
0
10
21.6535
20
17.8562
30
0
0
VERTEX
8
0
10
21.6535
20
18.202709375
30
0
0
VERTEX
8
0
10
21.802290625
20
18.3515
30
0
0
VERTEX
8
0
10
22.7838
20
18.3515
30
0
0
VERTEX
8
0
10
22.7838
20
18.0975
30
0
0
VERTEX
8
0
10
21.907500000000002
20
18.0975
30
0
0
VERTEX
8
0
10
21.907500000000002
20
17.8562
30
0
0
SEQEND
0
POLYLINE
66
1
8
1_copper
10
0.0
20
0.0
30
0.0
70
1
0
VERTEX
8
0
10
4.675375
20
7.086600000000001
30
0
0
VERTEX
8
0
10
3.8937125000000004
20
7.296046875
30
0
0
VERTEX
8
0
10
3.19289375
20
7.700665625
30
0
0
VERTEX
8
0
10
2.620665625
20
8.27289375
30
0
0
VERTEX
8
0
10
2.216046875
20
8.973712500000001
30
0
0
VERTEX
8
0
10
2.0066
20
9.755375
30
0
0
VERTEX
8
0
10
2.0066
20
10.564625000000001
30
0
0
VERTEX
8
0
10
2.216046875
20
11.3462875
30
0
0
VERTEX
8
0
10
2.620665625
20
12.04710625
30
0
0
VERTEX
8
0
10
3.19289375
20
12.619334375000001
30
0
0
VERTEX
8
0
10
3.8937125000000004
20
13.023953125
30
0
0
VERTEX
8
0
10
4.6809343750000005
20
13.234890625
30
0
0
VERTEX
8
0
10
4.723134375
20
13.243459375
30
0
0
VERTEX
8
0
10
4.764821875
20
13.272040625
30
0
0
VERTEX
8
0
10
4.7920625
20
13.314618750000001
30
0
0
VERTEX
8
0
10
4.8006
20
13.3604
30
0
0
VERTEX
8
0
10
4.8006
20
16.62573125
30
0
0
VERTEX
8
0
10
6.23426875
20
18.0594
30
0
0
VERTEX
8
0
10
6.3881000000000006
20
18.0594
30
0
0
VERTEX
8
0
10
6.437634375
20
18.069459375
30
0
0
VERTEX
8
0
10
6.479321875
20
18.098040625
30
0
0
VERTEX
8
0
10
6.5065625
20
18.14061875
30
0
0
VERTEX
8
0
10
6.5091906250000005
20
18.154715625
30
0
0
VERTEX
8
0
10
6.604375
20
18.2499
30
0
0
VERTEX
8
0
10
8.635625000000001
20
18.2499
30
0
0
VERTEX
8
0
10
8.7249
20
18.160625
30
0
0
VERTEX
8
0
10
8.7249
20
17.399375
30
0
0
VERTEX
8
0
10
8.635625000000001
20
17.310100000000002
30
0
0
VERTEX
8
0
10
6.604375
20
17.310100000000002
30
0
0
VERTEX
8
0
10
6.5296062500000005
20
17.384868750000003
30
0
0
VERTEX
8
0
10
6.4874656250000005
20
17.412781250000002
30
0
0
VERTEX
8
0
10
6.437778125
20
17.422050000000002
30
0
0
VERTEX
8
0
10
6.388409375
20
17.411203125
30
0
0
VERTEX
8
0
10
6.3500000000000005
20
17.384868750000003
30
0
0
VERTEX
8
0
10
5.396596875
20
16.431465625
30
0
0
VERTEX
8
0
10
5.368684375
20
16.389325
30
0
0
VERTEX
8
0
10
5.3594
20
16.3416625
30
0
0
VERTEX
8
0
10
5.3594
20
13.3604
30
0
0
VERTEX
8
0
10
5.369459375
20
13.310865625
30
0
0
VERTEX
8
0
10
5.398040625
20
13.269178125
30
0
0
VERTEX
8
0
10
5.4406187500000005
20
13.2419375
30
0
0
VERTEX
8
0
10
5.480559375
20
13.2344875
30
0
0
VERTEX
8
0
10
6.266287500000001
20
13.023953125
30
0
0
VERTEX
8
0
10
6.9671062500000005
20
12.619334375000001
30
0
0
VERTEX
8
0
10
7.539334375
20
12.04710625
30
0
0
VERTEX
8
0
10
7.943953125
20
11.3462875
30
0
0
VERTEX
8
0
10
8.1534
20
10.564625000000001
30
0
0
VERTEX
8
0
10
8.1534
20
9.755375
30
0
0
VERTEX
8
0
10
7.943953125
20
8.973712500000001
30
0
0
VERTEX
8
0
10
7.539334375
20
8.27289375
30
0
0
VERTEX
8
0
10
6.9671062500000005
20
7.700665625
30
0
0
VERTEX
8
0
10
6.266287500000001
20
7.296046875
30
0
0
VERTEX
8
0
10
5.484625
20
7.086600000000001
30
0
0
SEQEND
0
POLYLINE
66
1
8
1_copper
10
0.0
20
0.0
30
0.0
70
1
0
VERTEX
8
0
10
21.802290625
20
17.2085
30
0
0
VERTEX
8
0
10
21.6535
20
17.357290625
30
0
0
VERTEX
8
0
10
21.6535
20
17.7038
30
0
0
VERTEX
8
0
10
21.907500000000002
20
17.7038
30
0
0
VERTEX
8
0
10
21.907500000000002
20
17.462500000000002
30
0
0
VERTEX
8
0
10
22.7838
20
17.462500000000002
30
0
0
VERTEX
8
0
10
22.7838
20
17.2085
30
0
0
SEQEND
0
POLYLINE
66
1
8
1_copper
10
0.0
20
0.0
30
0.0
70
1
0
VERTEX
8
0
10
22.9362
20
17.2085
30
0
0
VERTEX
8
0
10
22.9362
20
17.462500000000002
30
0
0
VERTEX
8
0
10
23.8125
20
17.462500000000002
30
0
0
VERTEX
8
0
10
23.8125
20
17.7038
30
0
0
VERTEX
8
0
10
24.0665
20
17.7038
30
0
0
VERTEX
8
0
10
24.0665
20
17.357290625
30
0
0
VERTEX
8
0
10
23.917709375
20
17.2085
30
0
0
SEQEND
0
POLYLINE
66
1
8
1_copper
10
0.0
20
0.0
30
0.0
70
1
0
VERTEX
8
0
10
33.921021875
20
16.066000000000003
30
0
0
VERTEX
8
0
10
33.303928125
20
16.321609375
30
0
0
VERTEX
8
0
10
32.831609375
20
16.793928125
30
0
0
VERTEX
8
0
10
32.576
20
17.411021875
30
0
0
VERTEX
8
0
10
32.576
20
17.6688
30
0
0
VERTEX
8
0
10
32.831809375
20
17.6688
30
0
0
VERTEX
8
0
10
32.8372625
20
17.592578125
30
0
0
VERTEX
8
0
10
32.851746875
20
17.491825000000002
30
0
0
VERTEX
8
0
10
32.873384375
20
17.3923625
30
0
0
VERTEX
8
0
10
32.9020625
20
17.294700000000002
30
0
0
VERTEX
8
0
10
32.93763125
20
17.199328125
30
0
0
VERTEX
8
0
10
32.979915625000004
20
17.1067375
30
0
0
VERTEX
8
0
10
33.028696875
20
17.017403125
30
0
0
VERTEX
8
0
10
33.083728125
20
16.931771875000003
30
0
0
VERTEX
8
0
10
33.144728125
20
16.8502875
30
0
0
VERTEX
8
0
10
33.211384375
20
16.773359375000002
30
0
0
VERTEX
8
0
10
33.283359375
20
16.701384375
30
0
0
VERTEX
8
0
10
33.3602875
20
16.634728125000002
30
0
0
VERTEX
8
0
10
33.441771875
20
16.573728125000002
30
0
0
VERTEX
8
0
10
33.527403125
20
16.518696875
30
0
0
VERTEX
8
0
10
33.6167375
20
16.469915625000002
30
0
0
VERTEX
8
0
10
33.709328125
20
16.42763125
30
0
0
VERTEX
8
0
10
33.804700000000004
20
16.3920625
30
0
0
VERTEX
8
0
10
33.9023625
20
16.363384375000003
30
0
0
VERTEX
8
0
10
34.001825000000004
20
16.341746875000002
30
0
0
VERTEX
8
0
10
34.102578125
20
16.3272625
30
0
0
VERTEX
8
0
10
34.1788
20
16.321809375
30
0
0
VERTEX
8
0
10
34.1788
20
16.066000000000003
30
0
0
SEQEND
0
POLYLINE
66
1
8
1_copper
10
0.0
20
0.0
30
0.0
70
1
0
VERTEX
8
0
10
39.071021875
20
16.066000000000003
30
0
0
VERTEX
8
0
10
38.453928125000004
20
16.321609375
30
0
0
VERTEX
8
0
10
37.981609375000005
20
16.793928125
30
0
0
VERTEX
8
0
10
37.726
20
17.411021875
30
0
0
VERTEX
8
0
10
37.726
20
17.6688
30
0
0
VERTEX
8
0
10
37.981809375000005
20
17.6688
30
0
0
VERTEX
8
0
10
37.9872625
20
17.592578125
30
0
0
VERTEX
8
0
10
38.001746875
20
17.491825000000002
30
0
0
VERTEX
8
0
10
38.023384375
20
17.3923625
30
0
0
VERTEX
8
0
10
38.052062500000005
20
17.294700000000002
30
0
0
VERTEX
8
0
10
38.08763125
20
17.199328125
30
0
0
VERTEX
8
0
10
38.129915625
20
17.1067375
30
0
0
VERTEX
8
0
10
38.178696875
20
17.017403125
30
0
0
VERTEX
8
0
10
38.233728125
20
16.931771875000003
30
0
0
VERTEX
8
0
10
38.294728125
20
16.8502875
30
0
0
VERTEX
8
0
10
38.361384375
20
16.773359375000002
30
0
0
VERTEX
8
0
10
38.433359375
20
16.701384375
30
0
0
VERTEX
8
0
10
38.510287500000004
20
16.634728125000002
30
0
0
VERTEX
8
0
10
38.591771875
20
16.573728125000002
30
0
0
VERTEX
8
0
10
38.677403125000005
20
16.518696875
30
0
0
VERTEX
8
0
10
38.766737500000005
20
16.469915625000002
30
0
0
VERTEX
8
0
10
38.859328125000005
20
16.42763125
30
0
0
VERTEX
8
0
10
38.9547
20
16.3920625
30
0
0
VERTEX
8
0
10
39.0523625
20
16.363384375000003
30
0
0
VERTEX
8
0
10
39.151825
20
16.341746875000002
30
0
0
VERTEX
8
0
10
39.252578125
20
16.3272625
30
0
0
VERTEX
8
0
10
39.3288
20
16.321809375
30
0
0
VERTEX
8
0
10
39.3288
20
16.066000000000003
30
0
0
SEQEND
0
POLYLINE
66
1
8
1_copper
10
0.0
20
0.0
30
0.0
70
1
0
VERTEX
8
0
10
34.3312
20
16.066000000000003
30
0
0
VERTEX
8
0
10
34.3312
20
16.321809375
30
0
0
VERTEX
8
0
10
34.407421875000004
20
16.3272625
30
0
0
VERTEX
8
0
10
34.508175
20
16.341746875000002
30
0
0
VERTEX
8
0
10
34.6076375
20
16.363384375000003
30
0
0
VERTEX
8
0
10
34.7053
20
16.3920625
30
0
0
VERTEX
8
0
10
34.800671875
20
16.42763125
30
0
0
VERTEX
8
0
10
34.8932625
20
16.469915625000002
30
0
0
VERTEX
8
0
10
34.982596875
20
16.518696875
30
0
0
VERTEX
8
0
10
35.068228125000005
20
16.573728125000002
30
0
0
VERTEX
8
0
10
35.1497125
20
16.634728125000002
30
0
0
VERTEX
8
0
10
35.226640625
20
16.701384375
30
0
0
VERTEX
8
0
10
35.298615625000004
20
16.773359375000002
30
0
0
VERTEX
8
0
10
35.365271875000005
20
16.8502875
30
0
0
VERTEX
8
0
10
35.426271875000005
20
16.931771875000003
30
0
0
VERTEX
8
0
10
35.481303125000004
20
17.017403125
30
0
0
VERTEX
8
0
10
35.530084375
20
17.1067375
30
0
0
VERTEX
8
0
10
35.57236875
20
17.199328125
30
0
0
VERTEX
8
0
10
35.6079375
20
17.294700000000002
30
0
0
VERTEX
8
0
10
35.636615625000005
20
17.3923625
30
0
0
VERTEX
8
0
10
35.658253125
20
17.491825000000002
30
0
0
VERTEX
8
0
10
35.672737500000004
20
17.592578125
30
0
0
VERTEX
8
0
10
35.678190625
20
17.6688
30
0
0
VERTEX
8
0
10
35.934000000000005
20
17.6688
30
0
0
VERTEX
8
0
10
35.934000000000005
20
17.411021875
30
0
0
VERTEX
8
0
10
35.678390625
20
16.793928125
30
0
0
VERTEX
8
0
10
35.206071875
20
16.321609375
30
0
0
VERTEX
8
0
10
34.588978125000004
20
16.066000000000003
30
0
0
SEQEND
0
POLYLINE
66
1
8
16_copper
10
0.0
20
0.0
30
0.0
70
1
0
VERTEX
8
0
10
34.407421875000004
20
21.477262500000002
30
0
0
VERTEX
8
0
10
34.508175
20
21.491746875
30
0
0
VERTEX
8
0
10
34.6076375
20
21.513384375
30
0
0
VERTEX
8
0
10
34.7053
20
21.5420625
30
0
0
VERTEX
8
0
10
34.800671875
20
21.57763125
30
0
0
VERTEX
8
0
10
34.8932625
20
21.619915625
30
0
0
VERTEX
8
0
10
34.982596875
20
21.668696875000002
30
0
0
VERTEX
8
0
10
35.068228125000005
20
21.723728125
30
0
0
VERTEX
8
0
10
35.1497125
20
21.784728125
30
0
0
VERTEX
8
0
10
35.226640625
20
21.851384375000002
30
0
0
VERTEX
8
0
10
35.298615625000004
20
21.923359375
30
0
0
VERTEX
8
0
10
35.365271875000005
20
22.000287500000002
30
0
0
VERTEX
8
0
10
35.426271875000005
20
22.081771875
30
0
0
VERTEX
8
0
10
35.481303125000004
20
22.167403125
30
0
0
VERTEX
8
0
10
35.530084375
20
22.2567375
30
0
0
VERTEX
8
0
10
35.57236875
20
22.349328125
30
0
0
VERTEX
8
0
10
35.6079375
20
22.4447
30
0
0
VERTEX
8
0
10
35.636615625000005
20
22.5423625
30
0
0
VERTEX
8
0
10
35.658253125
20
22.641825
30
0
0
VERTEX
8
0
10
35.672737500000004
20
22.742578125
30
0
0
VERTEX
8
0
10
35.68
20
22.84410625
30
0
0
VERTEX
8
0
10
35.68
20
22.94589375
30
0
0
VERTEX
8
0
10
35.672737500000004
20
23.047421875
30
0
0
VERTEX
8
0
10
35.658253125
20
23.148175000000002
30
0
0
VERTEX
8
0
10
35.636615625000005
20
23.2476375
30
0
0
VERTEX
8
0
10
35.6079375
20
23.3453
30
0
0
VERTEX
8
0
10
35.57236875
20
23.440671875
30
0
0
VERTEX
8
0
10
35.530084375
20
23.533262500000003
30
0
0
VERTEX
8
0
10
35.481303125000004
20
23.622596875000003
30
0
0
VERTEX
8
0
10
35.426271875000005
20
23.708228125
30
0
0
VERTEX
8
0
10
35.365271875000005
20
23.7897125
30
0
0
VERTEX
8
0
10
35.298615625000004
20
23.866640625000002
30
0
0
VERTEX
8
0
10
35.226640625
20
23.938615625
30
0
0
VERTEX
8
0
10
35.1497125
20
24.005271875000002
30
0
0
VERTEX
8
0
10
35.068228125000005
20
24.066271875
30
0
0
VERTEX
8
0
10
34.982596875
20
24.121303125
30
0
0
VERTEX
8
0
10
34.8932625
20
24.170084375000002
30
0
0
VERTEX
8
0
10
34.800671875
20
24.21236875
30
0
0
VERTEX
8
0
10
34.7053
20
24.247937500000003
30
0
0
VERTEX
8
0
10
34.6076375
20
24.276615625
30
0
0
VERTEX
8
0
10
34.508175
20
24.298253125000002
30
0
0
VERTEX
8
0
10
34.407421875000004
20
24.3127375
30
0
0
VERTEX
8
0
10
34.30589375
20
24.32
30
0
0
VERTEX
8
0
10
34.20410625
20
24.32
30
0
0
VERTEX
8
0
10
34.102578125
20
24.3127375
30
0
0
VERTEX
8
0
10
34.001825000000004
20
24.298253125000002
30
0
0
VERTEX
8
0
10
33.9023625
20
24.276615625
30
0
0
VERTEX
8
0
10
33.804700000000004
20
24.247937500000003
30
0
0
VERTEX
8
0
10
33.709328125
20
24.21236875
30
0
0
VERTEX
8
0
10
33.6167375
20
24.170084375000002
30
0
0
VERTEX
8
0
10
33.527403125
20
24.121303125
30
0
0
VERTEX
8
0
10
33.441771875
20
24.066271875
30
0
0
VERTEX
8
0
10
33.3602875
20
24.005271875000002
30
0
0
VERTEX
8
0
10
33.283359375
20
23.938615625
30
0
0
VERTEX
8
0
10
33.211384375
20
23.866640625000002
30
0
0
VERTEX
8
0
10
33.144728125
20
23.7897125
30
0
0
VERTEX
8
0
10
33.083728125
20
23.708228125
30
0
0
VERTEX
8
0
10
33.028696875
20
23.622596875000003
30
0
0
VERTEX
8
0
10
32.979915625000004
20
23.533262500000003
30
0
0
VERTEX
8
0
10
32.93763125
20
23.440671875
30
0
0
VERTEX
8
0
10
32.9020625
20
23.3453
30
0
0
VERTEX
8
0
10
32.873384375
20
23.2476375
30
0
0
VERTEX
8
0
10
32.851746875
20
23.148175000000002
30
0
0
VERTEX
8
0
10
32.8372625
20
23.047421875
30
0
0
VERTEX
8
0
10
32.83
20
22.94589375
30
0
0
VERTEX
8
0
10
32.83
20
22.84410625
30
0
0
VERTEX
8
0
10
32.8372625
20
22.742578125
30
0
0
VERTEX
8
0
10
32.851746875
20
22.641825
30
0
0
VERTEX
8
0
10
32.873384375
20
22.5423625
30
0
0
VERTEX
8
0
10
32.9020625
20
22.4447
30
0
0
VERTEX
8
0
10
32.93763125
20
22.349328125
30
0
0
VERTEX
8
0
10
32.979915625000004
20
22.2567375
30
0
0
VERTEX
8
0
10
33.028696875
20
22.167403125
30
0
0
VERTEX
8
0
10
33.083728125
20
22.081771875
30
0
0
VERTEX
8
0
10
33.144728125
20
22.000287500000002
30
0
0
VERTEX
8
0
10
33.211384375
20
21.923359375
30
0
0
VERTEX
8
0
10
33.283359375
20
21.851384375000002
30
0
0
VERTEX
8
0
10
33.3602875
20
21.784728125
30
0
0
VERTEX
8
0
10
33.441771875
20
21.723728125
30
0
0
VERTEX
8
0
10
33.527403125
20
21.668696875000002
30
0
0
VERTEX
8
0
10
33.6167375
20
21.619915625
30
0
0
VERTEX
8
0
10
33.709328125
20
21.57763125
30
0
0
VERTEX
8
0
10
33.804700000000004
20
21.5420625
30
0
0
VERTEX
8
0
10
33.9023625
20
21.513384375
30
0
0
VERTEX
8
0
10
34.001825000000004
20
21.491746875
30
0
0
VERTEX
8
0
10
34.102578125
20
21.477262500000002
30
0
0
VERTEX
8
0
10
34.20410625
20
21.470000000000002
30
0
0
VERTEX
8
0
10
34.30589375
20
21.470000000000002
30
0
0
SEQEND
0
POLYLINE
66
1
8
16_copper
10
0.0
20
0.0
30
0.0
70
1
0
VERTEX
8
0
10
39.557421875
20
21.477262500000002
30
0
0
VERTEX
8
0
10
39.658175
20
21.491746875
30
0
0
VERTEX
8
0
10
39.7576375
20
21.513384375
30
0
0
VERTEX
8
0
10
39.8553
20
21.5420625
30
0
0
VERTEX
8
0
10
39.950671875000005
20
21.57763125
30
0
0
VERTEX
8
0
10
40.043262500000004
20
21.619915625
30
0
0
VERTEX
8
0
10
40.132596875000004
20
21.668696875000002
30
0
0
VERTEX
8
0
10
40.218228125
20
21.723728125
30
0
0
VERTEX
8
0
10
40.299712500000005
20
21.784728125
30
0
0
VERTEX
8
0
10
40.376640625
20
21.851384375000002
30
0
0
VERTEX
8
0
10
40.448615625
20
21.923359375
30
0
0
VERTEX
8
0
10
40.515271875
20
22.000287500000002
30
0
0
VERTEX
8
0
10
40.576271875
20
22.081771875
30
0
0
VERTEX
8
0
10
40.631303125
20
22.167403125
30
0
0
VERTEX
8
0
10
40.680084375
20
22.2567375
30
0
0
VERTEX
8
0
10
40.72236875
20
22.349328125
30
0
0
VERTEX
8
0
10
40.757937500000004
20
22.4447
30
0
0
VERTEX
8
0
10
40.786615625
20
22.5423625
30
0
0
VERTEX
8
0
10
40.808253125
20
22.641825
30
0
0
VERTEX
8
0
10
40.8227375
20
22.742578125
30
0
0
VERTEX
8
0
10
40.830000000000005
20
22.84410625
30
0
0
VERTEX
8
0
10
40.830000000000005
20
22.94589375
30
0
0
VERTEX
8
0
10
40.8227375
20
23.047421875
30
0
0
VERTEX
8
0
10
40.808253125
20
23.148175000000002
30
0
0
VERTEX
8
0
10
40.786615625
20
23.2476375
30
0
0
VERTEX
8
0
10
40.757937500000004
20
23.3453
30
0
0
VERTEX
8
0
10
40.72236875
20
23.440671875
30
0
0
VERTEX
8
0
10
40.680084375
20
23.533262500000003
30
0
0
VERTEX
8
0
10
40.631303125
20
23.622596875000003
30
0
0
VERTEX
8
0
10
40.576271875
20
23.708228125
30
0
0
VERTEX
8
0
10
40.515271875
20
23.7897125
30
0
0
VERTEX
8
0
10
40.448615625
20
23.866640625000002
30
0
0
VERTEX
8
0
10
40.376640625
20
23.938615625
30
0
0
VERTEX
8
0
10
40.299712500000005
20
24.005271875000002
30
0
0
VERTEX
8
0
10
40.218228125
20
24.066271875
30
0
0
VERTEX
8
0
10
40.132596875000004
20
24.121303125
30
0
0
VERTEX
8
0
10
40.043262500000004
20
24.170084375000002
30
0
0
VERTEX
8
0
10
39.950671875000005
20
24.21236875
30
0
0
VERTEX
8
0
10
39.8553
20
24.247937500000003
30
0
0
VERTEX
8
0
10
39.7576375
20
24.276615625
30
0
0
VERTEX
8
0
10
39.658175
20
24.298253125000002
30
0
0
VERTEX
8
0
10
39.557421875
20
24.3127375
30
0
0
VERTEX
8
0
10
39.45589375
20
24.32
30
0
0
VERTEX
8
0
10
39.35410625
20
24.32
30
0
0
VERTEX
8
0
10
39.252578125
20
24.3127375
30
0
0
VERTEX
8
0
10
39.151825
20
24.298253125000002
30
0
0
VERTEX
8
0
10
39.0523625
20
24.276615625
30
0
0
VERTEX
8
0
10
38.9547
20
24.247937500000003
30
0
0
VERTEX
8
0
10
38.859328125000005
20
24.21236875
30
0
0
VERTEX
8
0
10
38.766737500000005
20
24.170084375000002
30
0
0
VERTEX
8
0
10
38.677403125000005
20
24.121303125
30
0
0
VERTEX
8
0
10
38.591771875
20
24.066271875
30
0
0
VERTEX
8
0
10
38.510287500000004
20
24.005271875000002
30
0
0
VERTEX
8
0
10
38.433359375
20
23.938615625
30
0
0
VERTEX
8
0
10
38.361384375
20
23.866640625000002
30
0
0
VERTEX
8
0
10
38.294728125
20
23.7897125
30
0
0
VERTEX
8
0
10
38.233728125
20
23.708228125
30
0
0
VERTEX
8
0
10
38.178696875
20
23.622596875000003
30
0
0
VERTEX
8
0
10
38.129915625
20
23.533262500000003
30
0
0
VERTEX
8
0
10
38.08763125
20
23.440671875
30
0
0
VERTEX
8
0
10
38.052062500000005
20
23.3453
30
0
0
VERTEX
8
0
10
38.023384375
20
23.2476375
30
0
0
VERTEX
8
0
10
38.001746875
20
23.148175000000002
30
0
0
VERTEX
8
0
10
37.9872625
20
23.047421875
30
0
0
VERTEX
8
0
10
37.980000000000004
20
22.94589375
30
0
0
VERTEX
8
0
10
37.980000000000004
20
22.84410625
30
0
0
VERTEX
8
0
10
37.9872625
20
22.742578125
30
0
0
VERTEX
8
0
10
38.001746875
20
22.641825
30
0
0
VERTEX
8
0
10
38.023384375
20
22.5423625
30
0
0
VERTEX
8
0
10
38.052062500000005
20
22.4447
30
0
0
VERTEX
8
0
10
38.08763125
20
22.349328125
30
0
0
VERTEX
8
0
10
38.129915625
20
22.2567375
30
0
0
VERTEX
8
0
10
38.178696875
20
22.167403125
30
0
0
VERTEX
8
0
10
38.233728125
20
22.081771875
30
0
0
VERTEX
8
0
10
38.294728125
20
22.000287500000002
30
0
0
VERTEX
8
0
10
38.361384375
20
21.923359375
30
0
0
VERTEX
8
0
10
38.433359375
20
21.851384375000002
30
0
0
VERTEX
8
0
10
38.510287500000004
20
21.784728125
30
0
0
VERTEX
8
0
10
38.591771875
20
21.723728125
30
0
0
VERTEX
8
0
10
38.677403125000005
20
21.668696875000002
30
0
0
VERTEX
8
0
10
38.766737500000005
20
21.619915625
30
0
0
VERTEX
8
0
10
38.859328125000005
20
21.57763125
30
0
0
VERTEX
8
0
10
38.9547
20
21.5420625
30
0
0
VERTEX
8
0
10
39.0523625
20
21.513384375
30
0
0
VERTEX
8
0
10
39.151825
20
21.491746875
30
0
0
VERTEX
8
0
10
39.252578125
20
21.477262500000002
30
0
0
VERTEX
8
0
10
39.35410625
20
21.470000000000002
30
0
0
VERTEX
8
0
10
39.45589375
20
21.470000000000002
30
0
0
SEQEND
0
POLYLINE
66
1
8
16_copper
10
0.0
20
0.0
30
0.0
70
1
0
VERTEX
8
0
10
39.557421875
20
16.3272625
30
0
0
VERTEX
8
0
10
39.658175
20
16.341746875000002
30
0
0
VERTEX
8
0
10
39.7576375
20
16.363384375000003
30
0
0
VERTEX
8
0
10
39.8553
20
16.3920625
30
0
0
VERTEX
8
0
10
39.950671875000005
20
16.42763125
30
0
0
VERTEX
8
0
10
40.043262500000004
20
16.469915625000002
30
0
0
VERTEX
8
0
10
40.132596875000004
20
16.518696875
30
0
0
VERTEX
8
0
10
40.218228125
20
16.573728125000002
30
0
0
VERTEX
8
0
10
40.299712500000005
20
16.634728125000002
30
0
0
VERTEX
8
0
10
40.376640625
20
16.701384375
30
0
0
VERTEX
8
0
10
40.448615625
20
16.773359375000002
30
0
0
VERTEX
8
0
10
40.515271875
20
16.8502875
30
0
0
VERTEX
8
0
10
40.576271875
20
16.931771875000003
30
0
0
VERTEX
8
0
10
40.631303125
20
17.017403125
30
0
0
VERTEX
8
0
10
40.680084375
20
17.1067375
30
0
0
VERTEX
8
0
10
40.72236875
20
17.199328125
30
0
0
VERTEX
8
0
10
40.757937500000004
20
17.294700000000002
30
0
0
VERTEX
8
0
10
40.786615625
20
17.3923625
30
0
0
VERTEX
8
0
10
40.808253125
20
17.491825000000002
30
0
0
VERTEX
8
0
10
40.8227375
20
17.592578125
30
0
0
VERTEX
8
0
10
40.830000000000005
20
17.69410625
30
0
0
VERTEX
8
0
10
40.830000000000005
20
17.79589375
30
0
0
VERTEX
8
0
10
40.8227375
20
17.897421875
30
0
0
VERTEX
8
0
10
40.808253125
20
17.998175
30
0
0
VERTEX
8
0
10
40.786615625
20
18.0976375
30
0
0
VERTEX
8
0
10
40.757937500000004
20
18.1953
30
0
0
VERTEX
8
0
10
40.72236875
20
18.290671875
30
0
0
VERTEX
8
0
10
40.680084375
20
18.3832625
30
0
0
VERTEX
8
0
10
40.631303125
20
18.472596875
30
0
0
VERTEX
8
0
10
40.576271875
20
18.558228125
30
0
0
VERTEX
8
0
10
40.515271875
20
18.6397125
30
0
0
VERTEX
8
0
10
40.448615625
20
18.716640625
30
0
0
VERTEX
8
0
10
40.376640625
20
18.788615625000002
30
0
0
VERTEX
8
0
10
40.299712500000005
20
18.855271875
30
0
0
VERTEX
8
0
10
40.218228125
20
18.916271875
30
0
0
VERTEX
8
0
10
40.132596875000004
20
18.971303125000002
30
0
0
VERTEX
8
0
10
40.043262500000004
20
19.020084375
30
0
0
VERTEX
8
0
10
39.950671875000005
20
19.06236875
30
0
0
VERTEX
8
0
10
39.8553
20
19.0979375
30
0
0
VERTEX
8
0
10
39.7576375
20
19.126615625
30
0
0
VERTEX
8
0
10
39.658175
20
19.148253125
30
0
0
VERTEX
8
0
10
39.557421875
20
19.162737500000002
30
0
0
VERTEX
8
0
10
39.45589375
20
19.17
30
0
0
VERTEX
8
0
10
39.35410625
20
19.17
30
0
0
VERTEX
8
0
10
39.252578125
20
19.162737500000002
30
0
0
VERTEX
8
0
10
39.151825
20
19.148253125
30
0
0
VERTEX
8
0
10
39.0523625
20
19.126615625
30
0
0
VERTEX
8
0
10
38.9547
20
19.0979375
30
0
0
VERTEX
8
0
10
38.859328125000005
20
19.06236875
30
0
0
VERTEX
8
0
10
38.766737500000005
20
19.020084375
30
0
0
VERTEX
8
0
10
38.677403125000005
20
18.971303125000002
30
0
0
VERTEX
8
0
10
38.591771875
20
18.916271875
30
0
0
VERTEX
8
0
10
38.510287500000004
20
18.855271875
30
0
0
VERTEX
8
0
10
38.433359375
20
18.788615625000002
30
0
0
VERTEX
8
0
10
38.361384375
20
18.716640625
30
0
0
VERTEX
8
0
10
38.294728125
20
18.6397125
30
0
0
VERTEX
8
0
10
38.233728125
20
18.558228125
30
0
0
VERTEX
8
0
10
38.178696875
20
18.472596875
30
0
0
VERTEX
8
0
10
38.129915625
20
18.3832625
30
0
0
VERTEX
8
0
10
38.08763125
20
18.290671875
30
0
0
VERTEX
8
0
10
38.052062500000005
20
18.1953
30
0
0
VERTEX
8
0
10
38.023384375
20
18.0976375
30
0
0
VERTEX
8
0
10
38.001746875
20
17.998175
30
0
0
VERTEX
8
0
10
37.9872625
20
17.897421875
30
0
0
VERTEX
8
0
10
37.980000000000004
20
17.79589375
30
0
0
VERTEX
8
0
10
37.980000000000004
20
17.69410625
30
0
0
VERTEX
8
0
10
37.9872625
20
17.592578125
30
0
0
VERTEX
8
0
10
38.001746875
20
17.491825000000002
30
0
0
VERTEX
8
0
10
38.023384375
20
17.3923625
30
0
0
VERTEX
8
0
10
38.052062500000005
20
17.294700000000002
30
0
0
VERTEX
8
0
10
38.08763125
20
17.199328125
30
0
0
VERTEX
8
0
10
38.129915625
20
17.1067375
30
0
0
VERTEX
8
0
10
38.178696875
20
17.017403125
30
0
0
VERTEX
8
0
10
38.233728125
20
16.931771875000003
30
0
0
VERTEX
8
0
10
38.294728125
20
16.8502875
30
0
0
VERTEX
8
0
10
38.361384375
20
16.773359375000002
30
0
0
VERTEX
8
0
10
38.433359375
20
16.701384375
30
0
0
VERTEX
8
0
10
38.510287500000004
20
16.634728125000002
30
0
0
VERTEX
8
0
10
38.591771875
20
16.573728125000002
30
0
0
VERTEX
8
0
10
38.677403125000005
20
16.518696875
30
0
0
VERTEX
8
0
10
38.766737500000005
20
16.469915625000002
30
0
0
VERTEX
8
0
10
38.859328125000005
20
16.42763125
30
0
0
VERTEX
8
0
10
38.9547
20
16.3920625
30
0
0
VERTEX
8
0
10
39.0523625
20
16.363384375000003
30
0
0
VERTEX
8
0
10
39.151825
20
16.341746875000002
30
0
0
VERTEX
8
0
10
39.252578125
20
16.3272625
30
0
0
VERTEX
8
0
10
39.35410625
20
16.32
30
0
0
VERTEX
8
0
10
39.45589375
20
16.32
30
0
0
SEQEND
0
POLYLINE
66
1
8
16_copper
10
0.0
20
0.0
30
0.0
70
1
0
VERTEX
8
0
10
34.407421875000004
20
16.3272625
30
0
0
VERTEX
8
0
10
34.508175
20
16.341746875000002
30
0
0
VERTEX
8
0
10
34.6076375
20
16.363384375000003
30
0
0
VERTEX
8
0
10
34.7053
20
16.3920625
30
0
0
VERTEX
8
0
10
34.800671875
20
16.42763125
30
0
0
VERTEX
8
0
10
34.8932625
20
16.469915625000002
30
0
0
VERTEX
8
0
10
34.982596875
20
16.518696875
30
0
0
VERTEX
8
0
10
35.068228125000005
20
16.573728125000002
30
0
0
VERTEX
8
0
10
35.1497125
20
16.634728125000002
30
0
0
VERTEX
8
0
10
35.226640625
20
16.701384375
30
0
0
VERTEX
8
0
10
35.298615625000004
20
16.773359375000002
30
0
0
VERTEX
8
0
10
35.365271875000005
20
16.8502875
30
0
0
VERTEX
8
0
10
35.426271875000005
20
16.931771875000003
30
0
0
VERTEX
8
0
10
35.481303125000004
20
17.017403125
30
0
0
VERTEX
8
0
10
35.530084375
20
17.1067375
30
0
0
VERTEX
8
0
10
35.57236875
20
17.199328125
30
0
0
VERTEX
8
0
10
35.6079375
20
17.294700000000002
30
0
0
VERTEX
8
0
10
35.636615625000005
20
17.3923625
30
0
0
VERTEX
8
0
10
35.658253125
20
17.491825000000002
30
0
0
VERTEX
8
0
10
35.672737500000004
20
17.592578125
30
0
0
VERTEX
8
0
10
35.68
20
17.69410625
30
0
0
VERTEX
8
0
10
35.68
20
17.79589375
30
0
0
VERTEX
8
0
10
35.672737500000004
20
17.897421875
30
0
0
VERTEX
8
0
10
35.658253125
20
17.998175
30
0
0
VERTEX
8
0
10
35.636615625000005
20
18.0976375
30
0
0
VERTEX
8
0
10
35.6079375
20
18.1953
30
0
0
VERTEX
8
0
10
35.57236875
20
18.290671875
30
0
0
VERTEX
8
0
10
35.530084375
20
18.3832625
30
0
0
VERTEX
8
0
10
35.481303125000004
20
18.472596875
30
0
0
VERTEX
8
0
10
35.426271875000005
20
18.558228125
30
0
0
VERTEX
8
0
10
35.365271875000005
20
18.6397125
30
0
0
VERTEX
8
0
10
35.298615625000004
20
18.716640625
30
0
0
VERTEX
8
0
10
35.226640625
20
18.788615625000002
30
0
0
VERTEX
8
0
10
35.1497125
20
18.855271875
30
0
0
VERTEX
8
0
10
35.068228125000005
20
18.916271875
30
0
0
VERTEX
8
0
10
34.982596875
20
18.971303125000002
30
0
0
VERTEX
8
0
10
34.8932625
20
19.020084375
30
0
0
VERTEX
8
0
10
34.800671875
20
19.06236875
30
0
0
VERTEX
8
0
10
34.7053
20
19.0979375
30
0
0
VERTEX
8
0
10
34.6076375
20
19.126615625
30
0
0
VERTEX
8
0
10
34.508175
20
19.148253125
30
0
0
VERTEX
8
0
10
34.407421875000004
20
19.162737500000002
30
0
0
VERTEX
8
0
10
34.30589375
20
19.17
30
0
0
VERTEX
8
0
10
34.20410625
20
19.17
30
0
0
VERTEX
8
0
10
34.102578125
20
19.162737500000002
30
0
0
VERTEX
8
0
10
34.001825000000004
20
19.148253125
30
0
0
VERTEX
8
0
10
33.9023625
20
19.126615625
30
0
0
VERTEX
8
0
10
33.804700000000004
20
19.0979375
30
0
0
VERTEX
8
0
10
33.709328125
20
19.06236875
30
0
0
VERTEX
8
0
10
33.6167375
20
19.020084375
30
0
0
VERTEX
8
0
10
33.527403125
20
18.971303125000002
30
0
0
VERTEX
8
0
10
33.441771875
20
18.916271875
30
0
0
VERTEX
8
0
10
33.3602875
20
18.855271875
30
0
0
VERTEX
8
0
10
33.283359375
20
18.788615625000002
30
0
0
VERTEX
8
0
10
33.211384375
20
18.716640625
30
0
0
VERTEX
8
0
10
33.144728125
20
18.6397125
30
0
0
VERTEX
8
0
10
33.083728125
20
18.558228125
30
0
0
VERTEX
8
0
10
33.028696875
20
18.472596875
30
0
0
VERTEX
8
0
10
32.979915625000004
20
18.3832625
30
0
0
VERTEX
8
0
10
32.93763125
20
18.290671875
30
0
0
VERTEX
8
0
10
32.9020625
20
18.1953
30
0
0
VERTEX
8
0
10
32.873384375
20
18.0976375
30
0
0
VERTEX
8
0
10
32.851746875
20
17.998175
30
0
0
VERTEX
8
0
10
32.8372625
20
17.897421875
30
0
0
VERTEX
8
0
10
32.83
20
17.79589375
30
0
0
VERTEX
8
0
10
32.83
20
17.69410625
30
0
0
VERTEX
8
0
10
32.8372625
20
17.592578125
30
0
0
VERTEX
8
0
10
32.851746875
20
17.491825000000002
30
0
0
VERTEX
8
0
10
32.873384375
20
17.3923625
30
0
0
VERTEX
8
0
10
32.9020625
20
17.294700000000002
30
0
0
VERTEX
8
0
10
32.93763125
20
17.199328125
30
0
0
VERTEX
8
0
10
32.979915625000004
20
17.1067375
30
0
0
VERTEX
8
0
10
33.028696875
20
17.017403125
30
0
0
VERTEX
8
0
10
33.083728125
20
16.931771875000003
30
0
0
VERTEX
8
0
10
33.144728125
20
16.8502875
30
0
0
VERTEX
8
0
10
33.211384375
20
16.773359375000002
30
0
0
VERTEX
8
0
10
33.283359375
20
16.701384375
30
0
0
VERTEX
8
0
10
33.3602875
20
16.634728125000002
30
0
0
VERTEX
8
0
10
33.441771875
20
16.573728125000002
30
0
0
VERTEX
8
0
10
33.527403125
20
16.518696875
30
0
0
VERTEX
8
0
10
33.6167375
20
16.469915625000002
30
0
0
VERTEX
8
0
10
33.709328125
20
16.42763125
30
0
0
VERTEX
8
0
10
33.804700000000004
20
16.3920625
30
0
0
VERTEX
8
0
10
33.9023625
20
16.363384375000003
30
0
0
VERTEX
8
0
10
34.001825000000004
20
16.341746875000002
30
0
0
VERTEX
8
0
10
34.102578125
20
16.3272625
30
0
0
VERTEX
8
0
10
34.20410625
20
16.32
30
0
0
VERTEX
8
0
10
34.30589375
20
16.32
30
0
0
SEQEND
0
POLYLINE
66
1
8
1_copper
10
0.0
20
0.0
30
0.0
70
1
0
VERTEX
8
0
10
6.28984375
20
22.747453125
30
0
0
VERTEX
8
0
10
6.31295625
20
22.73788125
30
0
0
VERTEX
8
0
10
6.337490625
20
22.733
30
0
0
VERTEX
8
0
10
6.6675
20
22.733
30
0
0
VERTEX
8
0
10
6.6675
20
22.5425
30
0
0
VERTEX
8
0
10
8.5725
20
22.5425
30
0
0
VERTEX
8
0
10
8.5725
20
23.177500000000002
30
0
0
VERTEX
8
0
10
6.6675
20
23.177500000000002
30
0
0
VERTEX
8
0
10
6.6675
20
22.987000000000002
30
0
0
VERTEX
8
0
10
6.402603125000001
20
22.987000000000002
30
0
0
VERTEX
8
0
10
5.207
20
24.182603125
30
0
0
VERTEX
8
0
10
5.207
20
27.561715625
30
0
0
VERTEX
8
0
10
5.294946875
20
27.5660375
30
0
0
VERTEX
8
0
10
5.43766875
20
27.58009375
30
0
0
VERTEX
8
0
10
5.5795312500000005
20
27.6011375
30
0
0
VERTEX
8
0
10
5.720187500000001
20
27.629115625
30
0
0
VERTEX
8
0
10
5.859303125
20
27.6639625
30
0
0
VERTEX
8
0
10
5.996540625000001
20
27.705593750000002
30
0
0
VERTEX
8
0
10
6.1315687500000005
20
27.75390625
30
0
0
VERTEX
8
0
10
6.264065625000001
20
27.8087875
30
0
0
VERTEX
8
0
10
6.393709375
20
27.870106250000003
30
0
0
VERTEX
8
0
10
6.520190625000001
20
27.937709375
30
0
0
VERTEX
8
0
10
6.6432
20
28.011440625000002
30
0
0
VERTEX
8
0
10
6.76244375
20
28.091115625
30
0
0
VERTEX
8
0
10
6.877634375
20
28.176546875
30
0
0
VERTEX
8
0
10
6.98849375
20
28.267528125000002
30
0
0
VERTEX
8
0
10
7.0947562500000005
20
28.363837500000002
30
0
0
VERTEX
8
0
10
7.196162500000001
20
28.465243750000003
30
0
0
VERTEX
8
0
10
7.292471875
20
28.571506250000002
30
0
0
VERTEX
8
0
10
7.383453125
20
28.682365625000003
30
0
0
VERTEX
8
0
10
7.468884375
20
28.797556250000003
30
0
0
VERTEX
8
0
10
7.548559375
20
28.916800000000002
30
0
0
VERTEX
8
0
10
7.622290625000001
20
29.039809375
30
0
0
VERTEX
8
0
10
7.68989375
20
29.166290625000002
30
0
0
VERTEX
8
0
10
7.7512125
20
29.295934375
30
0
0
VERTEX
8
0
10
7.8060937500000005
20
29.428431250000003
30
0
0
VERTEX
8
0
10
7.85440625
20
29.563459375
30
0
0
VERTEX
8
0
10
7.8960375
20
29.700696875000002
30
0
0
VERTEX
8
0
10
7.930884375000001
20
29.8398125
30
0
0
VERTEX
8
0
10
7.9588625
20
29.98046875
30
0
0
VERTEX
8
0
10
7.97990625
20
30.122331250000002
30
0
0
VERTEX
8
0
10
7.9939625
20
30.265053125
30
0
0
VERTEX
8
0
10
8.001000000000001
20
30.408293750000002
30
0
0
VERTEX
8
0
10
8.001000000000001
20
30.551706250000002
30
0
0
VERTEX
8
0
10
7.9939625
20
30.694946875000003
30
0
0
VERTEX
8
0
10
7.97990625
20
30.837668750000002
30
0
0
VERTEX
8
0
10
7.9588625
20
30.97953125
30
0
0
VERTEX
8
0
10
7.930884375000001
20
31.1201875
30
0
0
VERTEX
8
0
10
7.8960375
20
31.259303125000002
30
0
0
VERTEX
8
0
10
7.85440625
20
31.396540625
30
0
0
VERTEX
8
0
10
7.8060937500000005
20
31.53156875
30
0
0
VERTEX
8
0
10
7.7512125
20
31.664065625000003
30
0
0
VERTEX
8
0
10
7.68989375
20
31.793709375000002
30
0
0
VERTEX
8
0
10
7.622290625000001
20
31.920190625
30
0
0
VERTEX
8
0
10
7.548559375
20
32.0432
30
0
0
VERTEX
8
0
10
7.468884375
20
32.16244375
30
0
0
VERTEX
8
0
10
7.383453125
20
32.277634375
30
0
0
VERTEX
8
0
10
7.292471875
20
32.38849375
30
0
0
VERTEX
8
0
10
7.196162500000001
20
32.49475625
30
0
0
VERTEX
8
0
10
7.0947562500000005
20
32.5961625
30
0
0
VERTEX
8
0
10
6.98849375
20
32.692471875
30
0
0
VERTEX
8
0
10
6.877634375
20
32.783453125
30
0
0
VERTEX
8
0
10
6.76244375
20
32.868884375
30
0
0
VERTEX
8
0
10
6.6432
20
32.948559375
30
0
0
VERTEX
8
0
10
6.520190625000001
20
33.022290625000004
30
0
0
VERTEX
8
0
10
6.393709375
20
33.08989375
30
0
0
VERTEX
8
0
10
6.264065625000001
20
33.1512125
30
0
0
VERTEX
8
0
10
6.1315687500000005
20
33.20609375
30
0
0
VERTEX
8
0
10
5.996540625000001
20
33.25440625
30
0
0
VERTEX
8
0
10
5.859303125
20
33.296037500000004
30
0
0
VERTEX
8
0
10
5.720187500000001
20
33.330884375000004
30
0
0
VERTEX
8
0
10
5.5795312500000005
20
33.3588625
30
0
0
VERTEX
8
0
10
5.43766875
20
33.379906250000005
30
0
0
VERTEX
8
0
10
5.294946875
20
33.3939625
30
0
0
VERTEX
8
0
10
5.15170625
20
33.401
30
0
0
VERTEX
8
0
10
5.00829375
20
33.401
30
0
0
VERTEX
8
0
10
4.865053125
20
33.3939625
30
0
0
VERTEX
8
0
10
4.72233125
20
33.379906250000005
30
0
0
VERTEX
8
0
10
4.5804687500000005
20
33.3588625
30
0
0
VERTEX
8
0
10
4.4398125
20
33.330884375000004
30
0
0
VERTEX
8
0
10
4.300696875
20
33.296037500000004
30
0
0
VERTEX
8
0
10
4.163459375
20
33.25440625
30
0
0
VERTEX
8
0
10
4.028431250000001
20
33.20609375
30
0
0
VERTEX
8
0
10
3.8959343750000004
20
33.1512125
30
0
0
VERTEX
8
0
10
3.7662906250000003
20
33.08989375
30
0
0
VERTEX
8
0
10
3.639809375
20
33.022290625000004
30
0
0
VERTEX
8
0
10
3.5168000000000004
20
32.948559375
30
0
0
VERTEX
8
0
10
3.39755625
20
32.868884375
30
0
0
VERTEX
8
0
10
3.282365625
20
32.783453125
30
0
0
VERTEX
8
0
10
3.17150625
20
32.692471875
30
0
0
VERTEX
8
0
10
3.06524375
20
32.5961625
30
0
0
VERTEX
8
0
10
2.9638375000000003
20
32.49475625
30
0
0
VERTEX
8
0
10
2.867528125
20
32.38849375
30
0
0
VERTEX
8
0
10
2.776546875
20
32.277634375
30
0
0
VERTEX
8
0
10
2.691115625
20
32.16244375
30
0
0
VERTEX
8
0
10
2.611440625
20
32.0432
30
0
0
VERTEX
8
0
10
2.537709375
20
31.920190625
30
0
0
VERTEX
8
0
10
2.47010625
20
31.793709375000002
30
0
0
VERTEX
8
0
10
2.4087875000000003
20
31.664065625000003
30
0
0
VERTEX
8
0
10
2.35390625
20
31.53156875
30
0
0
VERTEX
8
0
10
2.3055937500000003
20
31.396540625
30
0
0
VERTEX
8
0
10
2.2639625000000003
20
31.259303125000002
30
0
0
VERTEX
8
0
10
2.229115625
20
31.1201875
30
0
0
VERTEX
8
0
10
2.2011375
20
30.97953125
30
0
0
VERTEX
8
0
10
2.18009375
20
30.837668750000002
30
0
0
VERTEX
8
0
10
2.1660375000000003
20
30.694946875000003
30
0
0
VERTEX
8
0
10
2.1590000000000003
20
30.551706250000002
30
0
0
VERTEX
8
0
10
2.1590000000000003
20
30.408293750000002
30
0
0
VERTEX
8
0
10
2.1660375000000003
20
30.265053125
30
0
0
VERTEX
8
0
10
2.18009375
20
30.122331250000002
30
0
0
VERTEX
8
0
10
2.2011375
20
29.98046875
30
0
0
VERTEX
8
0
10
2.229115625
20
29.8398125
30
0
0
VERTEX
8
0
10
2.2639625000000003
20
29.700696875000002
30
0
0
VERTEX
8
0
10
2.3055937500000003
20
29.563459375
30
0
0
VERTEX
8
0
10
2.35390625
20
29.428431250000003
30
0
0
VERTEX
8
0
10
2.4087875000000003
20
29.295934375
30
0
0
VERTEX
8
0
10
2.47010625
20
29.166290625000002
30
0
0
VERTEX
8
0
10
2.537709375
20
29.039809375
30
0
0
VERTEX
8
0
10
2.611440625
20
28.916800000000002
30
0
0
VERTEX
8
0
10
2.691115625
20
28.797556250000003
30
0
0
VERTEX
8
0
10
2.776546875
20
28.682365625000003
30
0
0
VERTEX
8
0
10
2.867528125
20
28.571506250000002
30
0
0
VERTEX
8
0
10
2.9638375000000003
20
28.465243750000003
30
0
0
VERTEX
8
0
10
3.06524375
20
28.363837500000002
30
0
0
VERTEX
8
0
10
3.17150625
20
28.267528125000002
30
0
0
VERTEX
8
0
10
3.282365625
20
28.176546875
30
0
0
VERTEX
8
0
10
3.39755625
20
28.091115625
30
0
0
VERTEX
8
0
10
3.5168000000000004
20
28.011440625000002
30
0
0
VERTEX
8
0
10
3.639809375
20
27.937709375
30
0
0
VERTEX
8
0
10
3.7662906250000003
20
27.870106250000003
30
0
0
VERTEX
8
0
10
3.8959343750000004
20
27.8087875
30
0
0
VERTEX
8
0
10
4.028431250000001
20
27.75390625
30
0
0
VERTEX
8
0
10
4.163459375
20
27.705593750000002
30
0
0
VERTEX
8
0
10
4.300696875
20
27.6639625
30
0
0
VERTEX
8
0
10
4.4398125
20
27.629115625
30
0
0
VERTEX
8
0
10
4.5804687500000005
20
27.6011375
30
0
0
VERTEX
8
0
10
4.72233125
20
27.58009375
30
0
0
VERTEX
8
0
10
4.865053125
20
27.5660375
30
0
0
VERTEX
8
0
10
4.953
20
27.561715625
30
0
0
VERTEX
8
0
10
4.953
20
24.117490625000002
30
0
0
VERTEX
8
0
10
4.95788125
20
24.09295625
30
0
0
VERTEX
8
0
10
4.9674531250000005
20
24.06984375
30
0
0
VERTEX
8
0
10
4.981353125
20
24.049043750000003
30
0
0
VERTEX
8
0
10
6.269043750000001
20
22.761353125
30
0
0
SEQEND
0
POLYLINE
66
1
8
16_copper
10
0.0
20
0.0
30
0.0
70
1
0
VERTEX
8
0
10
5.294946875
20
27.5660375
30
0
0
VERTEX
8
0
10
5.43766875
20
27.58009375
30
0
0
VERTEX
8
0
10
5.5795312500000005
20
27.6011375
30
0
0
VERTEX
8
0
10
5.720187500000001
20
27.629115625
30
0
0
VERTEX
8
0
10
5.859303125
20
27.6639625
30
0
0
VERTEX
8
0
10
5.996540625000001
20
27.705593750000002
30
0
0
VERTEX
8
0
10
6.1315687500000005
20
27.75390625
30
0
0
VERTEX
8
0
10
6.264065625000001
20
27.8087875
30
0
0
VERTEX
8
0
10
6.393709375
20
27.870106250000003
30
0
0
VERTEX
8
0
10
6.520190625000001
20
27.937709375
30
0
0
VERTEX
8
0
10
6.6432
20
28.011440625000002
30
0
0
VERTEX
8
0
10
6.76244375
20
28.091115625
30
0
0
VERTEX
8
0
10
6.877634375
20
28.176546875
30
0
0
VERTEX
8
0
10
6.98849375
20
28.267528125000002
30
0
0
VERTEX
8
0
10
7.0947562500000005
20
28.363837500000002
30
0
0
VERTEX
8
0
10
7.196162500000001
20
28.465243750000003
30
0
0
VERTEX
8
0
10
7.292471875
20
28.571506250000002
30
0
0
VERTEX
8
0
10
7.383453125
20
28.682365625000003
30
0
0
VERTEX
8
0
10
7.468884375
20
28.797556250000003
30
0
0
VERTEX
8
0
10
7.548559375
20
28.916800000000002
30
0
0
VERTEX
8
0
10
7.622290625000001
20
29.039809375
30
0
0
VERTEX
8
0
10
7.68989375
20
29.166290625000002
30
0
0
VERTEX
8
0
10
7.7512125
20
29.295934375
30
0
0
VERTEX
8
0
10
7.8060937500000005
20
29.428431250000003
30
0
0
VERTEX
8
0
10
7.85440625
20
29.563459375
30
0
0
VERTEX
8
0
10
7.8960375
20
29.700696875000002
30
0
0
VERTEX
8
0
10
7.930884375000001
20
29.8398125
30
0
0
VERTEX
8
0
10
7.9588625
20
29.98046875
30
0
0
VERTEX
8
0
10
7.97990625
20
30.122331250000002
30
0
0
VERTEX
8
0
10
7.9939625
20
30.265053125
30
0
0
VERTEX
8
0
10
8.001000000000001
20
30.408293750000002
30
0
0
VERTEX
8
0
10
8.001000000000001
20
30.551706250000002
30
0
0
VERTEX
8
0
10
7.9939625
20
30.694946875000003
30
0
0
VERTEX
8
0
10
7.97990625
20
30.837668750000002
30
0
0
VERTEX
8
0
10
7.9588625
20
30.97953125
30
0
0
VERTEX
8
0
10
7.930884375000001
20
31.1201875
30
0
0
VERTEX
8
0
10
7.8960375
20
31.259303125000002
30
0
0
VERTEX
8
0
10
7.85440625
20
31.396540625
30
0
0
VERTEX
8
0
10
7.8060937500000005
20
31.53156875
30
0
0
VERTEX
8
0
10
7.7512125
20
31.664065625000003
30
0
0
VERTEX
8
0
10
7.68989375
20
31.793709375000002
30
0
0
VERTEX
8
0
10
7.622290625000001
20
31.920190625
30
0
0
VERTEX
8
0
10
7.548559375
20
32.0432
30
0
0
VERTEX
8
0
10
7.468884375
20
32.16244375
30
0
0
VERTEX
8
0
10
7.383453125
20
32.277634375
30
0
0
VERTEX
8
0
10
7.292471875
20
32.38849375
30
0
0
VERTEX
8
0
10
7.196162500000001
20
32.49475625
30
0
0
VERTEX
8
0
10
7.0947562500000005
20
32.5961625
30
0
0
VERTEX
8
0
10
6.98849375
20
32.692471875
30
0
0
VERTEX
8
0
10
6.877634375
20
32.783453125
30
0
0
VERTEX
8
0
10
6.76244375
20
32.868884375
30
0
0
VERTEX
8
0
10
6.6432
20
32.948559375
30
0
0
VERTEX
8
0
10
6.520190625000001
20
33.022290625000004
30
0
0
VERTEX
8
0
10
6.393709375
20
33.08989375
30
0
0
VERTEX
8
0
10
6.264065625000001
20
33.1512125
30
0
0
VERTEX
8
0
10
6.1315687500000005
20
33.20609375
30
0
0
VERTEX
8
0
10
5.996540625000001
20
33.25440625
30
0
0
VERTEX
8
0
10
5.859303125
20
33.296037500000004
30
0
0
VERTEX
8
0
10
5.720187500000001
20
33.330884375000004
30
0
0
VERTEX
8
0
10
5.5795312500000005
20
33.3588625
30
0
0
VERTEX
8
0
10
5.43766875
20
33.379906250000005
30
0
0
VERTEX
8
0
10
5.294946875
20
33.3939625
30
0
0
VERTEX
8
0
10
5.15170625
20
33.401
30
0
0
VERTEX
8
0
10
5.00829375
20
33.401
30
0
0
VERTEX
8
0
10
4.865053125
20
33.3939625
30
0
0
VERTEX
8
0
10
4.72233125
20
33.379906250000005
30
0
0
VERTEX
8
0
10
4.5804687500000005
20
33.3588625
30
0
0
VERTEX
8
0
10
4.4398125
20
33.330884375000004
30
0
0
VERTEX
8
0
10
4.300696875
20
33.296037500000004
30
0
0
VERTEX
8
0
10
4.163459375
20
33.25440625
30
0
0
VERTEX
8
0
10
4.028431250000001
20
33.20609375
30
0
0
VERTEX
8
0
10
3.8959343750000004
20
33.1512125
30
0
0
VERTEX
8
0
10
3.7662906250000003
20
33.08989375
30
0
0
VERTEX
8
0
10
3.639809375
20
33.022290625000004
30
0
0
VERTEX
8
0
10
3.5168000000000004
20
32.948559375
30
0
0
VERTEX
8
0
10
3.39755625
20
32.868884375
30
0
0
VERTEX
8
0
10
3.282365625
20
32.783453125
30
0
0
VERTEX
8
0
10
3.17150625
20
32.692471875
30
0
0
VERTEX
8
0
10
3.06524375
20
32.5961625
30
0
0
VERTEX
8
0
10
2.9638375000000003
20
32.49475625
30
0
0
VERTEX
8
0
10
2.867528125
20
32.38849375
30
0
0
VERTEX
8
0
10
2.776546875
20
32.277634375
30
0
0
VERTEX
8
0
10
2.691115625
20
32.16244375
30
0
0
VERTEX
8
0
10
2.611440625
20
32.0432
30
0
0
VERTEX
8
0
10
2.537709375
20
31.920190625
30
0
0
VERTEX
8
0
10
2.47010625
20
31.793709375000002
30
0
0
VERTEX
8
0
10
2.4087875000000003
20
31.664065625000003
30
0
0
VERTEX
8
0
10
2.35390625
20
31.53156875
30
0
0
VERTEX
8
0
10
2.3055937500000003
20
31.396540625
30
0
0
VERTEX
8
0
10
2.2639625000000003
20
31.259303125000002
30
0
0
VERTEX
8
0
10
2.229115625
20
31.1201875
30
0
0
VERTEX
8
0
10
2.2011375
20
30.97953125
30
0
0
VERTEX
8
0
10
2.18009375
20
30.837668750000002
30
0
0
VERTEX
8
0
10
2.1660375000000003
20
30.694946875000003
30
0
0
VERTEX
8
0
10
2.1590000000000003
20
30.551706250000002
30
0
0
VERTEX
8
0
10
2.1590000000000003
20
30.408293750000002
30
0
0
VERTEX
8
0
10
2.1660375000000003
20
30.265053125
30
0
0
VERTEX
8
0
10
2.18009375
20
30.122331250000002
30
0
0
VERTEX
8
0
10
2.2011375
20
29.98046875
30
0
0
VERTEX
8
0
10
2.229115625
20
29.8398125
30
0
0
VERTEX
8
0
10
2.2639625000000003
20
29.700696875000002
30
0
0
VERTEX
8
0
10
2.3055937500000003
20
29.563459375
30
0
0
VERTEX
8
0
10
2.35390625
20
29.428431250000003
30
0
0
VERTEX
8
0
10
2.4087875000000003
20
29.295934375
30
0
0
VERTEX
8
0
10
2.47010625
20
29.166290625000002
30
0
0
VERTEX
8
0
10
2.537709375
20
29.039809375
30
0
0
VERTEX
8
0
10
2.611440625
20
28.916800000000002
30
0
0
VERTEX
8
0
10
2.691115625
20
28.797556250000003
30
0
0
VERTEX
8
0
10
2.776546875
20
28.682365625000003
30
0
0
VERTEX
8
0
10
2.867528125
20
28.571506250000002
30
0
0
VERTEX
8
0
10
2.9638375000000003
20
28.465243750000003
30
0
0
VERTEX
8
0
10
3.06524375
20
28.363837500000002
30
0
0
VERTEX
8
0
10
3.17150625
20
28.267528125000002
30
0
0
VERTEX
8
0
10
3.282365625
20
28.176546875
30
0
0
VERTEX
8
0
10
3.39755625
20
28.091115625
30
0
0
VERTEX
8
0
10
3.5168000000000004
20
28.011440625000002
30
0
0
VERTEX
8
0
10
3.639809375
20
27.937709375
30
0
0
VERTEX
8
0
10
3.7662906250000003
20
27.870106250000003
30
0
0
VERTEX
8
0
10
3.8959343750000004
20
27.8087875
30
0
0
VERTEX
8
0
10
4.028431250000001
20
27.75390625
30
0
0
VERTEX
8
0
10
4.163459375
20
27.705593750000002
30
0
0
VERTEX
8
0
10
4.300696875
20
27.6639625
30
0
0
VERTEX
8
0
10
4.4398125
20
27.629115625
30
0
0
VERTEX
8
0
10
4.5804687500000005
20
27.6011375
30
0
0
VERTEX
8
0
10
4.72233125
20
27.58009375
30
0
0
VERTEX
8
0
10
4.865053125
20
27.5660375
30
0
0
VERTEX
8
0
10
5.00829375
20
27.559
30
0
0
VERTEX
8
0
10
5.15170625
20
27.559
30
0
0
SEQEND
0
POLYLINE
66
1
8
1_copper
10
0.0
20
0.0
30
0.0
70
1
0
VERTEX
8
0
10
4.865053125
20
13.0739625
30
0
0
VERTEX
8
0
10
4.72233125
20
13.059906250000001
30
0
0
VERTEX
8
0
10
4.5804687500000005
20
13.0388625
30
0
0
VERTEX
8
0
10
4.4398125
20
13.010884375
30
0
0
VERTEX
8
0
10
4.300696875
20
12.9760375
30
0
0
VERTEX
8
0
10
4.163459375
20
12.93440625
30
0
0
VERTEX
8
0
10
4.028431250000001
20
12.88609375
30
0
0
VERTEX
8
0
10
3.8959343750000004
20
12.831212500000001
30
0
0
VERTEX
8
0
10
3.7662906250000003
20
12.769893750000001
30
0
0
VERTEX
8
0
10
3.639809375
20
12.702290625
30
0
0
VERTEX
8
0
10
3.5168000000000004
20
12.628559375
30
0
0
VERTEX
8
0
10
3.39755625
20
12.548884375
30
0
0
VERTEX
8
0
10
3.282365625
20
12.463453125000001
30
0
0
VERTEX
8
0
10
3.17150625
20
12.372471875
30
0
0
VERTEX
8
0
10
3.06524375
20
12.2761625
30
0
0
VERTEX
8
0
10
2.9638375000000003
20
12.17475625
30
0
0
VERTEX
8
0
10
2.867528125
20
12.06849375
30
0
0
VERTEX
8
0
10
2.776546875
20
11.957634375000001
30
0
0
VERTEX
8
0
10
2.691115625
20
11.842443750000001
30
0
0
VERTEX
8
0
10
2.611440625
20
11.7232
30
0
0
VERTEX
8
0
10
2.537709375
20
11.600190625
30
0
0
VERTEX
8
0
10
2.47010625
20
11.473709375
30
0
0
VERTEX
8
0
10
2.4087875000000003
20
11.344065625
30
0
0
VERTEX
8
0
10
2.35390625
20
11.211568750000001
30
0
0
VERTEX
8
0
10
2.3055937500000003
20
11.076540625
30
0
0
VERTEX
8
0
10
2.2639625000000003
20
10.939303125
30
0
0
VERTEX
8
0
10
2.229115625
20
10.8001875
30
0
0
VERTEX
8
0
10
2.2011375
20
10.65953125
30
0
0
VERTEX
8
0
10
2.18009375
20
10.51766875
30
0
0
VERTEX
8
0
10
2.1660375000000003
20
10.374946875000001
30
0
0
VERTEX
8
0
10
2.1590000000000003
20
10.23170625
30
0
0
VERTEX
8
0
10
2.1590000000000003
20
10.08829375
30
0
0
VERTEX
8
0
10
2.1660375000000003
20
9.945053125000001
30
0
0
VERTEX
8
0
10
2.18009375
20
9.80233125
30
0
0
VERTEX
8
0
10
2.2011375
20
9.66046875
30
0
0
VERTEX
8
0
10
2.229115625
20
9.5198125
30
0
0
VERTEX
8
0
10
2.2639625000000003
20
9.380696875
30
0
0
VERTEX
8
0
10
2.3055937500000003
20
9.243459375
30
0
0
VERTEX
8
0
10
2.35390625
20
9.10843125
30
0
0
VERTEX
8
0
10
2.4087875000000003
20
8.975934375
30
0
0
VERTEX
8
0
10
2.47010625
20
8.846290625
30
0
0
VERTEX
8
0
10
2.537709375
20
8.719809375
30
0
0
VERTEX
8
0
10
2.611440625
20
8.5968
30
0
0
VERTEX
8
0
10
2.691115625
20
8.477556250000001
30
0
0
VERTEX
8
0
10
2.776546875
20
8.362365625
30
0
0
VERTEX
8
0
10
2.867528125
20
8.25150625
30
0
0
VERTEX
8
0
10
2.9638375000000003
20
8.14524375
30
0
0
VERTEX
8
0
10
3.06524375
20
8.0438375
30
0
0
VERTEX
8
0
10
3.17150625
20
7.947528125000001
30
0
0
VERTEX
8
0
10
3.282365625
20
7.856546875
30
0
0
VERTEX
8
0
10
3.39755625
20
7.771115625
30
0
0
VERTEX
8
0
10
3.5168000000000004
20
7.691440625
30
0
0
VERTEX
8
0
10
3.639809375
20
7.6177093750000004
30
0
0
VERTEX
8
0
10
3.7662906250000003
20
7.550106250000001
30
0
0
VERTEX
8
0
10
3.8959343750000004
20
7.4887875
30
0
0
VERTEX
8
0
10
4.028431250000001
20
7.433906250000001
30
0
0
VERTEX
8
0
10
4.163459375
20
7.38559375
30
0
0
VERTEX
8
0
10
4.300696875
20
7.3439625
30
0
0
VERTEX
8
0
10
4.4398125
20
7.3091156250000004
30
0
0
VERTEX
8
0
10
4.5804687500000005
20
7.281137500000001
30
0
0
VERTEX
8
0
10
4.72233125
20
7.26009375
30
0
0
VERTEX
8
0
10
4.865053125
20
7.2460375
30
0
0
VERTEX
8
0
10
5.00829375
20
7.239000000000001
30
0
0
VERTEX
8
0
10
5.15170625
20
7.239000000000001
30
0
0
VERTEX
8
0
10
5.294946875
20
7.2460375
30
0
0
VERTEX
8
0
10
5.43766875
20
7.26009375
30
0
0
VERTEX
8
0
10
5.5795312500000005
20
7.281137500000001
30
0
0
VERTEX
8
0
10
5.720187500000001
20
7.3091156250000004
30
0
0
VERTEX
8
0
10
5.859303125
20
7.3439625
30
0
0
VERTEX
8
0
10
5.996540625000001
20
7.38559375
30
0
0
VERTEX
8
0
10
6.1315687500000005
20
7.433906250000001
30
0
0
VERTEX
8
0
10
6.264065625000001
20
7.4887875
30
0
0
VERTEX
8
0
10
6.393709375
20
7.550106250000001
30
0
0
VERTEX
8
0
10
6.520190625000001
20
7.6177093750000004
30
0
0
VERTEX
8
0
10
6.6432
20
7.691440625
30
0
0
VERTEX
8
0
10
6.76244375
20
7.771115625
30
0
0
VERTEX
8
0
10
6.877634375
20
7.856546875
30
0
0
VERTEX
8
0
10
6.98849375
20
7.947528125000001
30
0
0
VERTEX
8
0
10
7.0947562500000005
20
8.0438375
30
0
0
VERTEX
8
0
10
7.196162500000001
20
8.14524375
30
0
0
VERTEX
8
0
10
7.292471875
20
8.25150625
30
0
0
VERTEX
8
0
10
7.383453125
20
8.362365625
30
0
0
VERTEX
8
0
10
7.468884375
20
8.477556250000001
30
0
0
VERTEX
8
0
10
7.548559375
20
8.5968
30
0
0
VERTEX
8
0
10
7.622290625000001
20
8.719809375
30
0
0
VERTEX
8
0
10
7.68989375
20
8.846290625
30
0
0
VERTEX
8
0
10
7.7512125
20
8.975934375
30
0
0
VERTEX
8
0
10
7.8060937500000005
20
9.10843125
30
0
0
VERTEX
8
0
10
7.85440625
20
9.243459375
30
0
0
VERTEX
8
0
10
7.8960375
20
9.380696875
30
0
0
VERTEX
8
0
10
7.930884375000001
20
9.5198125
30
0
0
VERTEX
8
0
10
7.9588625
20
9.66046875
30
0
0
VERTEX
8
0
10
7.97990625
20
9.80233125
30
0
0
VERTEX
8
0
10
7.9939625
20
9.945053125000001
30
0
0
VERTEX
8
0
10
8.001000000000001
20
10.08829375
30
0
0
VERTEX
8
0
10
8.001000000000001
20
10.23170625
30
0
0
VERTEX
8
0
10
7.9939625
20
10.374946875000001
30
0
0
VERTEX
8
0
10
7.97990625
20
10.51766875
30
0
0
VERTEX
8
0
10
7.9588625
20
10.65953125
30
0
0
VERTEX
8
0
10
7.930884375000001
20
10.8001875
30
0
0
VERTEX
8
0
10
7.8960375
20
10.939303125
30
0
0
VERTEX
8
0
10
7.85440625
20
11.076540625
30
0
0
VERTEX
8
0
10
7.8060937500000005
20
11.211568750000001
30
0
0
VERTEX
8
0
10
7.7512125
20
11.344065625
30
0
0
VERTEX
8
0
10
7.68989375
20
11.473709375
30
0
0
VERTEX
8
0
10
7.622290625000001
20
11.600190625
30
0
0
VERTEX
8
0
10
7.548559375
20
11.7232
30
0
0
VERTEX
8
0
10
7.468884375
20
11.842443750000001
30
0
0
VERTEX
8
0
10
7.383453125
20
11.957634375000001
30
0
0
VERTEX
8
0
10
7.292471875
20
12.06849375
30
0
0
VERTEX
8
0
10
7.196162500000001
20
12.17475625
30
0
0
VERTEX
8
0
10
7.0947562500000005
20
12.2761625
30
0
0
VERTEX
8
0
10
6.98849375
20
12.372471875
30
0
0
VERTEX
8
0
10
6.877634375
20
12.463453125000001
30
0
0
VERTEX
8
0
10
6.76244375
20
12.548884375
30
0
0
VERTEX
8
0
10
6.6432
20
12.628559375
30
0
0
VERTEX
8
0
10
6.520190625000001
20
12.702290625
30
0
0
VERTEX
8
0
10
6.393709375
20
12.769893750000001
30
0
0
VERTEX
8
0
10
6.264065625000001
20
12.831212500000001
30
0
0
VERTEX
8
0
10
6.1315687500000005
20
12.88609375
30
0
0
VERTEX
8
0
10
5.996540625000001
20
12.93440625
30
0
0
VERTEX
8
0
10
5.859303125
20
12.9760375
30
0
0
VERTEX
8
0
10
5.720187500000001
20
13.010884375
30
0
0
VERTEX
8
0
10
5.5795312500000005
20
13.0388625
30
0
0
VERTEX
8
0
10
5.43766875
20
13.059906250000001
30
0
0
VERTEX
8
0
10
5.294946875
20
13.0739625
30
0
0
VERTEX
8
0
10
5.207
20
13.078284375
30
0
0
VERTEX
8
0
10
5.207
20
16.457396875
30
0
0
VERTEX
8
0
10
6.402603125000001
20
17.653000000000002
30
0
0
VERTEX
8
0
10
6.6675
20
17.653000000000002
30
0
0
VERTEX
8
0
10
6.6675
20
17.462500000000002
30
0
0
VERTEX
8
0
10
8.5725
20
17.462500000000002
30
0
0
VERTEX
8
0
10
8.5725
20
18.0975
30
0
0
VERTEX
8
0
10
6.6675
20
18.0975
30
0
0
VERTEX
8
0
10
6.6675
20
17.907
30
0
0
VERTEX
8
0
10
6.337490625
20
17.907
30
0
0
VERTEX
8
0
10
6.31295625
20
17.90211875
30
0
0
VERTEX
8
0
10
6.28984375
20
17.892546875
30
0
0
VERTEX
8
0
10
6.269043750000001
20
17.878646875
30
0
0
VERTEX
8
0
10
4.981353125
20
16.59095625
30
0
0
VERTEX
8
0
10
4.9674531250000005
20
16.57015625
30
0
0
VERTEX
8
0
10
4.95788125
20
16.54704375
30
0
0
VERTEX
8
0
10
4.953
20
16.522509375000002
30
0
0
VERTEX
8
0
10
4.953
20
13.078284375
30
0
0
SEQEND
0
POLYLINE
66
1
8
16_copper
10
0.0
20
0.0
30
0.0
70
1
0
VERTEX
8
0
10
5.294946875
20
7.2460375
30
0
0
VERTEX
8
0
10
5.43766875
20
7.26009375
30
0
0
VERTEX
8
0
10
5.5795312500000005
20
7.281137500000001
30
0
0
VERTEX
8
0
10
5.720187500000001
20
7.3091156250000004
30
0
0
VERTEX
8
0
10
5.859303125
20
7.3439625
30
0
0
VERTEX
8
0
10
5.996540625000001
20
7.38559375
30
0
0
VERTEX
8
0
10
6.1315687500000005
20
7.433906250000001
30
0
0
VERTEX
8
0
10
6.264065625000001
20
7.4887875
30
0
0
VERTEX
8
0
10
6.393709375
20
7.550106250000001
30
0
0
VERTEX
8
0
10
6.520190625000001
20
7.6177093750000004
30
0
0
VERTEX
8
0
10
6.6432
20
7.691440625
30
0
0
VERTEX
8
0
10
6.76244375
20
7.771115625
30
0
0
VERTEX
8
0
10
6.877634375
20
7.856546875
30
0
0
VERTEX
8
0
10
6.98849375
20
7.947528125000001
30
0
0
VERTEX
8
0
10
7.0947562500000005
20
8.0438375
30
0
0
VERTEX
8
0
10
7.196162500000001
20
8.14524375
30
0
0
VERTEX
8
0
10
7.292471875
20
8.25150625
30
0
0
VERTEX
8
0
10
7.383453125
20
8.362365625
30
0
0
VERTEX
8
0
10
7.468884375
20
8.477556250000001
30
0
0
VERTEX
8
0
10
7.548559375
20
8.5968
30
0
0
VERTEX
8
0
10
7.622290625000001
20
8.719809375
30
0
0
VERTEX
8
0
10
7.68989375
20
8.846290625
30
0
0
VERTEX
8
0
10
7.7512125
20
8.975934375
30
0
0
VERTEX
8
0
10
7.8060937500000005
20
9.10843125
30
0
0
VERTEX
8
0
10
7.85440625
20
9.243459375
30
0
0
VERTEX
8
0
10
7.8960375
20
9.380696875
30
0
0
VERTEX
8
0
10
7.930884375000001
20
9.5198125
30
0
0
VERTEX
8
0
10
7.9588625
20
9.66046875
30
0
0
VERTEX
8
0
10
7.97990625
20
9.80233125
30
0
0
VERTEX
8
0
10
7.9939625
20
9.945053125000001
30
0
0
VERTEX
8
0
10
8.001000000000001
20
10.08829375
30
0
0
VERTEX
8
0
10
8.001000000000001
20
10.23170625
30
0
0
VERTEX
8
0
10
7.9939625
20
10.374946875000001
30
0
0
VERTEX
8
0
10
7.97990625
20
10.51766875
30
0
0
VERTEX
8
0
10
7.9588625
20
10.65953125
30
0
0
VERTEX
8
0
10
7.930884375000001
20
10.8001875
30
0
0
VERTEX
8
0
10
7.8960375
20
10.939303125
30
0
0
VERTEX
8
0
10
7.85440625
20
11.076540625
30
0
0
VERTEX
8
0
10
7.8060937500000005
20
11.211568750000001
30
0
0
VERTEX
8
0
10
7.7512125
20
11.344065625
30
0
0
VERTEX
8
0
10
7.68989375
20
11.473709375
30
0
0
VERTEX
8
0
10
7.622290625000001
20
11.600190625
30
0
0
VERTEX
8
0
10
7.548559375
20
11.7232
30
0
0
VERTEX
8
0
10
7.468884375
20
11.842443750000001
30
0
0
VERTEX
8
0
10
7.383453125
20
11.957634375000001
30
0
0
VERTEX
8
0
10
7.292471875
20
12.06849375
30
0
0
VERTEX
8
0
10
7.196162500000001
20
12.17475625
30
0
0
VERTEX
8
0
10
7.0947562500000005
20
12.2761625
30
0
0
VERTEX
8
0
10
6.98849375
20
12.372471875
30
0
0
VERTEX
8
0
10
6.877634375
20
12.463453125000001
30
0
0
VERTEX
8
0
10
6.76244375
20
12.548884375
30
0
0
VERTEX
8
0
10
6.6432
20
12.628559375
30
0
0
VERTEX
8
0
10
6.520190625000001
20
12.702290625
30
0
0
VERTEX
8
0
10
6.393709375
20
12.769893750000001
30
0
0
VERTEX
8
0
10
6.264065625000001
20
12.831212500000001
30
0
0
VERTEX
8
0
10
6.1315687500000005
20
12.88609375
30
0
0
VERTEX
8
0
10
5.996540625000001
20
12.93440625
30
0
0
VERTEX
8
0
10
5.859303125
20
12.9760375
30
0
0
VERTEX
8
0
10
5.720187500000001
20
13.010884375
30
0
0
VERTEX
8
0
10
5.5795312500000005
20
13.0388625
30
0
0
VERTEX
8
0
10
5.43766875
20
13.059906250000001
30
0
0
VERTEX
8
0
10
5.294946875
20
13.0739625
30
0
0
VERTEX
8
0
10
5.15170625
20
13.081000000000001
30
0
0
VERTEX
8
0
10
5.00829375
20
13.081000000000001
30
0
0
VERTEX
8
0
10
4.865053125
20
13.0739625
30
0
0
VERTEX
8
0
10
4.72233125
20
13.059906250000001
30
0
0
VERTEX
8
0
10
4.5804687500000005
20
13.0388625
30
0
0
VERTEX
8
0
10
4.4398125
20
13.010884375
30
0
0
VERTEX
8
0
10
4.300696875
20
12.9760375
30
0
0
VERTEX
8
0
10
4.163459375
20
12.93440625
30
0
0
VERTEX
8
0
10
4.028431250000001
20
12.88609375
30
0
0
VERTEX
8
0
10
3.8959343750000004
20
12.831212500000001
30
0
0
VERTEX
8
0
10
3.7662906250000003
20
12.769893750000001
30
0
0
VERTEX
8
0
10
3.639809375
20
12.702290625
30
0
0
VERTEX
8
0
10
3.5168000000000004
20
12.628559375
30
0
0
VERTEX
8
0
10
3.39755625
20
12.548884375
30
0
0
VERTEX
8
0
10
3.282365625
20
12.463453125000001
30
0
0
VERTEX
8
0
10
3.17150625
20
12.372471875
30
0
0
VERTEX
8
0
10
3.06524375
20
12.2761625
30
0
0
VERTEX
8
0
10
2.9638375000000003
20
12.17475625
30
0
0
VERTEX
8
0
10
2.867528125
20
12.06849375
30
0
0
VERTEX
8
0
10
2.776546875
20
11.957634375000001
30
0
0
VERTEX
8
0
10
2.691115625
20
11.842443750000001
30
0
0
VERTEX
8
0
10
2.611440625
20
11.7232
30
0
0
VERTEX
8
0
10
2.537709375
20
11.600190625
30
0
0
VERTEX
8
0
10
2.47010625
20
11.473709375
30
0
0
VERTEX
8
0
10
2.4087875000000003
20
11.344065625
30
0
0
VERTEX
8
0
10
2.35390625
20
11.211568750000001
30
0
0
VERTEX
8
0
10
2.3055937500000003
20
11.076540625
30
0
0
VERTEX
8
0
10
2.2639625000000003
20
10.939303125
30
0
0
VERTEX
8
0
10
2.229115625
20
10.8001875
30
0
0
VERTEX
8
0
10
2.2011375
20
10.65953125
30
0
0
VERTEX
8
0
10
2.18009375
20
10.51766875
30
0
0
VERTEX
8
0
10
2.1660375000000003
20
10.374946875000001
30
0
0
VERTEX
8
0
10
2.1590000000000003
20
10.23170625
30
0
0
VERTEX
8
0
10
2.1590000000000003
20
10.08829375
30
0
0
VERTEX
8
0
10
2.1660375000000003
20
9.945053125000001
30
0
0
VERTEX
8
0
10
2.18009375
20
9.80233125
30
0
0
VERTEX
8
0
10
2.2011375
20
9.66046875
30
0
0
VERTEX
8
0
10
2.229115625
20
9.5198125
30
0
0
VERTEX
8
0
10
2.2639625000000003
20
9.380696875
30
0
0
VERTEX
8
0
10
2.3055937500000003
20
9.243459375
30
0
0
VERTEX
8
0
10
2.35390625
20
9.10843125
30
0
0
VERTEX
8
0
10
2.4087875000000003
20
8.975934375
30
0
0
VERTEX
8
0
10
2.47010625
20
8.846290625
30
0
0
VERTEX
8
0
10
2.537709375
20
8.719809375
30
0
0
VERTEX
8
0
10
2.611440625
20
8.5968
30
0
0
VERTEX
8
0
10
2.691115625
20
8.477556250000001
30
0
0
VERTEX
8
0
10
2.776546875
20
8.362365625
30
0
0
VERTEX
8
0
10
2.867528125
20
8.25150625
30
0
0
VERTEX
8
0
10
2.9638375000000003
20
8.14524375
30
0
0
VERTEX
8
0
10
3.06524375
20
8.0438375
30
0
0
VERTEX
8
0
10
3.17150625
20
7.947528125000001
30
0
0
VERTEX
8
0
10
3.282365625
20
7.856546875
30
0
0
VERTEX
8
0
10
3.39755625
20
7.771115625
30
0
0
VERTEX
8
0
10
3.5168000000000004
20
7.691440625
30
0
0
VERTEX
8
0
10
3.639809375
20
7.6177093750000004
30
0
0
VERTEX
8
0
10
3.7662906250000003
20
7.550106250000001
30
0
0
VERTEX
8
0
10
3.8959343750000004
20
7.4887875
30
0
0
VERTEX
8
0
10
4.028431250000001
20
7.433906250000001
30
0
0
VERTEX
8
0
10
4.163459375
20
7.38559375
30
0
0
VERTEX
8
0
10
4.300696875
20
7.3439625
30
0
0
VERTEX
8
0
10
4.4398125
20
7.3091156250000004
30
0
0
VERTEX
8
0
10
4.5804687500000005
20
7.281137500000001
30
0
0
VERTEX
8
0
10
4.72233125
20
7.26009375
30
0
0
VERTEX
8
0
10
4.865053125
20
7.2460375
30
0
0
VERTEX
8
0
10
5.00829375
20
7.239000000000001
30
0
0
VERTEX
8
0
10
5.15170625
20
7.239000000000001
30
0
0
SEQEND
0
CIRCLE
8
drills_PTH
10
5.08
20
30.48
30
0
40
1.6500000000000001
0
CIRCLE
8
drills_PTH
10
5.08
20
10.16
30
0
40
1.6500000000000001
0
CIRCLE
8
drills_NPTH
10
12.700000000000001
20
5.08
30
0
40
1.6
0
CIRCLE
8
drills_NPTH
10
35.56
20
35.56
30
0
40
1.6
0
CIRCLE
8
drills_NPTH
10
12.700000000000001
20
35.56
30
0
40
1.6
0
CIRCLE
8
drills_NPTH
10
35.56
20
5.08
30
0
40
1.6
0
CIRCLE
8
drills_PTH
10
39.405
20
17.745
30
0
40
0.9500000000000001
0
CIRCLE
8
drills_PTH
10
34.255
20
17.745
30
0
40
0.9500000000000001
0
CIRCLE
8
drills_PTH
10
34.255
20
22.895
30
0
40
0.9500000000000001
0
CIRCLE
8
drills_PTH
10
39.405
20
22.895
30
0
40
0.9500000000000001
0
CIRCLE
8
drills_PTH
10
36.83
20
20.32
30
0
40
0.8
0
ENDSEC
0
EOF